<?xml version="1.0" encoding="utf-8"?>
<!-- Generator: Adobe Illustrator 25.0.0, SVG Export Plug-In . SVG Version: 6.00 Build 0)  -->
<svg version="1.1" id="Layer_1" xmlns="http://www.w3.org/2000/svg" xmlns:xlink="http://www.w3.org/1999/xlink" x="0px" y="0px"
	 viewBox="0 0 17.7 10.2" style="enable-background:new 0 0 17.7 10.2;" xml:space="preserve">
<style type="text/css">
	.st0{fill-rule:evenodd;clip-rule:evenodd;fill:#232323;}
</style>
<path id="_" class="st0" d="M1.5,0.5c-0.1,0-0.2,0.1-0.3,0.2L0.7,1.2C0.6,1.3,0.5,1.4,0.5,1.5c0,0.1,0.1,0.2,0.1,0.3L4,5.1L0.6,8.5
	C0.6,8.5,0.5,8.6,0.5,8.7C0.5,8.9,0.6,9,0.7,9l0.5,0.5c0.1,0.1,0.2,0.1,0.3,0.2c0.1,0,0.2-0.1,0.3-0.2L6,5.4C6,5.3,6.1,5.2,6.1,5.1
	C6.1,5,6,4.9,6,4.9L1.8,0.7C1.7,0.6,1.6,0.5,1.5,0.5L1.5,0.5L1.5,0.5z M12.6,0.5c-0.1,0-0.2,0.1-0.3,0.2l-0.5,0.5
	c-0.1,0.1-0.2,0.2-0.2,0.3c0,0.1,0.1,0.2,0.2,0.3l3.4,3.4l-3.4,3.3c-0.1,0.1-0.1,0.2-0.2,0.3c0,0.1,0.1,0.2,0.2,0.3l0.5,0.5
	c0.1,0.1,0.2,0.1,0.3,0.2c0.1,0,0.2-0.1,0.3-0.2l4.2-4.2c0.1-0.1,0.1-0.2,0.1-0.3c0-0.1-0.1-0.2-0.1-0.2l-4.2-4.2
	C12.8,0.6,12.7,0.5,12.6,0.5L12.6,0.5L12.6,0.5z"/>
</svg>
