<svg width="48" height="48" xmlns="http://www.w3.org/2000/svg">

 <g>
  <title>background</title>
  <rect fill="none" id="canvas_background" height="402" width="582" y="-1" x="-1"/>
 </g>
 <g>
  <title>Layer 1</title>
  <path id="svg_2" fill="#d6d6d6" d="m34.74927,16.55811c0.19336,0 0.3501,-0.15625 0.3501,-0.34961l0,-1.63086l1.63037,0c0.19336,0 0.3501,-0.15625 0.3501,-0.34961s-0.15674,-0.34961 -0.3501,-0.34961l-1.63037,0l0,-1.63086c0,-0.19336 -0.15674,-0.34961 -0.3501,-0.34961s-0.3501,0.15625 -0.3501,0.34961l0,1.63086l-1.63037,0c-0.19336,0 -0.3501,0.15625 -0.3501,0.34961s0.15674,0.34961 0.3501,0.34961l1.63037,0l0,1.63086c0,0.19336 0.15674,0.34961 0.3501,0.34961z"/>
  <path id="svg_4" fill="#d6d6d6" d="m22.84106,31.62842c2.15283,0 3.90381,-1.75195 3.90381,-3.9043s-1.75098,-3.9043 -3.90381,-3.9043s-3.9043,1.75195 -3.9043,3.9043s1.75147,3.9043 3.9043,3.9043zm0,-7.06153c1.74121,0 3.15771,1.41602 3.15771,3.15723s-1.4165,3.15723 -3.15771,3.15723s-3.1582,-1.41602 -3.1582,-3.15723s1.41699,-3.15723 3.1582,-3.15723z"/>
  <path id="svg_5" fill="#d6d6d6" d="m27.10712,26.01221c0.21362,0.53021 0.33795,1.10602 0.33795,1.71191c0,2.53906 -2.06543,4.60352 -4.604,4.60352c-2.53906,0 -4.60449,-2.06445 -4.60449,-4.60352c0,-0.6059 0.12439,-1.1817 0.33801,-1.71191l-6.95422,0l-0.7002,0l0,9.07129c0,0.56152 0.45752,1.01855 1.02002,1.01855l21.79053,0c0.56836,0 1.03076,-0.46191 1.03076,-1.03027l0,-9.05957l-0.7002,0l-6.95416,0z"/>
  <path id="svg_6" fill="#d6d6d6" d="m33.74146,19.33838l-5.86719,0l-1.24951,-2.2168c-0.1748,-0.3125 -0.50586,-0.50586 -0.86328,-0.50586l-5.84131,0c-0.35742,0 -0.68848,0.19336 -0.86279,0.50488l-1.25049,2.21777l-5.87744,0c-0.55664,0 -1.00928,0.45215 -1.00928,1.00879l0,4.96582l0.7002,0l7.31598,0c0.8125,-1.31042 2.25238,-2.19238 3.90472,-2.19238c1.65204,0 3.0918,0.88196 3.90424,2.19238l7.31598,0l0.7002,0l0,-4.95508c-0.00002,-0.56249 -0.45753,-1.01952 -1.02003,-1.01952z"/>
 </g>
</svg>