<svg xmlns="http://www.w3.org/2000/svg" width="7.188" height="4.374" viewBox="0 0 7.188 4.374">
  <defs>
    <style>
      .cls-1 {
        fill: #232323;
        fill-rule: evenodd;
      }
    </style>
  </defs>
  <path id="_" data-name="&gt;" class="cls-1" d="M461.709,498.458a0.458,0.458,0,0,0-.126-0.224l-0.42-.392a0.387,0.387,0,0,0-.224-0.14,0.309,0.309,0,0,0-.21.112l-2.618,2.618-2.6-2.618a0.313,0.313,0,0,0-.21-0.112,0.384,0.384,0,0,0-.224.14l-0.42.392a0.458,0.458,0,0,0-.126.224,0.347,0.347,0,0,0,.126.224l3.276,3.276a0.282,0.282,0,0,0,.2.1,0.722,0.722,0,0,0,.182-0.1l3.276-3.276a0.347,0.347,0,0,0,.126-0.224h0Z" transform="translate(-454.531 -497.688)"/>
</svg>
