<svg xmlns="http://www.w3.org/2000/svg" width="25" height="24" viewBox="0 0 25 24">
  <defs>
    <style>
      .cls-1 {
        fill: #b8b8bc;
        fill-rule: evenodd;
      }
    </style>
  </defs>
  <path class="cls-1" d="M179.758,652.146a1.2,1.2,0,0,1-.869-0.376l-4.552-4.755a1.324,1.324,0,0,1,0-1.815,1.193,1.193,0,0,1,1.737,0l3.684,3.849L191.9,636.372a1.192,1.192,0,0,1,1.737,0,1.324,1.324,0,0,1,0,1.815L180.626,651.77A1.2,1.2,0,0,1,179.758,652.146ZM190.184,660H170.225A1.257,1.257,0,0,1,169,658.717V637.87a1.256,1.256,0,0,1,1.229-1.283h13.759a1.284,1.284,0,0,1,0,2.566H171.453v18.281h17.5v-9.141a1.23,1.23,0,1,1,2.457,0v10.424A1.258,1.258,0,0,1,190.184,660Z" transform="translate(-169 -636)"/>
</svg>
