<svg id="b02908b9-d1e7-4a73-83f6-053b9e98e184" data-name="Layer 2" xmlns="http://www.w3.org/2000/svg" viewBox="0 0 206.52 114.84"><g style="isolation:isolate"><path d="M188.44,46.78c5,3,18.08,12.95,18.08,12.95S125.28,49.89,94.81,42.3C76.54,37.75,50.26,23.94,32.48,13.24a1,1,0,0,1-.33-.21C26.49,9.62,21.69,6.59,18.3,4.4c3.17,4.08,7.24,9.83,8.81,14.22.25.69.47,1.53.75,2.59q.08.27.15.57c4.16,1.2,30.51,9.27,48.1,24.91,8,7.12,13.7,18.5,18.26,27.64,1.81,3.62,3.37,6.75,4.82,9.11,10.13,16.44,17.22,27.49,17.29,27.59l2.45,3.81s-6.22-3.7-8.14-5.18C39.22,63.54,29.24,33.89,26.23,22.87a.09.09,0,0,0,0-.05c-.1-.39-.2-.75-.29-1.1-.27-1-.49-1.82-.7-2.43C22.7,12.21,12.76.77,12.66.66L12.08,0h3.13C17.83,1.73,24.39,6,33,11.23l2.33-.48h0c3-.61,8.32-1.6,14.94-2.58a.78.78,0,0,1,.22,0c2.67-.39,5.53-.78,8.56-1.14a5.62,5.62,0,0,1,1.32-.17h.05c2.67-.31,5.45-.59,8.3-.83L69,6a1.69,1.69,0,0,1,.23,0c3.54-.29,7.17-.52,10.83-.65a11.58,11.58,0,0,1,2.74-.09h0c3.22-.07,6.44-.05,9.62.07a4.6,4.6,0,0,1,.8,0h.05c3.6.16,7.12.46,10.49.93h.08c1.46.2,2.89.42,4.28.69a117.24,117.24,0,0,1,26.08,8.15h0a146.39,146.39,0,0,1,15.07,7.94,3.84,3.84,0,0,1,1.43.86c3,1.83,6,3.71,9,5.62,4.57,2.9,9.31,5.9,14.42,8.84l2.14,1.24.05,0h0C180,41.77,184.28,44.31,188.44,46.78Zm7.9,7-8.92-5.29c-4.17-2.48-8.44-5-12.08-7.14-.28-.15-5.87-2.9-16.91,3.4C174.27,48.71,188.56,52.15,196.34,53.79Zm-40.65-9.71c6.55-4.1,11.54-5.31,15-5.45-3-1.75-5.82-3.52-8.59-5.26-.5-.19-6.48-2.15-22.11,6.74C145.22,41.45,150.52,42.79,155.69,44.08Zm39.55,11.53C177.39,51.84,130.63,40,103.7,32.78a1,1,0,0,1-.34-.09c-4.86-1.31-9-2.45-12.3-3.37a1,1,0,0,1-.29-.08c-3.45-1-5.78-1.68-6.61-2-6.79-2.75-43.86-13.1-48.47-14.39C53.25,23.29,77.81,36.54,95.24,40.35A853.44,853.44,0,0,0,195.24,55.61Zm-58-16.21c10.59-6.29,17.35-8,21.28-8.29-3.31-2.1-6.59-4.17-9.94-6.17-2.06-.71-8.71-1.06-25.86,10.73C127.36,36.88,132.25,38.14,137.2,39.4ZM120.13,35c12.57-8.84,20.18-11.68,24.69-12.25-3.63-2.06-7.38-4-11.4-5.81-1.5-.12-13.07-.49-27.69,14.27C110.12,32.39,115,33.67,120.13,35Zm9.09-19.84q-3.43-1.37-7.15-2.58a1,1,0,0,1-.9.06C121,12.58,110.55,8.32,93,27.79c2.91.8,6.46,1.77,10.49,2.84C114.5,19.22,123.9,16,129.22,15.17ZM111.87,108l.5.32c-2.92-4.59-8.25-13-14.88-23.81-1.5-2.44-3.08-5.6-4.91-9.27-4.49-9-10.07-20.17-17.79-27C61.18,36.1,42.21,28.6,32.76,25.38,39.15,33,57.47,55,63.25,61.08S96.26,96,111.87,108Zm2.92-97.48c-2.25-.57-4.58-1.1-7-1.57-1.34-.26-2.71-.48-4.1-.67-1,0-12.69.46-22.22,15.88,1.47.49,2.67.91,3.46,1.23s2.84.93,6,1.82C101.27,15.41,109.43,11.54,114.79,10.5ZM97.22,7.57c-1.5-.12-3-.21-4.55-.27s-9.28,1-18.87,14.43c2.09.63,4,1.23,5.7,1.77C85.51,13.57,92.33,9.35,97.22,7.57Zm-11-.38c-1.9,0-3.8,0-5.7.1-3.25.41-10,2.41-17.14,11.34,2.9.85,5.75,1.69,8.41,2.49C77.38,13.13,82.42,9.15,86.21,7.19ZM98.13,98.82C83.3,85.19,66.28,67.23,61.79,62.46,55.06,55.3,31.48,27,29.19,24.22l-.54-.17C32,35.18,42.7,60.49,98.13,98.82ZM73,7.67Q71,7.81,69.14,8c-1,.24-6.7,1.85-12.22,8.79L61.31,18A36.57,36.57,0,0,1,73,7.67Zm-10,.89c-1.18.12-2.34.26-3.49.39-1.42.36-4.38,1.68-7.38,6.42l2.78.8A30.94,30.94,0,0,1,62.94,8.56ZM54.27,9.62l-3.47.49c-1,.58-3.17,2.14-3.34,4l2.61.74A21.64,21.64,0,0,1,54.27,9.62Zm-8.76,3.89a5.93,5.93,0,0,1,1.42-2.8c-2.68.43-5.06.84-7.06,1.21Z" style="fill:#f9d4b8"/><path d="M25.67,44.73c6.51,13.38,15.48,45,15.3,51.84L40.89,100l-1.77-2.91s-.2-.34-.55-.91h0c-2.43-4-12.41-20.8-22.55-39.89A175.38,175.38,0,0,1,4.6,29.82c3.51,21.4,7.35,56.6.51,82l-.56,2.08-1.22-1.77A42.75,42.75,0,0,1,0,105.64v-5.52A64.79,64.79,0,0,0,3.78,109c.07-.31.13-.62.2-.93-2-7-3.26-28.54-4-49.52V7.18L0,7,1,10.94c0,.11.46,2,1.11,5.14l.82.73C3.57,17.42,19.37,31.77,25.67,44.73ZM36.11,81.67c-3.13-12-8.24-27.85-12.24-36.06-4.7-9.67-15.2-20.47-19.93-25l0,.08C5.82,23.58,26.33,56.31,36.11,81.67ZM17.79,55.32C25,68.9,32.12,81.28,36.5,88.74,30,68.7,13.62,40.41,6.08,27.92A171.74,171.74,0,0,0,17.79,55.32ZM5,103c4.82-28.09-.6-64.08-3.86-81.4C1.44,41.91,2.39,86.17,5,103Z" style="fill:#f9d4b8"/></g></svg>