<svg xmlns="http://www.w3.org/2000/svg" width="38" height="29" viewBox="0 0 38 29">
  <defs>
    <style>
      .cls-1 {
        fill: gray;
        fill-rule: evenodd;
      }
    </style>
  </defs>
  <path id="отследить" class="cls-1" d="M1537.27,57.928h-22.16V33.071h8.44v7.25a1.043,1.043,0,0,0,1.05,1.036h6.33a1.045,1.045,0,0,0,1.06-1.036v-7.25h8.44v2.071a1.055,1.055,0,0,0,2.11,0V32.036A1.043,1.043,0,0,0,1541.49,31h-27.44a1.052,1.052,0,0,0-1.06,1.036V58.964A1.052,1.052,0,0,0,1514.05,60h23.22A1.036,1.036,0,1,0,1537.27,57.928Zm-7.39-24.857v6.214h-4.22V33.071h4.22Zm18.33,7.235a9.635,9.635,0,0,0-13.44-.008,9.2,9.2,0,0,0,0,13.183l5.97,5.862a1.067,1.067,0,0,0,1.49,0h0l5.97-5.862a9.2,9.2,0,0,0,.01-13.176h0Zm-1.5,11.712-5.22,5.13-5.23-5.13a7.155,7.155,0,0,1,.01-10.253,7.478,7.478,0,0,1,10.44.007A7.155,7.155,0,0,1,1546.71,52.018Zm-5.22-9.625a4.143,4.143,0,1,0,4.22,4.143A4.176,4.176,0,0,0,1541.49,42.393Zm0,6.214a2.072,2.072,0,1,1,2.11-2.072A2.088,2.088,0,0,1,1541.49,48.607Z" transform="translate(-1513 -31)"/>
</svg>
