<?xml version="1.0" encoding="utf-8"?>
<!-- Generator: Adobe Illustrator 25.0.0, SVG Export Plug-In . SVG Version: 6.00 Build 0)  -->
<svg version="1.2" baseProfile="tiny" id="Layer_1" xmlns="http://www.w3.org/2000/svg" xmlns:xlink="http://www.w3.org/1999/xlink"
	 x="0px" y="0px" viewBox="0 0 37 29" overflow="visible" xml:space="preserve">
<path id="меню" fill-rule="evenodd" fill="#808080" d="M1,0C0.5,0,0,0.5,0,1c0,0.6,0.5,1,1,1H36c0.6,0,1-0.5,1-1
	c0-0.6-0.5-1-1-1H1z M1,13.5c-0.6,0-1,0.5-1,1c0,0.6,0.5,1,1,1H36c0.6,0,1-0.5,1-1c0-0.6-0.5-1-1-1H1z M1,26.9c-0.6,0-1,0.5-1,1.1
	c0,0.5,0.5,1,1,1H36c0.6,0,1-0.5,1-1.1c0-0.5-0.5-1-1-1H1z"/>
</svg>
