<svg xmlns="http://www.w3.org/2000/svg" width="41" height="35" viewBox="0 0 41 35">
  <defs>
    <style>
      .cls-1 {
        fill: gray;
        fill-rule: evenodd;
      }
    </style>
  </defs>
  <path id="корзина" class="cls-1" d="M1570.04,27.089h7.41l3.47,20.008a1.056,1.056,0,0,0,1.04.888h23.32a1.731,1.731,0,0,0,1.56-1.672l3.11-13.373a2.347,2.347,0,0,0,.05-0.261,1.447,1.447,0,0,0-1.55-1.463h-23.28a1.045,1.045,0,0,0,0,2.09h22.55l-2.9,12.537h-21.98l-3.47-19.955a1.064,1.064,0,0,0-1.04-.888h-8.29A1.045,1.045,0,0,0,1570.04,27.089ZM1604.76,46.1h0ZM1601.81,60a4.367,4.367,0,0,0,4.3-4.44,4.453,4.453,0,0,0-3.83-4.44h-16.49a4.459,4.459,0,1,0,3.63,2.09h8.81a4.492,4.492,0,0,0-.67,2.351A4.358,4.358,0,0,0,1601.81,60Zm0-6.791a2.315,2.315,0,0,1,2.23,2.351,2.233,2.233,0,1,1-4.46,0A2.315,2.315,0,0,1,1601.81,53.209Zm-16.07,4.7a2.354,2.354,0,1,1,2.23-2.351A2.276,2.276,0,0,1,1585.74,57.91Z" transform="translate(-1569 -25)"/>
</svg>
