<?xml version="1.0" encoding="utf-8"?>
<!-- Generator: Adobe Illustrator 25.0.0, SVG Export Plug-In . SVG Version: 6.00 Build 0)  -->
<svg version="1.1" id="Layer_1" xmlns="http://www.w3.org/2000/svg" xmlns:xlink="http://www.w3.org/1999/xlink" x="0px" y="0px"
	 viewBox="0 0 22 22.4" style="enable-background:new 0 0 22 22.4;" xml:space="preserve">
<style type="text/css">
	.st0{fill-rule:evenodd;clip-rule:evenodd;fill:#CAEFDA;}
	.st1{fill-rule:evenodd;clip-rule:evenodd;fill:#4ECE87;}
</style>
<g>
	<circle class="st0" cx="11" cy="11" r="11"/>
	<path class="st1" d="M15.7,6.5c-0.3,0-0.6,0.1-0.9,0.4c-2,1.9-3.8,3.8-5.6,5.8L7,10.9c-0.5-0.4-1.3-0.3-1.8,0.2
		c-0.4,0.5-0.3,1.3,0.2,1.7c0,0,0,0,0,0l0,0l3.1,2.5c0.5,0.4,1.2,0.3,1.7-0.1c2.2-2.2,4.2-4.4,6.4-6.5c0.5-0.5,0.5-1.2,0-1.7
		c0,0,0,0,0,0C16.4,6.6,16.1,6.5,15.7,6.5z"/>
</g>
</svg>
