<?xml version="1.0" encoding="utf-8"?>
<!-- Generator: Adobe Illustrator 25.0.0, SVG Export Plug-In . SVG Version: 6.00 Build 0)  -->
<svg version="1.1" id="Layer_1" xmlns="http://www.w3.org/2000/svg" xmlns:xlink="http://www.w3.org/1999/xlink" x="0px" y="0px"
	 viewBox="0 0 190 24" style="enable-background:new 0 0 190 24;" xml:space="preserve">
<style type="text/css">
	.st0{enable-background:new    ;}
	.st1{fill:#4D4D4D;}
</style>
<g class="st0">
	<path class="st1" d="M0.3,20.3C0,20-0.1,19.7,0.2,19.4l0.6-0.5c0.3-0.2,0.5-0.1,0.8,0.2c1.8,2.1,4.2,3.1,7.1,3.1
		c1.9,0,3.6-0.4,4.9-1.3c1.4-0.9,2-2.2,2-3.8c0-0.6-0.2-1.2-0.5-1.7c-0.3-0.5-0.7-0.9-1.2-1.2c-0.4-0.3-1-0.6-1.8-0.8
		c-0.7-0.3-1.3-0.4-1.8-0.5c-0.5-0.1-1.1-0.2-1.8-0.4c-2.8-0.6-4.8-1.4-6.1-2.4c-1.3-1-2-2.3-2-3.9c0-1.9,0.7-3.4,2.2-4.5
		C4.2,0.6,6.3,0,8.8,0c3,0,5.5,1,7.6,2.9c0.3,0.3,0.3,0.5,0,0.8l-0.5,0.6c-0.3,0.2-0.6,0.1-1-0.3c-0.9-0.7-1.8-1.3-2.6-1.7
		C11.4,2,10.3,1.8,9.1,1.8c-0.8,0-1.6,0-2.4,0.2C6,2.1,5.3,2.4,4.6,2.7C3.9,3,3.4,3.5,3,4.1C2.6,4.7,2.4,5.4,2.4,6.2
		c0,0.9,0.4,1.6,1.1,2.2c0.7,0.6,1.5,1.1,2.4,1.4s2,0.6,3.4,0.9c0.7,0.2,1.3,0.3,1.7,0.4c0.4,0.1,0.9,0.3,1.6,0.5
		c0.7,0.2,1.2,0.4,1.6,0.6c0.4,0.2,0.8,0.4,1.3,0.8c0.5,0.3,0.9,0.7,1.1,1c0.3,0.4,0.5,0.8,0.7,1.3c0.2,0.5,0.3,1.1,0.3,1.7
		c0,2.2-0.9,3.9-2.6,5.1c-1.7,1.2-3.8,1.8-6.3,1.8C5.2,24,2.4,22.8,0.3,20.3z"/>
	<path class="st1" d="M23,23.1V0.9c0-0.4,0.2-0.6,0.6-0.6h0.6c0.4,0,0.6,0.2,0.6,0.6v22.2c0,0.4-0.2,0.6-0.6,0.6h-0.6
		C23.2,23.7,23,23.5,23,23.1z"/>
	<path class="st1" d="M31.6,23.2V0.9c0-0.4,0.2-0.5,0.5-0.5h0.9c0.3,0,0.5,0.2,0.5,0.5v21h12.8c0.4,0,0.6,0.2,0.6,0.5v0.8
		c0,0.3-0.2,0.5-0.6,0.5H32.1C31.7,23.7,31.6,23.5,31.6,23.2z"/>
	<path class="st1" d="M67,1l-9.5,22.3c-0.1,0.3-0.3,0.4-0.5,0.4h-0.6c-0.3,0-0.4-0.1-0.5-0.4L46.3,1c-0.1-0.2-0.1-0.4,0-0.5
		c0.1-0.1,0.2-0.2,0.4-0.2h1c0.2,0,0.4,0.1,0.5,0.4l8.5,20l8.4-20.1c0.1-0.3,0.3-0.4,0.5-0.4h1c0.2,0,0.3,0.1,0.4,0.2
		C67,0.6,67,0.8,67,1z"/>
	<path class="st1" d="M71.5,23.2V0.8c0-0.3,0.2-0.5,0.5-0.5h15.6c0.4,0,0.5,0.1,0.5,0.4v0.9c0,0.3-0.2,0.5-0.5,0.5H73.3v8.4h11.5
		c0.4,0,0.6,0.2,0.6,0.5v0.8c0,0.3-0.2,0.5-0.6,0.5H73.3v9.5h14.6c0.4,0,0.5,0.1,0.5,0.4v0.9c0,0.3-0.2,0.4-0.5,0.4H72
		C71.6,23.7,71.5,23.5,71.5,23.2z"/>
	<path class="st1" d="M94.1,0.3h9.3c2.1,0,3.8,0.7,5.3,2.2c1.4,1.4,2.2,3.2,2.2,5.2c0,1.5-0.4,2.8-1.2,4c-0.8,1.2-1.9,2.1-3.2,2.7
		l4.1,8.8c0.1,0.1,0.1,0.3,0,0.4c-0.1,0.1-0.2,0.2-0.4,0.2H109c-0.2,0-0.3-0.1-0.4-0.3l-4-8.6c-0.5,0.1-0.9,0.2-1.4,0.2h-7.9v8.2
		c0,0.4-0.2,0.6-0.6,0.6h-0.7c-0.4,0-0.6-0.2-0.6-0.6V0.9C93.5,0.5,93.7,0.3,94.1,0.3z M95.4,13.2h7.5c1.7,0,3.1-0.5,4.3-1.5
		c1.2-1,1.8-2.3,1.8-4c0-1.5-0.5-2.8-1.6-3.9c-1.1-1.1-2.4-1.6-4-1.6h-8V13.2z"/>
	<path class="st1" d="M126.4,0.7l9.4,22.3c0.1,0.2,0.1,0.4,0,0.5c-0.1,0.1-0.2,0.2-0.4,0.2h-1c-0.2,0-0.4-0.1-0.5-0.4l-2.3-5.4
		h-12.3l-2.3,5.4c-0.1,0.3-0.3,0.4-0.5,0.4h-1c-0.2,0-0.3-0.1-0.4-0.2c-0.1-0.1-0.1-0.3,0-0.5l9.5-22.3c0.1-0.3,0.3-0.4,0.5-0.4h0.6
		C126.2,0.3,126.3,0.5,126.4,0.7z M125.5,3.2l-5.4,12.8h10.8L125.5,3.2z"/>
	<path class="st1" d="M141.2,23.1V0.9c0-0.4,0.2-0.6,0.5-0.6h7.6c3.3,0,6.1,1.1,8.4,3.4c2.3,2.3,3.5,5,3.5,8.3c0,3.2-1.2,6-3.5,8.3
		c-2.4,2.3-5.2,3.4-8.5,3.4h-7.5C141.4,23.7,141.2,23.5,141.2,23.1z M143.1,21.9h6.2c2.8,0,5.2-1,7.2-2.9c2-2,2.9-4.3,2.9-7
		c0-2.8-1-5.1-3-7c-2-1.9-4.4-2.8-7.2-2.8h-6.1V21.9z"/>
	<path class="st1" d="M169.1,20.5c-2.4-2.3-3.6-5.2-3.6-8.5c0-3.3,1.2-6.2,3.6-8.5c2.4-2.4,5.3-3.5,8.7-3.5c3.4,0,6.3,1.2,8.6,3.5
		c2.4,2.4,3.6,5.2,3.6,8.5c0,3.3-1.2,6.1-3.6,8.5c-2.4,2.3-5.3,3.5-8.7,3.5C174.3,24,171.5,22.8,169.1,20.5z M167.4,12
		c0,2.8,1,5.2,3,7.2c2,2,4.5,3,7.4,3c2.9,0,5.3-1,7.3-3c2-2,3-4.4,3-7.2c0-2.8-1-5.2-3-7.2c-2-2-4.5-3-7.3-3c-2.9,0-5.3,1-7.4,3
		C168.4,6.8,167.4,9.2,167.4,12z"/>
</g>
</svg>
