<?xml version="1.0" encoding="utf-8"?>
<!-- Generator: Adobe Illustrator 25.0.0, SVG Export Plug-In . SVG Version: 6.00 Build 0)  -->
<svg version="1.1" id="Layer_1" xmlns="http://www.w3.org/2000/svg" xmlns:xlink="http://www.w3.org/1999/xlink" x="0px" y="0px"
	 viewBox="0 0 190 24" style="enable-background:new 0 0 190 24;" xml:space="preserve">
<style type="text/css">
	.st0{enable-background:new    ;}
	.st1{fill:#4D4D4D;}
</style>
<g class="st0">
	<path class="st1" d="M13.9,5.5c-1.8-1.6-3.6-2.4-5.4-2.4c-1.6,0-2.8,0.4-3.6,1.1C4,4.8,3.6,5.7,3.6,6.7c0,0.5,0.1,0.9,0.4,1.3
		c0.3,0.4,0.7,0.7,1.3,1C6,9.2,6.5,9.5,7,9.6c0.5,0.2,1.2,0.4,2,0.6c2.5,0.7,4.2,1.3,5.1,1.8c1.9,1.1,2.8,2.5,2.8,4.4
		c0,2.1-0.8,3.8-2.4,5.1c-1.6,1.3-3.6,1.9-6,1.9c-1.6,0-3.1-0.3-4.5-1c-1.4-0.6-2.6-1.6-3.5-2.8c-0.2-0.2-0.2-0.4-0.2-0.5
		c0-0.2,0.1-0.3,0.3-0.5l1-0.8c0.1-0.1,0.3-0.2,0.5-0.2c0.1,0,0.4,0.2,0.7,0.5c0.8,0.8,1.8,1.5,3,2c1.2,0.5,2.2,0.8,3,0.8
		c1.4,0,2.7-0.4,3.9-1.1c1.2-0.8,1.8-1.8,1.8-3.1c0-0.4-0.1-0.8-0.2-1.1c-0.1-0.3-0.4-0.6-0.7-0.9c-0.3-0.3-0.6-0.5-0.9-0.6
		c-0.3-0.2-0.7-0.4-1.3-0.6c-0.6-0.2-1-0.3-1.4-0.4S9,12.9,8.3,12.7c-2.5-0.7-4.4-1.4-5.6-2.3C1.5,9.4,0.9,8.2,0.9,6.8
		c0-1.8,0.7-3.3,2.1-4.5c1.4-1.1,3.3-1.7,5.6-1.7c1.2,0,2.4,0.3,3.6,0.8c1.2,0.5,2.3,1.2,3.2,2.1C15.8,3.8,16,4.1,16,4.2
		c0,0.2-0.1,0.3-0.2,0.5l-0.9,0.9c-0.1,0.1-0.3,0.2-0.4,0.2C14.3,5.8,14.1,5.7,13.9,5.5z"/>
	<path class="st1" d="M26.1,1.5v20.9c0,0.4-0.2,0.7-0.7,0.7h-1.3c-0.4,0-0.7-0.2-0.7-0.7V1.5c0-0.4,0.2-0.7,0.7-0.7h1.3
		C25.9,0.9,26.1,1.1,26.1,1.5z"/>
	<path class="st1" d="M36.5,20.6h10.8c0.4,0,0.7,0.2,0.7,0.7v1.2c0,0.2-0.1,0.3-0.2,0.5c-0.1,0.1-0.3,0.2-0.5,0.2H34.6
		c-0.4,0-0.7-0.2-0.7-0.7V1.5c0-0.4,0.2-0.7,0.7-0.7h1.2c0.4,0,0.7,0.2,0.7,0.7V20.6z"/>
	<path class="st1" d="M49.3,1.5c1.1,2.9,3.5,8.8,7.1,17.5c2.1-5.1,4.5-10.9,7.1-17.6c0.2-0.4,0.5-0.6,0.8-0.6h1.3
		c0.4,0,0.7,0.2,0.7,0.5c0,0,0,0.1,0,0.2l0,0.2l-8.6,20.8c-0.2,0.4-0.4,0.6-0.8,0.6H56c-0.4,0-0.6-0.2-0.8-0.6L46.7,2.1
		c-0.1-0.2-0.2-0.5-0.2-0.8c0-0.3,0.2-0.5,0.7-0.5h1.3C48.9,0.9,49.2,1.1,49.3,1.5z"/>
	<path class="st1" d="M73.4,0.9h14.4c0.4,0,0.7,0.2,0.7,0.7v1.2c0,0.5-0.2,0.7-0.7,0.7H75.3v6.6h9.9c0.4,0,0.7,0.2,0.7,0.7V12
		c0,0.2-0.1,0.3-0.2,0.5c-0.1,0.1-0.3,0.2-0.5,0.2h-9.9v7.8h12.6c0.5,0,0.7,0.2,0.7,0.7v1.2c0,0.4-0.2,0.7-0.7,0.7H73.4
		c-0.4,0-0.7-0.2-0.7-0.6V1.6C72.7,1.1,72.9,0.9,73.4,0.9z"/>
	<path class="st1" d="M95,22.5V1.6c0-0.5,0.2-0.7,0.7-0.7h8.7c2,0,3.6,0.7,5,2.1c1.4,1.4,2.1,3.1,2.1,5c0,1.4-0.4,2.7-1.1,3.8
		c-0.8,1.2-1.7,2-3,2.6l4,8.1c0,0.2,0.1,0.2,0.1,0.3c0,0.3-0.2,0.4-0.5,0.4h-1.6c-0.3,0-0.6-0.2-0.8-0.6l-3.6-7.6
		c-0.1,0-0.8,0-1.9,0h-5.2v7.5c0,0.4-0.2,0.7-0.7,0.7h-1.3C95.2,23.1,95,22.9,95,22.5z M108.8,7.9c0-1.2-0.4-2.2-1.3-3.2
		c-0.9-0.9-1.9-1.3-3.2-1.3h-6.8v9h6.8c1.2,0,2.3-0.4,3.2-1.3C108.4,10.2,108.8,9.1,108.8,7.9z"/>
	<path class="st1" d="M120.8,18.3l-1.7,4.3c-0.2,0.4-0.5,0.6-0.8,0.6H117c-0.4,0-0.6-0.2-0.6-0.5l0.1-0.4c4.1-9.8,6.9-16.5,8.5-20.3
		l0.2-0.6c0.2-0.4,0.4-0.5,0.8-0.5h0.9c0.3,0,0.6,0.2,0.8,0.5l8.6,20.9c0.1,0.2,0.1,0.3,0.1,0.4c0,0.3-0.2,0.5-0.7,0.5h-1.3
		c-0.4,0-0.7-0.2-0.8-0.6l-1.7-4.3H120.8z M126.3,4.7l-4.4,11h8.8L126.3,4.7z"/>
	<path class="st1" d="M142.6,22.5V1.6c0-0.5,0.2-0.7,0.7-0.7h6.9c3.1,0,5.8,1.1,7.9,3.2c2.1,2.2,3.2,4.8,3.2,7.9
		c0,3.1-1.1,5.7-3.3,7.8s-4.8,3.3-7.9,3.3h-6.9C142.8,23.1,142.6,22.9,142.6,22.5z M145.2,20.6h5.2c2.4,0,4.4-0.9,6-2.6
		c1.6-1.7,2.4-3.8,2.4-6.1c0-2.5-0.8-4.5-2.5-6.1c-1.7-1.6-3.7-2.4-6.1-2.4h-5V20.6z"/>
	<path class="st1" d="M170.2,3.9c2.2-2.2,4.9-3.4,8.1-3.4c3.2,0,5.9,1.1,8.1,3.4c2.2,2.2,3.4,5,3.4,8.1c0,3.2-1.1,5.9-3.4,8.1
		s-5,3.3-8.1,3.3c-3.2,0-5.9-1.1-8.1-3.3c-2.2-2.2-3.3-4.9-3.3-8.1S168,6.2,170.2,3.9z M169.4,12c0,2.5,0.9,4.6,2.6,6.3
		s3.8,2.6,6.3,2.6c2.4,0,4.5-0.9,6.2-2.6c1.7-1.7,2.6-3.8,2.6-6.3c0-2.4-0.9-4.5-2.6-6.2c-1.7-1.7-3.8-2.6-6.2-2.6
		c-2.5,0-4.6,0.9-6.3,2.6C170.3,7.5,169.4,9.6,169.4,12z"/>
</g>
</svg>
