<?xml version="1.0" standalone="no"?>
<!DOCTYPE svg PUBLIC "-//W3C//DTD SVG 1.1//EN" "http://www.w3.org/Graphics/SVG/1.1/DTD/svg11.dtd" >
<svg xmlns="http://www.w3.org/2000/svg" xmlns:xlink="http://www.w3.org/1999/xlink" version="1.1">
<metadata>
Created by FontForge 20170731 at Sun Mar 26 11:33:10 2017
 By Aleksey,,,
Copyright (c) 2015 by Studio Kmzero. All rights reserved.
</metadata>
<defs>
<font id="CocoGothicAlternate-Light" horiz-adv-x="0" >
  <font-face 
    font-family="Coco Gothic Alternate Light"
    font-weight="300"
    font-stretch="normal"
    units-per-em="1000"
    panose-1="2 0 5 3 2 0 0 2 0 3"
    ascent="800"
    descent="-200"
    x-height="489"
    cap-height="742"
    bbox="-470 -324 1259 1101"
    underline-thickness="50"
    underline-position="-250"
    unicode-range="U+000D-FB04"
  />
<missing-glyph horiz-adv-x="313" 
d="M141 125h281q-63 -53 -141 -53q-77 0 -140 53zM397 415l-273 -274q-52 60 -52 141q0 75 47 133h278zM420 438h-280q60 54 141 54q80 0 139 -54zM490 282q0 -76 -47 -134h-279l273 275q53 -67 53 -141zM349 38q-33 -9 -68 -9q-107 0 -180 75t-73 178q0 107 75 180.5
t178 73.5q107 0 180 -76t73 -178q0 -89 -52.5 -154.5t-132.5 -89.5zM342 506q-27 9 -61 9q-99 0 -165.5 -69t-66.5 -164t67.5 -164.5t164.5 -69.5q96 0 164.5 68.5t68.5 165.5q0 82 -49 143t-123 81z" />
    <glyph glyph-name="ff" unicode="ff" horiz-adv-x="618" 
d="M486 491h89q20 0 20 -20v-13q0 -21 -20 -21h-89v-419q0 -19 -21 -19h-18q-20 0 -20 19v419h-62h-2h-185v-419q0 -19 -21 -19h-19q-19 0 -19 19v419h-62q-20 0 -20 21v13q0 20 20 20h62v95q0 75 41 117t113 42q21 0 21 -22v-17q0 -8 -5.5 -13.5t-13.5 -5.5
q-46 0 -71.5 -26.5t-25.5 -76.5v-93h184h3h62v95q0 75 41 117t114 42q20 0 20 -22v-17q0 -8 -5.5 -13.5t-13.5 -5.5q-46 0 -71.5 -26.5t-25.5 -76.5v-93z" />
    <glyph glyph-name="fi" unicode="fi" horiz-adv-x="515" 
d="M384 18v419h-219v-419q0 -19 -21 -19h-19q-19 0 -19 19v419h-62q-20 0 -20 21v13q0 20 20 20h62v95q0 75 41 117t113 42q21 0 21 -22v-17q0 -8 -5.5 -13.5t-13.5 -5.5q-46 0 -71.5 -26.5t-25.5 -76.5v-93h259q18 0 18 -19v-454q0 -18 -18 -18h-21q-19 0 -19 18zM366 632
q0 20 14 33.5t33 13.5t32.5 -13.5t13.5 -33.5q0 -19 -13.5 -32.5t-32.5 -13.5t-33 13.5t-14 32.5z" />
    <glyph glyph-name="ffi" unicode="ffi" horiz-adv-x="805" 
d="M693 18v419h-129h-2h-89v-419q0 -19 -21 -19h-18q-20 0 -20 19v419h-62h-2h-185v-419q0 -19 -21 -19h-19q-19 0 -19 19v419h-62q-20 0 -20 21v13q0 20 20 20h62v95q0 75 41 117t113 42q21 0 21 -22v-17q0 -8 -5.5 -13.5t-13.5 -5.5q-46 0 -71.5 -26.5t-25.5 -76.5v-93
h249v95q0 75 41 117t114 42q20 0 20 -22v-17q0 -8 -5.5 -13.5t-13.5 -5.5q-46 0 -71.5 -26.5t-25.5 -76.5v-93h258q14 0 18 -10q2 -6 2 -9v-14v-2v-438q0 -18 -19 -18h-20q-19 0 -19 18zM675 632q0 19 13.5 33t32.5 14t33 -13.5t14 -33.5q0 -19 -14 -32.5t-33 -13.5
t-32.5 13.5t-13.5 32.5z" />
    <glyph glyph-name=".notdef" horiz-adv-x="313" 
d="M141 125h281q-63 -53 -141 -53q-77 0 -140 53zM397 415l-273 -274q-52 60 -52 141q0 75 47 133h278zM420 438h-280q60 54 141 54q80 0 139 -54zM490 282q0 -76 -47 -134h-279l273 275q53 -67 53 -141zM349 38q-33 -9 -68 -9q-107 0 -180 75t-73 178q0 107 75 180.5
t178 73.5q107 0 180 -76t73 -178q0 -89 -52.5 -154.5t-132.5 -89.5zM342 506q-27 9 -61 9q-99 0 -165.5 -69t-66.5 -164t67.5 -164.5t164.5 -69.5q96 0 164.5 68.5t68.5 165.5q0 82 -49 143t-123 81z" />
    <glyph glyph-name=".null" 
 />
    <glyph glyph-name="nonmarkingreturn" horiz-adv-x="333" 
 />
    <glyph glyph-name="NULL" 
 />
    <glyph glyph-name="NULL" 
 />
    <glyph glyph-name="CR" unicode="&#xd;" horiz-adv-x="250" 
 />
    <glyph glyph-name="space" unicode=" " horiz-adv-x="313" 
 />
    <glyph glyph-name="exclam" unicode="!" horiz-adv-x="218" 
d="M80 214v511q0 7 5 12t12 5h26q15 0 15 -17v-510q0 -18 -14 -18h-31q-13 0 -13 17zM63 36q0 19 13.5 32.5t32.5 13.5q20 0 33.5 -13.5t13.5 -32.5q0 -20 -13.5 -33t-33.5 -13q-19 0 -32.5 13.5t-13.5 32.5z" />
    <glyph glyph-name="quotedbl" unicode="&#x22;" horiz-adv-x="416" 
d="M80 565v159q0 18 19 18h21q18 0 18 -18v-159q0 -19 -19 -19h-20q-19 0 -19 19zM210 565v159q0 18 18 18h21q18 0 18 -18v-159q0 -19 -18 -19h-21q-18 0 -18 19z" />
    <glyph glyph-name="numbersign" unicode="#" horiz-adv-x="517" 
d="M180 473l-15 -198h136l16 198h-137zM321 531l15 197q2 14 15 14h33q15 0 13 -14l-15 -197h67q13 0 13 -13l-3 -31q-2 -14 -14 -14h-67l-16 -198h67q13 0 13 -13l-3 -30q0 -6 -4.5 -10.5t-9.5 -4.5h-68l-15 -203q-1 -14 -16 -14h-32q-14 0 -13 14l16 203h-137l-15 -203
q-3 -14 -17 -14h-31q-14 0 -13 14l15 203h-63q-15 0 -15 15l3 30q1 13 17 13h63l15 198h-63q-15 0 -15 14l3 31q2 13 16 13h63l16 197q2 14 15 14h32q16 0 14 -14l-16 -197h137z" />
    <glyph glyph-name="dollar" unicode="$" horiz-adv-x="641" 
d="M59 107q-14 17 -3 28l19 18q11 11 26 -7q85 -97 220 -97q96 0 154.5 39.5t58.5 120.5q0 25 -9 45.5t-30 35.5t-36.5 24.5t-49 19t-45 12t-46.5 10.5q-128 27 -188.5 74t-60.5 126q0 85 59 135.5t164 59.5v64q0 15 14 15h24q14 0 14 -15v-63q139 -3 217 -87q12 -12 0 -26
l-17 -18q-10 -11 -30 7q-40 34 -75.5 48.5t-95.5 15.5q-53 2 -97.5 -9t-78.5 -44t-34 -85q0 -59 53.5 -90t150.5 -53q47 -11 75 -18t68.5 -24t63 -36t39.5 -51t17 -72q0 -100 -71 -157t-185 -63v-69q0 -16 -14 -16h-24q-14 0 -14 16v70q-142 9 -233 116z" />
    <glyph glyph-name="percent" unicode="%" horiz-adv-x="857" 
d="M49 573q0 80 56.5 136t136.5 56t136 -56t56 -136t-56 -136.5t-136 -56.5t-136.5 56.5t-56.5 136.5zM93 573q0 -63 43 -106t106 -43q62 0 104.5 43t42.5 106q0 62 -42.5 104.5t-104.5 42.5q-63 0 -106 -42.5t-43 -104.5zM424 183q0 80 56 136.5t136 56.5t136.5 -56.5
t56.5 -136.5t-56.5 -136t-136.5 -56t-136 56t-56 136zM468 183q0 -62 42.5 -105t105.5 -43t105 42.5t42 105.5t-42 105.5t-105 42.5t-105.5 -42.5t-42.5 -105.5zM172 21l435 704q10 17 28 17h24q23 0 8 -22l-438 -705q-10 -15 -21 -15h-29q-20 0 -7 21z" />
    <glyph glyph-name="ampersand" unicode="&#x26;" horiz-adv-x="838" 
d="M320 273q69 36 134 19l164 -44q41 -13 80 9.5t54 65.5q9 20 24 14l22 -9q9 -3 10 -9.5t-3 -16.5q-20 -64 -79 -96t-125 -14l-51 13q-9 -90 -80.5 -154t-164.5 -64q-101 0 -170.5 64.5t-69.5 163.5q0 69 35 123t95 83q-78 50 -78 143q0 77 55 127t133 50t132.5 -50
t54.5 -127q0 -22 -15 -22h-24q-18 0 -18 22q0 55 -36.5 88.5t-93.5 33.5t-94.5 -33.5t-37.5 -88.5q0 -54 35.5 -84.5t91.5 -33.5h5q22 0 22 -16v-21q0 -18 -22 -18q-77 0 -130.5 -49.5t-53.5 -125.5q0 -75 53 -124t131 -49q74 0 129.5 53t59.5 126l-55 14q-44 12 -90 -11
q-22 -13 -31 2l-11 19q-9 17 13 27z" />
    <glyph glyph-name="quotesingle" unicode="'" horiz-adv-x="264" 
d="M81 565v159q0 18 18 18h21q18 0 18 -18v-159q0 -19 -18 -19h-21q-18 0 -18 19z" />
    <glyph glyph-name="parenleft" unicode="(" horiz-adv-x="248" 
d="M57 373q0 142 39.5 268.5t102.5 224.5q10 13 22 4l22 -18q11 -9 3 -19q-55 -86 -93.5 -210.5t-38.5 -248.5q0 -137 37.5 -259t93.5 -210q9 -12 -3 -20l-22 -16q-14 -7 -22 4q-141 233 -141 500z" />
    <glyph glyph-name="parenright" unicode=")" horiz-adv-x="248" 
d="M199 373q0 -265 -142 -500q-8 -12 -21 -4l-23 16q-12 9 -3 20q57 87 94 209.5t37 259.5q0 124 -38 248.5t-93 210.5q-8 10 3 19l22 18q12 8 21 -4q143 -222 143 -493z" />
    <glyph glyph-name="asterisk" unicode="*" horiz-adv-x="491" 
d="M63 338v22q0 14 16 14l127 -3l-63 101q-8 14 5 22l19 10q12 8 21 -6l53 -98l54 99q7 13 20 5l19 -10q13 -7 5 -21l-65 -104l126 5q16 0 16 -15l-1 -22q0 -6 -4.5 -10.5t-10.5 -3.5l-120 5l68 -111q7 -12 -5 -20l-19 -11q-13 -8 -20 6l-62 119l-66 -121q-8 -14 -21 -6
l-18 11q-14 8 -6 21l69 111l-121 -4q-16 -2 -16 15z" />
    <glyph glyph-name="plus" unicode="+" horiz-adv-x="450" 
d="M235 134h-29q-15 0 -15 17v137h-133q-16 0 -16 14v30q0 15 16 15h133v132q0 15 15 15h29q6 0 10.5 -4.5t4.5 -11.5v-131h136q16 0 16 -15v-30q0 -6 -5 -10t-11 -4h-136v-137q0 -17 -15 -17z" />
    <glyph glyph-name="comma" unicode="," horiz-adv-x="264" 
d="M64 35q0 20 14 34t34 14q23 0 35.5 -16t12.5 -41q0 -67 -33 -100q-9 -11 -17 -4l-16 13q-6 5 1 16q1 3 5 9t6 11t2 10v6q-19 3 -31.5 16t-12.5 32z" />
    <glyph glyph-name="hyphen" unicode="-" horiz-adv-x="517" 
d="M99 304h320q19 0 19 -18v-21q0 -19 -19 -19h-320q-19 0 -19 19v21q0 18 19 18z" />
    <glyph glyph-name="period" unicode="." horiz-adv-x="264" 
d="M61 36q0 19 13.5 32.5t32.5 13.5t32.5 -13.5t13.5 -32.5q0 -20 -13.5 -33.5t-32.5 -13.5t-32.5 13.5t-13.5 33.5z" />
    <glyph glyph-name="slash" unicode="/" horiz-adv-x="418" 
d="M372 722l-278 -710q-5 -12 -15 -12h-29q-8 0 -12.5 5t-0.5 15l273 710q5 12 16 12h33q8 0 12 -5.5t1 -14.5z" />
    <glyph glyph-name="zero" unicode="0" horiz-adv-x="853" 
d="M44 370q0 158 111 270t269 112t270 -112t112 -270q0 -157 -112 -269t-270 -112t-269 111.5t-111 269.5zM99 365q0 -134 95.5 -227t231.5 -93q134 0 229.5 96.5t95.5 223.5q0 141 -94 235.5t-231 94.5q-135 0 -231 -97t-96 -233z" />
    <glyph glyph-name="one" unicode="1" horiz-adv-x="241" 
d="M131 742h24q13 0 13 -14v-711q0 -17 -16 -17h-26q-15 0 -15 17v660l-72 -31q-7 -4 -14 -1t-7 11v25q0 13 12 19l77 36q13 6 24 6z" />
    <glyph glyph-name="two" unicode="2" horiz-adv-x="616" 
d="M78 613q30 61 88.5 97t130.5 36q102 0 171.5 -60t69.5 -158q0 -94 -61 -152l-333 -319h399q19 0 19 -17v-24q0 -16 -19 -16h-463q-18 0 -18 18v23q0 10 9 18l345 332q70 67 70 136q0 75 -55 120t-134 45q-56 0 -102 -29t-67 -76q-7 -18 -22 -10l-24 12q-13 7 -4 24z" />
    <glyph glyph-name="three" unicode="3" horiz-adv-x="533" 
d="M85 612q15 58 66 94.5t116 36.5q78 0 133 -50t55 -127q0 -93 -78 -143q60 -29 95.5 -83t35.5 -123q0 -99 -70 -163.5t-171 -64.5q-82 0 -145.5 44.5t-85.5 118.5q-6 20 13 24l19 4q19 7 24 -13q15 -55 63 -88t112 -33q78 0 131.5 48.5t53.5 123.5q0 76 -53.5 125.5
t-131.5 49.5q-22 0 -22 14v27q0 14 22 14h5q56 3 91.5 33.5t35.5 84.5q0 55 -37.5 88.5t-94.5 33.5q-49 0 -83.5 -25t-43.5 -68q-3 -17 -21 -13l-25 6q-14 4 -9 24z" />
    <glyph glyph-name="four" unicode="4" horiz-adv-x="621" 
d="M436 136h-359q-14 0 -19.5 11.5t2.5 23.5l377 557q9 14 20 14h22q14 0 14 -15l-1 -536h59q18 0 18 -15v-22q0 -18 -18 -18h-59v-119q0 -17 -15 -17h-27q-14 0 -14 17v119zM144 192h292v426z" />
    <glyph glyph-name="five" unicode="5" horiz-adv-x="572" 
d="M63 170l21 12q14 7 23 -12q59 -125 195 -125q88 0 141.5 61.5t53.5 135.5q0 73 -57.5 138.5t-138.5 65.5q-71 0 -136 -49q-11 -8 -21.5 -22.5t-18 -23t-14.5 -8.5h-21q-18 0 -17 19l30 364q0 16 17 16h349q20 0 20 -17v-22q0 -17 -19 -17h-310l-26 -241q64 56 170 56
q107 0 176.5 -78.5t70.5 -177.5q1 -104 -72 -180t-180 -76q-85 0 -147 42.5t-94 115.5q-5 16 5 23z" />
    <glyph glyph-name="six" unicode="6" horiz-adv-x="599" 
d="M76 368l213 365q5 9 14 10h33q9 1 13.5 -5t-0.5 -15l-138 -237q34 17 102 17q100 0 173 -72t73 -172q0 -108 -72 -188t-175 -80q-109 0 -183.5 66t-81.5 172q-5 81 29 139zM102 232q6 -82 71 -136t147 -49q80 4 132 64.5t52 142.5q0 83 -63.5 141t-145.5 53t-139.5 -69.5
t-53.5 -146.5z" />
    <glyph glyph-name="seven" unicode="7" horiz-adv-x="574" 
d="M57 741h454q14 0 17.5 -11t-3.5 -22l-361 -698q-4 -10 -16 -10h-28q-10 0 -13 8t1 15l340 663h-391q-18 0 -18 17v23q0 15 18 15z" />
    <glyph glyph-name="eight" unicode="8" horiz-adv-x="554" 
d="M85 569q0 75 53 128t128 53t128 -53t53 -128q0 -46 -22.5 -86.5t-59.5 -64.5q57 -28 92 -82.5t35 -120.5q0 -94 -66.5 -160t-160.5 -66q-93 0 -159 66t-66 160q0 66 34.5 120.5t91.5 82.5q-81 56 -81 151zM94 216q0 -70 50.5 -121t120.5 -51q71 0 122 51t51 121
t-51.5 121t-121.5 51t-120.5 -51t-50.5 -121zM140 568q0 -53 36 -90t89 -37t91 37t38 90t-38 90.5t-91 37.5t-89 -37t-36 -91z" />
    <glyph glyph-name="nine" unicode="9" horiz-adv-x="598" 
d="M518 360l-205 -351q-6 -10 -14 -10h-32q-10 -1 -14 5t1 14l137 238q-32 -16 -102 -18q-100 1 -172.5 73t-72.5 172q0 108 71.5 187.5t174.5 79.5q109 0 183 -65.5t81 -171.5q5 -82 -36 -153zM498 510q-5 82 -69.5 136t-146.5 49q-80 -5 -132 -65t-52 -143
q0 -82 64 -140.5t146 -53.5t138.5 70t51.5 147z" />
    <glyph glyph-name="colon" unicode=":" horiz-adv-x="218" 
d="M60 35q0 19 13.5 33t32.5 14q20 0 33.5 -14t13.5 -33t-14 -32.5t-33 -13.5t-32.5 13.5t-13.5 32.5zM60 451q0 19 13.5 33t32.5 14q20 0 33.5 -14t13.5 -33t-14 -32.5t-33 -13.5t-32.5 13.5t-13.5 32.5z" />
    <glyph glyph-name="semicolon" unicode=";" horiz-adv-x="220" 
d="M58 451q0 19 14 33t33 14t32.5 -13.5t13.5 -33.5q0 -19 -13.5 -32.5t-32.5 -13.5t-33 13.5t-14 32.5zM58 35q0 20 14 34t34 14q23 0 35.5 -16t12.5 -41q0 -67 -33 -100q-9 -11 -17 -4l-16 13q-6 5 1 16q1 3 5 9t6 11t2 10v6q-19 3 -31.5 16t-12.5 32z" />
    <glyph glyph-name="less" unicode="&#x3c;" horiz-adv-x="419" 
d="M53 276q0 3 5 8l226 227q12 12 22 2l26 -22q11 -9 -3 -21l-192 -194l192 -193q13 -12 3 -22l-26 -22q-10 -9 -22 3l-226 226q-5 5 -5 8z" />
    <glyph glyph-name="equal" unicode="=" horiz-adv-x="517" 
d="M413 193h-324q-16 0 -16 16v30q0 17 16 17h324q17 0 17 -16v-30q0 -17 -17 -17zM413 338h-324q-16 0 -16 15v31q0 16 16 16h324q17 0 17 -15v-31q0 -16 -17 -16z" />
    <glyph glyph-name="greater" unicode="&#x3e;" horiz-adv-x="419" 
d="M358 276q0 -3 -5 -8l-226 -226q-12 -12 -22 -3l-26 22q-10 10 3 22l192 193l-192 194q-14 12 -3 21l26 22q10 10 22 -2l226 -227q5 -5 5 -8z" />
    <glyph glyph-name="question" unicode="?" horiz-adv-x="574" 
d="M296 258v-90q0 -18 -17 -18h-31q-14 0 -14 18v105q0 66 124 149q52 33 77.5 69t25.5 93q0 68 -55 109t-128 41q-78 0 -132 -52.5t-54 -127.5q0 -15 -14 -15h-32q-12 0 -12 15q0 102 71 170t174 68q100 0 169 -62.5t69 -145.5q0 -71 -26 -114t-86 -81q-31 -19 -51 -34
t-39 -42t-19 -55zM218 36q0 19 13.5 32.5t32.5 13.5t32.5 -13.5t13.5 -32.5q0 -20 -13.5 -33.5t-32.5 -13.5t-32.5 13.5t-13.5 33.5z" />
    <glyph glyph-name="at" unicode="@" horiz-adv-x="948" 
d="M696 462v-300q0 -37 13.5 -54.5t45.5 -17.5q44 0 73.5 49t29.5 142q0 151 -98.5 257t-264.5 106q-98 0 -185 -52t-141.5 -145.5t-54.5 -205.5q0 -111 60 -203.5t151.5 -142t189.5 -49.5q123 0 195 63q14 11 23 2l15 -18q11 -10 0 -21q-92 -82 -229 -82q-123 0 -229 58.5
t-170 163t-64 229.5q0 188 129 323.5t310 135.5q186 0 301.5 -117t115.5 -305q0 -16 -2 -37.5t-11.5 -59.5t-26 -67.5t-49 -52t-76.5 -22.5q-39 0 -68.5 22t-29.5 60v6q-26 -51 -71.5 -80.5t-102.5 -29.5q-90 0 -151.5 66t-61.5 159t62.5 161t150.5 68q57 0 103 -30.5
t72 -82.5v104q2 14 14 14h17q15 0 15 -14zM634 241q0 73 -46 123.5t-111 50.5q-66 0 -112 -50t-46 -124q0 -72 47 -119.5t111 -47.5q69 0 113 47t44 120z" />
    <glyph glyph-name="A" unicode="A" horiz-adv-x="716" 
d="M384 729l292 -708q5 -10 0.5 -16t-13.5 -6h-30q-10 0 -15 13l-71 173h-383l-71 -172q-5 -14 -15 -14h-31q-8 0 -12 6t0 16l296 708q5 13 17 13h19q12 0 17 -13zM356 649l-168 -407h335z" />
    <glyph glyph-name="B" unicode="B" horiz-adv-x="678" 
d="M97 742h294q82 0 139 -54.5t57 -135.5q0 -49 -23.5 -90.5t-62.5 -67.5q54 -22 89 -75t35 -115q0 -82 -57 -142.5t-139 -61.5h-333q-15 0 -15 14v709q0 19 16 19zM567 204q0 59 -42.5 105.5t-98.5 46.5h-288v-299h291q57 0 97.5 43.5t40.5 103.5zM529 552q0 58 -39.5 95.5
t-99.5 37.5h-252v-272h252q59 0 99 40t40 99z" />
    <glyph glyph-name="C" unicode="C" horiz-adv-x="705" 
d="M625 117q16 12 25 -1l15 -23q7 -12 -6 -22q-98 -82 -232 -82q-158 0 -270.5 112t-112.5 271t112 269.5t271 110.5q131 0 234 -82q13 -10 7 -23l-17 -22q-2 -4 -8 -5t-16 4q-92 72 -198 72q-134 0 -230 -95.5t-96 -228.5q0 -134 95.5 -230.5t228.5 -96.5q107 0 198 72z
" />
    <glyph glyph-name="D" unicode="D" horiz-adv-x="745" 
d="M81 17v706q0 19 16 19h236q154 0 262 -108.5t108 -263.5q0 -154 -109.5 -262t-264.5 -108h-232q-16 0 -16 17zM138 56h194q131 0 222.5 93.5t91.5 223.5q0 133 -93 222.5t-224 89.5h-191v-629z" />
    <glyph glyph-name="E" unicode="E" horiz-adv-x="642" 
d="M81 16v710q0 16 16 16h486q17 0 17 -14v-27q0 -16 -17 -16h-445v-268h357q19 0 19 -16v-26q0 -16 -19 -16h-357v-302h452q17 0 17 -13v-30q0 -14 -17 -14h-493q-16 0 -16 16z" />
    <glyph glyph-name="F" unicode="F" horiz-adv-x="627" 
d="M81 16v710q0 16 15 16h485q15 0 15 -16v-24q0 -17 -15 -17h-444v-301h356q15 0 15 -16v-27q0 -14 -15 -14h-356v-311q0 -16 -16 -16h-25q-15 0 -15 16z" />
    <glyph glyph-name="G" unicode="G" horiz-adv-x="726" 
d="M426 48q50 0 101.5 17.5t83.5 43.5v202q0 17 17 17h26q16 0 16 -17v-219q0 -13 -8 -18q-107 -83 -235 -83q-162 -1 -272.5 110t-110.5 270t111.5 269.5t270.5 110.5q129 0 233 -83q15 -12 5 -22l-16 -22q-11 -11 -24 -2q-95 71 -197 71q-135 0 -230 -94t-95 -228
q0 -133 95.5 -228.5t228.5 -94.5z" />
    <glyph glyph-name="H" unicode="H" horiz-adv-x="773" 
d="M626 17v334h-488v-334q0 -17 -15 -17h-26q-16 0 -16 17v707q0 18 16 18h26q15 0 15 -17v-317h488v316q0 18 16 18h26q16 0 16 -17v-708q0 -17 -17 -17h-25q-16 0 -16 17z" />
    <glyph glyph-name="I" unicode="I" horiz-adv-x="218" 
d="M80 18v706q0 18 19 18h20q19 0 19 -18v-706q0 -18 -19 -18h-20q-19 0 -19 18z" />
    <glyph glyph-name="J" unicode="J" horiz-adv-x="400" 
d="M256 166v559q0 18 15 18h26q16 0 16 -19v-491q0 -53 -1 -79q-3 -70 -49 -116.5t-118 -46.5q-76 0 -124 48q-19 19 -9 29l21 21q10 10 24 -4q40 -37 84 -37q53 0 84 35.5t31 82.5z" />
    <glyph glyph-name="K" unicode="K" horiz-adv-x="734" 
d="M612 719l-269 -285l348 -412q6 -8 2.5 -15t-12.5 -7h-41q-9 0 -20 12l-315 381l-164 -174v-202q0 -17 -15 -17h-27q-16 0 -16 17v708q0 17 16 17h26q16 0 16 -17v-421l402 427q10 11 20 11h40q9 0 12.5 -8t-3.5 -15z" />
    <glyph glyph-name="L" unicode="L" horiz-adv-x="574" 
d="M81 16v709q0 17 15 17h27q15 0 15 -17v-668h397q18 0 18 -15v-26q0 -16 -18 -16h-439q-15 0 -15 16z" />
    <glyph glyph-name="M" unicode="M" horiz-adv-x="883" 
d="M420 65l-253 571l-55 -620q-1 -16 -17 -16h-31q-13 0 -11 18l68 709q2 15 18 15h34q8 0 12 -10l264 -590l260 588q5 12 14 12h37q16 0 17 -15l67 -710q2 -17 -14 -17h-27q-16 0 -17 15l-56 619l-253 -569q-5 -10 -14 -10h-28q-10 0 -15 10z" />
    <glyph glyph-name="N" unicode="N" horiz-adv-x="771" 
d="M643 103v623q0 17 17 17h24q17 0 17 -16v-713q0 -14 -16 -14h-26q-10 0 -18 10l-503 636v-628q0 -18 -18 -18h-21q-18 0 -18 18v706q0 18 16 18h32q6 0 9 -5z" />
    <glyph glyph-name="O" unicode="O" horiz-adv-x="853" 
d="M44 370q0 158 111.5 270t269.5 112q157 0 268.5 -112t111.5 -270q0 -157 -111.5 -268.5t-269.5 -111.5t-269 111t-111 269zM102 371q0 -134 94.5 -228t228.5 -94q133 0 227.5 94.5t94.5 227.5t-94.5 227.5t-227.5 94.5q-134 0 -228.5 -94.5t-94.5 -227.5z" />
    <glyph glyph-name="P" unicode="P" horiz-adv-x="606" 
d="M81 17v705q0 20 18 20h242q95 0 163 -67.5t68 -163.5q0 -95 -67.5 -163t-162.5 -68h-204v-263q0 -17 -15 -17h-26q-10 0 -13 3.5t-3 13.5zM515 511q0 73 -51 124.5t-123 51.5h-203v-352h203q72 0 123 51.5t51 124.5z" />
    <glyph glyph-name="Q" unicode="Q" horiz-adv-x="853" 
d="M44 370q0 158 111.5 270t268.5 112q158 0 269.5 -112t111.5 -270q0 -150 -102 -258.5t-250 -119.5v-116q0 -19 -19 -19h-20q-18 0 -18 19v116q-149 11 -250.5 119.5t-101.5 258.5zM102 371q0 -133 94 -227.5t228 -94.5t228 94.5t94 227.5t-94.5 227.5t-227.5 94.5
t-227.5 -94.5t-94.5 -227.5z" />
    <glyph glyph-name="R" unicode="R" horiz-adv-x="671" 
d="M97 742h288q96 0 163.5 -68.5t67.5 -164.5q0 -70 -37.5 -127.5t-99.5 -84.5l126 -278q4 -7 1 -13t-12 -6h-35q-9 0 -13 9l-123 273q-22 -5 -43 -5h-244v-259q0 -18 -18 -18h-21q-18 0 -18 18v707q0 17 18 17zM136 334h232q79 0 135 48t56 127q0 73 -51 124.5t-125 51.5
h-247v-351z" />
    <glyph glyph-name="S" unicode="S" horiz-adv-x="641" 
d="M59 107q-14 17 -3 28l20 17q12 9 26 -7q86 -100 219 -100q90 0 153 42t63 122q0 30 -16 54t-36.5 38.5t-55 26.5t-56 17t-55.5 12q-129 29 -190.5 75t-61.5 124q0 90 69.5 142.5t190.5 52.5q141 0 235 -91q13 -13 0 -26l-17 -19q-12 -8 -30 8q-41 35 -81.5 52.5
t-99.5 18.5q-38 1 -73 -5.5t-66.5 -21.5t-50 -44t-18.5 -69q0 -41 33 -71t74.5 -44t104.5 -28q34 -8 52.5 -12.5t50 -15t50 -19.5t41 -24.5t35 -33t21 -42.5t8.5 -54q0 -105 -79.5 -162.5t-194.5 -57.5q-163 0 -262 117z" />
    <glyph glyph-name="T" unicode="T" horiz-adv-x="611" 
d="M39 742h523q20 0 20 -18v-22q0 -18 -20 -18h-232v-666q0 -18 -18 -18h-21q-18 0 -18 18v666h-234q-18 0 -18 20v20q0 18 18 18z" />
    <glyph glyph-name="U" unicode="U" horiz-adv-x="752" 
d="M128 724v-427q0 -107 70 -180t176 -73q109 0 178 73t69 180v427q0 18 19 18h19q20 0 20 -18v-434q0 -130 -88.5 -216t-216.5 -86q-126 0 -215 89t-89 215v432q0 18 17 18h22q19 0 19 -18z" />
    <glyph glyph-name="V" unicode="V" horiz-adv-x="673" 
d="M660 720l-295 -707q-5 -13 -17 -13h-19q-12 0 -17 13l-294 707q-4 10 0.5 16t12.5 6h31q9 0 15 -14l263 -636l261 637q5 13 16 13h30q8 0 12.5 -6t0.5 -16z" />
    <glyph glyph-name="W" unicode="W" horiz-adv-x="1023" 
d="M666 13l-150 357l-149 -357q-5 -13 -16 -13h-21q-12 0 -17 13l-294 709q-4 9 0.5 15t12.5 6h31q10 0 15 -13l266 -641l261 641q6 13 16 13h31q7 0 11 -6t0 -15l-116 -280l149 -355l263 643q5 13 15 13h29q8 0 12.5 -6t1.5 -15l-296 -709q-5 -13 -17 -13h-21q-11 0 -17 13
z" />
    <glyph glyph-name="X" unicode="X" horiz-adv-x="597" 
d="M570 720l-238 -350l235 -348q6 -10 1.5 -16t-12.5 -6h-31q-11 0 -17 10l-210 310l-209 -310q-6 -10 -16 -10h-32q-8 0 -12 6t1 17l235 346l-237 351q-5 10 -1.5 16t11.5 6h33q9 0 16 -10l212 -313l212 313q6 10 16 10h32q7 0 11.5 -6t-0.5 -16z" />
    <glyph glyph-name="Y" unicode="Y" horiz-adv-x="553" 
d="M252 328l-242 394q-5 9 -1 14.5t12 5.5h34q9 0 16 -10l208 -348l212 347q6 11 15 11h31q8 0 11.5 -4t-1.5 -14l-238 -396v-310q0 -18 -14 -18h-30q-13 0 -13 18v310z" />
    <glyph glyph-name="Z" unicode="Z" horiz-adv-x="639" 
d="M68 742h521q15 0 15 -15v-25q0 -4 -4 -9l-488 -636h472q17 0 17 -14v-28q0 -15 -17 -15h-537q-15 0 -15 15v24q0 7 4 11l490 634h-458q-18 0 -18 15v28q0 15 18 15z" />
    <glyph glyph-name="bracketleft" unicode="[" horiz-adv-x="248" 
d="M69 -112v960q0 16 15 16h136q15 0 15 -15v-29q0 -15 -15 -15h-94v-876h94q15 0 15 -15v-29q0 -14 -15 -14h-136q-15 0 -15 17z" />
    <glyph glyph-name="backslash" unicode="\" horiz-adv-x="465" 
d="M319 12l-277 710q-4 9 0 14.5t11 5.5h33q10 0 15 -12l273 -710q4 -10 -0.5 -15t-12.5 -5h-27q-10 0 -15 12z" />
    <glyph glyph-name="bracketright" unicode="]" horiz-adv-x="248" 
d="M166 848v-960q0 -17 -15 -17h-136q-15 0 -15 14v29q0 15 15 15h94v876h-94q-15 0 -15 15v29q0 15 15 15h136q15 0 15 -16z" />
    <glyph glyph-name="asciicircum" unicode="^" horiz-adv-x="488" 
d="M259 819l144 -147q17 -15 5 -27l-17 -16q-11 -11 -29 6l-119 122l-119 -121q-18 -18 -30 -5l-14 12q-13 14 4 30l143 146q17 16 32 0z" />
    <glyph glyph-name="underscore" unicode="_" horiz-adv-x="602" 
d="M65 -53v32q0 15 16 15h441q15 0 15 -15v-32q0 -14 -15 -14h-441q-16 0 -16 14z" />
    <glyph glyph-name="grave" unicode="`" horiz-adv-x="258" 
d="M123 601l-51 119q-4 10 -0.5 16t11.5 6h25q10 0 17 -13l52 -121q9 -20 -8 -20h-28q-10 0 -18 13z" />
    <glyph glyph-name="a" unicode="a" horiz-adv-x="562" 
d="M102 398l-13 13q-11 12 0 24q71 73 179 73q82 0 141 -55.5t59 -148.5v-287q0 -17 -15 -17h-22q-17 0 -17 19l-1 75q-14 -25 -25 -39.5t-31 -33t-49 -27.5t-67 -9q-86 0 -133 45.5t-47 114.5q0 60 46.5 101.5t130.5 41.5h176q0 70 -42 117t-104 47q-81 0 -140 -50
q-19 -15 -26 -4zM416 238h-164q-67 0 -101 -25t-34 -70q0 -42 31 -73t96 -31q69 0 120.5 52.5t51.5 146.5z" />
    <glyph glyph-name="b" unicode="b" horiz-adv-x="593" 
d="M81 20v704q0 18 18 18h21q18 0 18 -18v-340q25 52 71.5 84t111.5 32q98 0 166.5 -74.5t68.5 -181.5t-68.5 -181t-166.5 -74q-127 0 -183 94v-63q0 -20 -19 -20h-20q-18 0 -18 20zM135 244q0 -82 54 -141t128 -59t127.5 59t53.5 141t-53.5 141t-127.5 59t-128 -59
t-54 -141z" />
    <glyph glyph-name="c" unicode="c" horiz-adv-x="511" 
d="M437 386q-68 58 -141 58q-84 0 -143.5 -56t-59.5 -142q0 -89 59 -144.5t144 -56.5q75 0 142 59q9 7 17 -1l17 -25q7 -7 -2 -16q-35 -34 -83.5 -53.5t-93.5 -18.5q-102 2 -178 75.5t-76 180.5q0 106 75 179.5t183 73.5q87 0 174 -72q11 -9 3 -19l-20 -22q-5 -8 -17 0z" />
    <glyph glyph-name="d" unicode="d" horiz-adv-x="579" 
d="M513 722v-701q0 -21 -18 -21h-21q-19 0 -19 21v62q-53 -94 -182 -94q-98 0 -166.5 74t-68.5 181t68.5 181.5t166.5 74.5q65 0 111.5 -32t70.5 -84v338q0 20 19 20h21q18 0 18 -20zM459 244q0 82 -54 141t-128 59t-127.5 -59t-53.5 -141t53.5 -141t127.5 -59t128 59
t54 141z" />
    <glyph glyph-name="e" unicode="e" horiz-adv-x="532" 
d="M284 -11q-100 0 -170 75t-70 180q0 106 69.5 181t166.5 75q93 0 161 -72.5t68 -174.5q0 -30 -39 -30h-368q4 -75 56.5 -126t124.5 -53h2q84 0 144 62q15 15 26 2l12 -17q7 -8 6 -14.5t-13 -16.5q-81 -71 -176 -71zM278 443q-65 0 -114 -46.5t-60 -118.5h348
q-9 70 -59 117.5t-115 47.5z" />
    <glyph glyph-name="f" unicode="f" horiz-adv-x="324" 
d="M172 491h89q19 0 19 -20v-13q0 -21 -19 -21h-89v-418q0 -19 -21 -19h-19q-18 0 -18 19v418h-63q-20 0 -20 21v13q0 20 20 20h63v95q0 75 40.5 117t112.5 42q21 0 21 -22v-17q0 -8 -5.5 -13.5t-13.5 -5.5q-46 0 -71.5 -26.5t-25.5 -76.5v-93z" />
    <glyph glyph-name="g" unicode="g" horiz-adv-x="550" 
d="M344 491h140q20 0 20 -20v-13q0 -21 -20 -21h-77q58 -49 58 -124q0 -80 -56 -137.5t-137 -57.5q-34 0 -64 12q-58 -4 -58 -42q0 -19 18 -30.5t42 -11.5h191q46 0 82.5 -30t36.5 -77q0 -70 -70.5 -109t-179.5 -39q-58 0 -119 20t-61 42q0 7 3 10q3 7 11 16.5t13 9.5
q7 0 11 -3q70 -39 151 -39q76 0 127.5 25t51.5 64q0 22 -18.5 39.5t-43.5 17.5h-1h-202q-44 2 -72.5 28t-28.5 66q0 56 59 78q-32 24 -52 64.5t-20 83.5q0 80 56 136t137 56q36 0 72 -14zM133 313q0 -58 40.5 -100t98.5 -42t97.5 42t39.5 100q0 57 -40.5 97.5t-96.5 40.5
q-58 0 -98.5 -40.5t-40.5 -97.5z" />
    <glyph glyph-name="h" unicode="h" horiz-adv-x="566" 
d="M438 18v277q0 61 -39 104t-100 43q-62 0 -111.5 -42.5t-49.5 -101.5v-280q0 -18 -18 -18h-21q-18 0 -18 18v705q0 19 16 19h24q17 0 17 -19v-306q25 37 69.5 60t93.5 23q88 0 141 -62t53 -154v-266q0 -18 -17 -18h-23q-17 0 -17 18z" />
    <glyph glyph-name="i" unicode="i" horiz-adv-x="217" 
d="M80 18v453q0 18 19 18h20q19 0 19 -18v-453q0 -18 -19 -18h-20q-19 0 -19 18zM62 632q0 19 13.5 33t32.5 14q20 0 33.5 -13.5t13.5 -33.5q0 -19 -14 -32.5t-33 -13.5t-32.5 13.5t-13.5 32.5z" />
    <glyph glyph-name="j" unicode="j" horiz-adv-x="213" 
d="M61 -22v491q0 20 18 20h22q18 0 18 -20v-492q0 -64 -44 -109.5t-107 -45.5q-23 0 -23 15v24q0 17 21 17h1q41 1 67.5 30t26.5 70zM43 632q0 20 13.5 33.5t33.5 13.5q19 0 32.5 -13.5t13.5 -33.5q0 -19 -13.5 -32.5t-32.5 -13.5t-33 13.5t-14 32.5z" />
    <glyph glyph-name="k" unicode="k" horiz-adv-x="523" 
d="M138 269l217 211q9 9 23 9h38q10 0 12 -7.5t-5 -13.5l-161 -155l246 -289q8 -10 4.5 -17t-13.5 -7h-37q-10 0 -22 14l-219 258l-83 -80v-174q0 -18 -19 -18h-20q-18 0 -18 18v705q0 19 16 19h25q16 0 16 -19v-454z" />
    <glyph glyph-name="l" unicode="l" horiz-adv-x="217" 
d="M80 18v706q0 18 19 18h21q18 0 18 -18l-1 -706q0 -18 -18 -18h-21q-18 0 -18 18z" />
    <glyph glyph-name="m" unicode="m" horiz-adv-x="844" 
d="M138 308v-290q0 -18 -18 -18h-20q-19 0 -19 18v455q0 16 15 16h28q14 0 14 -15l1 -53q52 75 135 75q55 0 98 -28.5t64 -74.5q49 104 157 104q86 0 133.5 -58t47.5 -131v-288q0 -20 -20 -20h-18q-20 0 -20 19v290q0 55 -35.5 93t-89.5 38q-63 0 -99 -45.5t-36 -110.5v-264
q0 -20 -19 -20h-20q-19 0 -19 19v292q0 54 -37.5 91.5t-90.5 37.5q-55 0 -93.5 -38.5t-38.5 -93.5z" />
    <glyph glyph-name="n" unicode="n" horiz-adv-x="566" 
d="M138 299v-281q0 -18 -15 -18h-26q-16 0 -16 18v458q0 13 15 13h28q13 0 13 -14l2 -62q26 38 68.5 62.5t90.5 24.5q87 0 144.5 -61t57.5 -155v-264q0 -20 -16 -20h-26q-10 0 -13 4t-3 15v276q0 61 -44 104.5t-106 43.5q-61 0 -107.5 -42t-46.5 -102z" />
    <glyph glyph-name="o" unicode="o" horiz-adv-x="583" 
d="M44 244q0 107 71 181.5t176 74.5q106 0 177 -74.5t71 -181.5t-71 -181.5t-177 -74.5q-105 0 -176 74.5t-71 181.5zM101 244q0 -83 55 -141.5t136 -58.5t136 58.5t55 141.5t-55 141.5t-136 58.5t-136 -58.5t-55 -141.5z" />
    <glyph glyph-name="p" unicode="p" horiz-adv-x="591" 
d="M81 -177v651q0 15 17 15h24q15 0 15 -14l1 -65q56 94 183 94q98 0 166.5 -74t68.5 -181t-68.5 -181.5t-166.5 -74.5q-65 0 -111.5 32t-71.5 84v-286q0 -16 -14 -16h-31q-12 0 -12 16zM135 249q0 -82 54 -141t128 -59t127.5 59t53.5 141t-53.5 141t-127.5 59t-128 -59
t-54 -141z" />
    <glyph glyph-name="q" unicode="q" horiz-adv-x="585" 
d="M519 474v-651q0 -16 -12 -16h-31q-14 0 -14 16v286q-25 -52 -71.5 -84t-111.5 -32q-98 0 -166.5 74.5t-68.5 181.5t68.5 181t166.5 74q127 0 183 -94l1 65q0 14 15 14h24q17 0 17 -15zM465 249q0 82 -54 141t-128 59t-127.5 -59t-53.5 -141t53.5 -141t127.5 -59t128 59
t54 141z" />
    <glyph glyph-name="r" unicode="r" horiz-adv-x="381" 
d="M81 17v449q0 23 16 23h25q13 0 15 -19l1 -55q14 37 49 59.5t82 22.5q55 0 94 -28q18 -15 10 -28l-15 -22q-9 -12 -21 -3q-38 24 -72 24q-54 0 -90.5 -46t-36.5 -106v-270q0 -18 -18 -18h-21q-18 0 -18 17z" />
    <glyph glyph-name="s" unicode="s" horiz-adv-x="425" 
d="M312 389q-36 58 -103 58q-42 0 -69.5 -23t-27.5 -59q0 -57 94 -80q173 -44 173 -154q0 -66 -50.5 -104t-122.5 -38q-58 0 -103 27t-63 75q-5 18 11 24l19 9q16 6 23 -10l3 -5q15 -30 47.5 -47.5t62.5 -17.5q42 0 79 22.5t37 63.5q0 68 -123 97q-62 15 -102.5 50.5
t-40.5 87.5q0 61 42 98.5t111 37.5q107 0 157 -88q9 -16 -6 -25l-18 -11q-13 -9 -23 1q-4 6 -7 11z" />
    <glyph glyph-name="t" unicode="t" horiz-adv-x="328" 
d="M233 51h19q21 0 21 -15v-26q0 -15 -24 -15h-15q-57 0 -88.5 29t-31.5 105v307h-69q-19 0 -19 18v18q0 18 19 18h69v148q0 15 17 17l25 4q9 1 12.5 -5t3.5 -16v-148h87q20 0 20 -19v-16q0 -19 -20 -19h-87v-293q0 -51 14 -70t47 -22z" />
    <glyph glyph-name="u" unicode="u" horiz-adv-x="568" 
d="M60 194v279q0 16 15 16h25q18 0 18 -20v-277q0 -61 45 -103.5t107 -42.5q61 0 106 43t45 104v278q0 18 18 18h21q19 0 19 -18v-453q0 -18 -19 -18h-16q-17 0 -19 18l-4 58q-60 -88 -156 -88q-85 0 -145 60.5t-60 145.5z" />
    <glyph glyph-name="v" unicode="v" horiz-adv-x="491" 
d="M246 93l162 389q4 7 14 7h32q20 0 10 -22l-190 -453q-6 -14 -20 -14h-15q-15 0 -21 14l-190 453q-9 22 11 22h32q10 0 13 -7z" />
    <glyph glyph-name="w" unicode="w" horiz-adv-x="773" 
d="M520 93l162 389q3 7 13 7h32q19 0 13 -17l-192 -458q-6 -14 -18 -14h-20q-12 0 -18 14l-108 257l-107 -257q-6 -14 -18 -14h-19q-13 0 -19 14l-190 453q-8 22 11 22h32q9 0 14 -9l161 -387l162 389q4 7 14 7h34q17 0 10 -17l-54 -127z" />
    <glyph glyph-name="x" unicode="x" horiz-adv-x="422" 
d="M211 213l-133 -198q-9 -15 -26 -15h-29q-8 0 -9.5 6.5t1.5 9.5l164 243l-140 210q-5 7 -3 13.5t11 6.5h25q16 0 23 -12l116 -170l118 173q6 9 15 9h37q15 0 10 -10l-148 -220l164 -245q3 -2 1 -8t-10 -6h-33q-10 0 -20 14z" />
    <glyph glyph-name="y" unicode="y" horiz-adv-x="501" 
d="M466 471l-274 -650q-6 -14 -19 -14h-29q-21 0 -12 20l79 187l-190 456q-3 7 0 13t12 6h27q13 0 18 -9l167 -398l160 393q5 14 16 14h34q19 0 11 -18z" />
    <glyph glyph-name="z" unicode="z" horiz-adv-x="449" 
d="M409 0h-370q-24 0 -24 16v23q0 10 4 15l325 378h-314q-13 0 -13 12v34q0 11 10 11h378q17 0 17 -16v-24q0 -12 -7 -19l-319 -373h314q13 0 13 -13v-31q0 -13 -14 -13z" />
    <glyph glyph-name="braceleft" unicode="{" horiz-adv-x="300" 
d="M279 863q22 0 22 -17v-21q0 -17 -22 -17q-42 0 -72.5 -36t-30.5 -81v-250q0 -45 -44 -76q44 -28 44 -74v-254q0 -47 30 -83t73 -36q22 0 22 -17v-20q0 -17 -22 -17q-67 0 -113.5 51t-46.5 122v232q0 23 -22 45t-45 22h-11q-22 0 -22 17v24q0 17 22 17h9q29 0 49 20.5
t20 49.5v227q0 70 46.5 121t113.5 51z" />
    <glyph glyph-name="bar" unicode="|" horiz-adv-x="251" 
d="M81 -205v962q0 22 22 22h12q9 0 16 -6.5t7 -15.5v-962q0 -23 -23 -23h-12q-22 0 -22 23z" />
    <glyph glyph-name="braceright" unicode="}" horiz-adv-x="300" 
d="M8 863q67 0 114 -51t47 -121v-227q0 -29 20 -49.5t49 -20.5h9q22 0 22 -17v-24q0 -17 -22 -17h-11q-23 0 -45 -22t-22 -45v-232q0 -71 -46.5 -122t-114.5 -51q-22 0 -22 17v20q0 17 22 17q43 0 73 36t30 83v254q0 45 44 74q-21 15 -32.5 36.5t-11.5 39.5v250
q0 46 -30 81.5t-73 35.5q-22 0 -22 17v21q0 17 22 17z" />
    <glyph glyph-name="asciitilde" unicode="~" horiz-adv-x="503" 
d="M120 237q-16 -19 -35 -2l-9 10q-15 12 1 31q52 63 110 63q29 0 79 -29.5t73 -29.5q27 0 60 40q20 23 36 8l12 -13q14 -12 0 -30q-47 -67 -113 -67q-29 0 -76.5 30t-70.5 30q-16 0 -28.5 -6.5t-18.5 -12.5t-20 -22z" />
    <glyph glyph-name="exclamdown" unicode="&#xa1;" horiz-adv-x="218" 
d="M80 -239v511q0 17 13 17h31q13 0 13 -18v-510q0 -17 -15 -17h-26q-16 0 -16 17zM63 450q0 20 13.5 33t32.5 13t32.5 -13t13.5 -33q0 -19 -13.5 -32.5t-32.5 -13.5t-32.5 13.5t-13.5 32.5z" />
    <glyph glyph-name="cent" unicode="&#xa2;" horiz-adv-x="496" 
d="M307 472h-57v92q0 22 22 22h12q9 0 16 -6.5t7 -15.5v-92zM250 7h57v-89q0 -23 -23 -23h-12q-22 0 -22 23v89zM437 386q-68 58 -141 58q-84 0 -143.5 -56t-59.5 -142q0 -89 59 -144.5t144 -56.5q75 0 142 59q9 7 17 -1l17 -25q7 -7 -2 -16q-35 -34 -83.5 -53.5
t-93.5 -18.5q-102 2 -178 75.5t-76 180.5q0 106 75 179.5t183 73.5q87 0 174 -72q11 -9 3 -19l-20 -22q-5 -8 -17 0z" />
    <glyph glyph-name="sterling" unicode="&#xa3;" horiz-adv-x="600" 
d="M147 498v-123h162q16 0 16 -15v-24q0 -13 -16 -13h-162v-268h395q18 0 18 -15v-24q0 -16 -18 -16h-437q-16 0 -16 16v307h-28q-16 0 -16 14v23q0 15 16 15h28v129q0 100 81.5 173t183.5 73q42 0 88.5 -16t78.5 -39q21 -16 14 -27l-14 -23q-9 -13 -24 0q-60 49 -142 49
q-83 0 -145.5 -56.5t-62.5 -139.5z" />
    <glyph glyph-name="currency" unicode="&#xa4;" horiz-adv-x="539" 
d="M68 274q0 60 35 109l-36 37q-10 10 -1 21l21 18q9 10 21 0l34 -36q50 37 110 37q59 0 108 -33l32 32q12 10 22 0l20 -18q9 -11 -1 -21l-32 -33q39 -48 39 -113q0 -61 -38 -112l29 -28q11 -12 1 -22l-20 -19q-8 -9 -22 1l-29 29q-48 -34 -109 -34t-111 37l-31 -32
q-13 -10 -22 -1l-20 19q-10 10 2 22l32 33q-34 46 -34 107zM118 274q0 -55 39.5 -95t94.5 -40q56 0 96.5 40t40.5 95q0 56 -40.5 96.5t-96.5 40.5q-55 0 -94.5 -40.5t-39.5 -96.5z" />
    <glyph glyph-name="yen" unicode="&#xa5;" horiz-adv-x="563" 
d="M104 307v24q0 15 16 15h121l-220 375q-5 9 -2 15.5t10 6.5h41q9 0 16 -11l196 -345l209 345q7 11 15 11h43q6 0 9 -6.5t-2 -15.5l-234 -375h131q14 0 14 -16v-24q0 -6 -4.5 -10.5t-10.5 -4.5h-138v-69h139q14 0 14 -15v-25q0 -14 -15 -14h-138v-150q0 -18 -16 -18h-33
q-15 0 -15 18v150h-130q-16 0 -16 15v24q0 15 16 15h130v69h-130q-16 0 -16 16z" />
    <glyph glyph-name="brokenbar" unicode="&#xa6;" horiz-adv-x="248" 
d="M81 358v384q0 18 18 18h21q19 0 19 -18v-384q0 -18 -19 -18h-21q-18 0 -18 18zM81 -194v386q0 19 18 19h21q8 0 13.5 -5.5t5.5 -13.5v-386q0 -18 -19 -18h-21q-18 0 -18 18z" />
    <glyph glyph-name="section" unicode="&#xa7;" horiz-adv-x="554" 
d="M477 658q5 -10 -3 -16l-22 -17q-11 -8 -27 8q-62 71 -145 71q-50 0 -93.5 -29.5t-43.5 -77.5q0 -18 8.5 -31t34 -25t46 -19t69.5 -22q85 -25 122.5 -58.5t37.5 -84.5q0 -79 -84 -123q84 -43 84 -113q0 -73 -57.5 -120t-141.5 -47q-114 0 -191 91q-13 15 0 26l19 16
q13 11 30 -6q35 -36 68 -53.5t78 -17.5q51 0 94 29.5t43 77.5q0 37 -35.5 56.5t-122.5 41.5q-92 25 -129 60t-37 82q0 76 86 121q-82 44 -82 115q0 74 57.5 120.5t142.5 46.5q56 0 112 -28t82 -74zM261 446q-58 0 -89.5 -26t-31.5 -61q0 -11 3.5 -22t15 -28.5t43.5 -28.5
t81 -11q58 0 88.5 25.5t30.5 60.5q0 41 -40.5 66t-100.5 25z" />
    <glyph glyph-name="dieresis" unicode="&#xa8;" horiz-adv-x="442" 
d="M76 624q0 18 13 31t31 13q19 0 31.5 -13t12.5 -31t-12.5 -30.5t-31.5 -12.5q-18 0 -31 12.5t-13 30.5zM258 625q0 18 13 30.5t31 12.5t30.5 -12.5t12.5 -30.5t-12.5 -31t-30.5 -13t-31 13t-13 31z" />
    <glyph glyph-name="copyright" unicode="&#xa9;" horiz-adv-x="878" 
d="M572 551q14 -9 7 -21l-11 -19q-8 -12 -24 -1q-53 35 -105 35q-72 0 -123.5 -51.5t-51.5 -122.5q0 -72 50.5 -123t123.5 -52q61 0 107 36q13 9 20 -2l11 -17q7 -13 -3 -22q-56 -47 -137 -47q-93 0 -159 66.5t-66 160.5t66 160t160 66q78 0 135 -46zM50 371q0 158 112 270
t271 112q157 0 269.5 -112t112.5 -270t-112 -270t-270 -112t-270.5 112t-112.5 270zM99 370q0 -137 98.5 -234.5t234.5 -97.5q137 0 236 99t99 235q0 138 -98.5 235t-233.5 97q-139 0 -237.5 -99.5t-98.5 -234.5z" />
    <glyph glyph-name="ordfeminine" unicode="&#xaa;" horiz-adv-x="515" 
d="M366 676l6 52q0 14 14 14h26q5 0 9.5 -4t4.5 -10v-330q0 -12 -10 -12l-2 -2h-37q-14 0 -14 14v45q-37 -66 -125 -66q-77 0 -131.5 54.5t-54.5 131.5t54.5 131.5t131.5 54.5q89 0 128 -73zM112 563q0 -52 37.5 -88.5t88.5 -36.5q52 0 87.5 35t37.5 87v3q0 51 -36.5 88
t-88.5 37q-51 0 -88.5 -37t-37.5 -88z" />
    <glyph glyph-name="guillemotleft" unicode="&#xab;" horiz-adv-x="689" 
d="M71 286q0 3 4 7l264 262q12 12 22 3l17 -17q13 -11 0 -24l-235 -231l235 -232q12 -12 0 -24l-17 -17q-10 -9 -22 3l-264 261q-4 5 -4 9zM296 286q0 3 4 7l264 262q5 5 11.5 6t10.5 -3l17 -17q13 -11 0 -24l-235 -231l235 -232q12 -12 0 -24l-17 -17q-10 -9 -22 3
l-264 261q-4 5 -4 9z" />
    <glyph glyph-name="logicalnot" unicode="&#xac;" horiz-adv-x="581" 
d="M466 370v-171q0 -22 -22 -22h-12q-9 0 -16 6t-7 16v136h-273q-23 0 -23 23v12q0 22 23 22h308q22 0 22 -22z" />
    <glyph glyph-name="uni00AD" unicode="&#xad;" horiz-adv-x="528" 
d="M121 297h308q22 0 22 -22v-12q0 -9 -6.5 -16t-15.5 -7h-308q-23 0 -23 23v12q0 22 23 22z" />
    <glyph glyph-name="registered" unicode="&#xae;" horiz-adv-x="878" 
d="M56 373q0 159 109 270t267 111t269.5 -111.5t111.5 -269.5t-111.5 -270t-269.5 -112t-267 111.5t-109 270.5zM112 371q0 -137 91 -230.5t227 -93.5t232.5 94.5t96.5 229.5q0 137 -96.5 230t-232.5 93q-132 0 -225 -94t-93 -229zM542 171l-66 133q-5 -1 -16 -1h-123v-129
q0 -14 -14 -14h-27q-13 0 -13 14v406q0 8 9 8h171q56 0 97 -42t41 -97q0 -42 -20.5 -75.5t-54.5 -52.5l68 -139q3 -6 -1 -12.5t-11 -6.5h-27q-9 0 -13 8zM447 536h-110v-177h110q43 0 71 25t28 66q0 40 -28 63t-71 23z" />
    <glyph glyph-name="macron" unicode="&#xaf;" horiz-adv-x="487" 
d="M66 645h296q17 0 17 -16v-19q0 -17 -17 -17h-296q-16 0 -16 17v19q0 16 16 16z" />
    <glyph glyph-name="degree" unicode="&#xb0;" horiz-adv-x="325" 
d="M171 637q49 0 83 -34.5t34 -83.5q0 -50 -34.5 -84t-82.5 -34q-49 0 -83.5 34t-34.5 84q0 49 34.5 83.5t83.5 34.5zM171 599q-34 0 -57 -23.5t-23 -56.5q0 -34 23 -56.5t57 -22.5q33 0 56 22.5t23 56.5q0 33 -23 56.5t-56 23.5z" />
    <glyph glyph-name="plusminus" unicode="&#xb1;" horiz-adv-x="497" 
d="M405 0h-321q-19 0 -19 18v21q0 19 19 19h321q19 0 19 -19v-21q0 -18 -19 -18zM258 138h-29q-15 0 -15 17v137h-133q-16 0 -16 14v30q0 15 16 15h133v132q0 15 15 15h29q6 0 10.5 -4.5t4.5 -11.5v-131h136q16 0 16 -15v-30q0 -6 -5 -10t-11 -4h-136v-137q0 -17 -15 -17z
" />
    <glyph glyph-name="twosuperior" unicode="&#xb2;" horiz-adv-x="418" 
d="M303 335h-251q-13 0 -13 13v26q0 6 1 7l186 183q28 28 28 59t-24 52.5t-58 21.5q-33 0 -56.5 -23t-23.5 -55q0 -16 -3 -20t-13 -4h-26q-11 0 -11 12v12q0 55 39 91.5t94 36.5q58 0 97.5 -34t39.5 -89q0 -51 -37 -88l-153 -149h184q13 0 13 -12v-27q0 -13 -13 -13z" />
    <glyph glyph-name="threesuperior" unicode="&#xb3;" horiz-adv-x="378" 
d="M23 459q0 12 11 12h29q11 0 11 -12q0 -32 23.5 -55t55.5 -23t55.5 23t23.5 55t-23.5 56t-55.5 24q-12 0 -12 11v27q0 12 12 12q22 1 38 16.5t16 37.5q0 23 -15.5 38.5t-38.5 15.5q-22 0 -37.5 -15.5t-15.5 -38.5q0 -12 -11 -12h-31q-10 0 -10 12q0 43 31 74t74 31
t73.5 -30.5t30.5 -74.5q0 -46 -32 -76q58 -38 58 -108q0 -54 -38 -92t-92 -38t-92 38t-38 92z" />
    <glyph glyph-name="acute" unicode="&#xb4;" horiz-adv-x="248" 
d="M212 723l-55 -122q-7 -13 -17 -13h-30q-17 0 -6 19l52 122q6 13 17 13h33q15 0 6 -19z" />
    <glyph glyph-name="mu" unicode="&#xb5;" horiz-adv-x="584" 
d="M288 -9q-92 0 -149 81v-246q0 -19 -19 -19h-20q-19 0 -19 19v645q0 18 19 18h21q18 0 18 -18v-278q1 -61 44.5 -103.5t104.5 -43.5h2q62 0 107 43t46 104v279q0 18 19 18h20q20 0 20 -18v-453q0 -13 -7 -16t-33 -3h-5q-12 0 -12 11l-2 66q-26 -38 -67 -62t-88 -24z" />
    <glyph glyph-name="paragraph" unicode="&#xb6;" horiz-adv-x="668" 
d="M642 742q15 0 15 -15v-26q0 -16 -15 -16h-110v-670q0 -15 -15 -15h-27q-15 0 -15 15v670h-136v-670q0 -15 -16 -15h-26q-16 0 -16 15v296q-29 0 -57 6q-80 10 -134.5 69.5t-54.5 139.5q0 89 63 152.5t152 63.5h392z" />
    <glyph glyph-name="periodcentered" unicode="&#xb7;" horiz-adv-x="227" 
d="M55 277q0 19 13.5 32.5t32.5 13.5q20 0 33.5 -13.5t13.5 -32.5t-13.5 -32.5t-33.5 -13.5q-19 0 -32.5 13.5t-13.5 32.5z" />
    <glyph glyph-name="cedilla" unicode="&#xb8;" horiz-adv-x="278" 
d="M73 -46v72h47q1 -7 1 -45q0 -19 2.5 -26t11.5 -10q71 -24 71 -91q0 -29 -27.5 -57t-80.5 -39q-12 -2 -15 6l-5 24q-3 11 11 15q25 5 45.5 19.5t20.5 34.5q0 40 -50 53q-32 9 -32 44z" />
    <glyph glyph-name="onesuperior" unicode="&#xb9;" horiz-adv-x="234" 
d="M94 743h30q13 0 13 -12v-384q0 -12 -13 -12h-28q-12 0 -12 12v338l-34 -16q-15 -6 -15 6v32q0 9 10 14z" />
    <glyph glyph-name="ordmasculine" unicode="&#xba;" horiz-adv-x="487" 
d="M59 569q0 77 54 130.5t131 53.5q76 0 130 -53.5t54 -130.5q0 -80 -54.5 -132.5t-129.5 -52.5q-77 0 -131 54t-54 131zM110 569q0 -55 39 -94t94 -39t93.5 38.5t38.5 94.5q0 54 -38.5 93t-93.5 39t-94 -39t-39 -93z" />
    <glyph glyph-name="guillemotright" unicode="&#xbb;" horiz-adv-x="689" 
d="M625 286q0 -4 -4 -9l-264 -261q-12 -12 -22 -3l-17 17q-12 12 0 24l235 232l-235 231q-13 13 0 24l17 17q10 9 22 -3l264 -262q4 -4 4 -7zM400 286q0 -4 -4 -9l-264 -261q-12 -12 -22 -3l-17 17q-12 12 0 24l235 232l-235 231q-13 13 0 24l17 17q4 4 10.5 3t11.5 -6
l264 -262q4 -4 4 -7z" />
    <glyph glyph-name="onequarter" unicode="&#xbc;" horiz-adv-x="742" 
d="M523 67h-180q-13 0 -15 10.5t5 18.5q30 49 91 146.5t92 145.5q0 1 4 7.5t7 9t8 2.5h28q13 0 13 -17v-270h33q15 0 15 -14v-25q0 -14 -15 -14h-33v-54q0 -14 -14 -14h-25q-14 0 -14 14v54zM405 120h118v184q-20 -30 -59 -92t-59 -92zM114 743h29q13 0 13 -12v-384
q0 -12 -12 -12h-28q-13 0 -13 12v338l-34 -16q-6 -2 -7 -2q-7 0 -7 8v32q0 10 10 14zM77 21l373 699q8 14 14.5 18t19.5 4h15q18 0 18 -8q-3 -11 -7 -18l-377 -701q-9 -15 -26 -15h-21q-13 0 -13 8q0 5 4 13z" />
    <glyph glyph-name="onehalf" unicode="&#xbd;" horiz-adv-x="742" 
d="M119 743h16q12 0 12 -13v-382q0 -14 -14 -14h-17q-14 0 -14 14v347l-26 -12q-6 -3 -11.5 -0.5t-7.5 8.5l-1 13q-2 13 9 19l41 18q8 2 13 2zM672 0h-253q-6 0 -10.5 5t-4.5 11v10q0 10 8 18l184 178q35 33 35 67q0 36 -27 59t-65 23q-40 0 -65 -26.5t-25 -65.5
q0 -6 -3.5 -9.5t-6.5 -4.5t-5 -1h-13q-14 0 -14 15q-1 54 35.5 93.5t96.5 39.5q56 0 96 -34t40 -88q0 -52 -35 -87l-172 -162h203q15 0 15 -13v-14q0 -5 -4 -9.5t-10 -4.5zM116 18l384 715q3 8 14 8h30q20 0 12 -17l-386 -716q-4 -8 -14 -8h-31q-8 0 -10.5 5.5t1.5 12.5z
" />
    <glyph glyph-name="threequarters" unicode="&#xbe;" horiz-adv-x="766" 
d="M13 467q0 13 10 13h30q11 0 11 -12q0 -32 23 -55.5t55 -23.5t56 23.5t24 55.5t-24 55.5t-56 23.5q-12 0 -12 12v26q0 12 13 12q22 1 38 16.5t16 37.5q0 23 -16 39t-39 16q-22 0 -37.5 -16t-15.5 -39q0 -12 -11 -12h-30q-10 0 -10 13q0 43 30.5 74t73.5 31t74 -31t31 -74
q0 -45 -33 -76q58 -38 58 -109q0 -53 -38 -91t-92 -38q-53 0 -91 38t-38 91zM544 68h-181q-13 0 -15 11t6 18q84 134 182 292q2 2 4.5 6t4 6.5t5 4.5t6.5 2h28q12 0 12 -17v-270h34q14 0 14 -14v-25q0 -14 -14 -14h-34v-54q0 -14 -14 -14h-24q-14 0 -14 14v54zM425 121h119
v184q-21 -30 -59.5 -91.5t-59.5 -92.5zM131 21l373 699q8 14 14.5 18t19.5 4h15q18 0 18 -8q-3 -11 -7 -18l-377 -701q-9 -15 -26 -15h-21q-13 0 -13 8q0 5 4 13z" />
    <glyph glyph-name="questiondown" unicode="&#xbf;" horiz-adv-x="534" 
d="M261 295v91q0 18 16 18h31q14 0 14 -18v-105q0 -70 -124 -150q-52 -32 -77 -68t-25 -93q0 -68 55 -109.5t127 -41.5q78 0 132.5 53t54.5 127q0 15 13 15h33q12 0 12 -14q0 -103 -71 -170.5t-174 -67.5q-101 0 -169.5 62t-68.5 146q0 70 26.5 114t85.5 81q109 65 109 130z
M339 518q0 -19 -13.5 -33t-32.5 -14q-20 0 -33.5 13.5t-13.5 33.5q0 19 13.5 32.5t33.5 13.5q19 0 32.5 -13.5t13.5 -32.5z" />
    <glyph glyph-name="Agrave" unicode="&#xc0;" horiz-adv-x="716" 
d="M384 729l292 -708q5 -10 0.5 -16t-13.5 -6h-30q-10 0 -15 13l-71 173h-383l-71 -172q-5 -14 -15 -14h-31q-8 0 -12 6t0 16l296 708q5 13 17 13h19q12 0 17 -13zM356 649l-168 -407h335zM325 852l-51 119q-4 10 -0.5 16t11.5 6h25q10 0 17 -13l52 -121q9 -20 -8 -20h-28
q-10 0 -18 13z" />
    <glyph glyph-name="Aacute" unicode="&#xc1;" horiz-adv-x="716" 
d="M384 729l292 -708q5 -10 0.5 -16t-13.5 -6h-30q-10 0 -15 13l-71 173h-383l-71 -172q-5 -14 -15 -14h-31q-8 0 -12 6t0 16l296 708q5 13 17 13h19q12 0 17 -13zM356 649l-168 -407h335zM465 974l-55 -122q-6 -13 -17 -13h-30q-17 0 -6 19l52 122q6 13 17 13h33
q15 0 6 -19z" />
    <glyph glyph-name="Acircumflex" unicode="&#xc2;" horiz-adv-x="716" 
d="M384 729l292 -708q5 -10 0.5 -16t-13.5 -6h-30q-10 0 -15 13l-71 173h-383l-71 -172q-5 -14 -15 -14h-31q-8 0 -12 6t0 16l296 708q5 13 17 13h19q12 0 17 -13zM356 649l-168 -407h335zM224 891l114 112q11 14 24 1l114 -113q12 -11 1 -22l-15 -14q-10 -11 -23 2l-89 88
l-90 -90q-11 -11 -23 -1l-15 16q-9 10 2 21z" />
    <glyph glyph-name="Atilde" unicode="&#xc3;" horiz-adv-x="716" 
d="M384 729l292 -708q5 -10 0.5 -16t-13.5 -6h-30q-10 0 -15 13l-71 173h-383l-71 -172q-5 -14 -15 -14h-31q-8 0 -12 6t0 16l296 708q5 13 17 13h19q12 0 17 -13zM356 649l-168 -407h335zM257 855q-12 -15 -26 -1l-7 7q-11 10 1 24q39 48 83 48q22 0 60 -22.5t55 -22.5
q18 0 46 30q13 17 27 7l9 -10q11 -10 0 -23q-37 -51 -86 -51q-22 0 -58 23t-53 23q-12 0 -22 -5.5t-13.5 -9t-15.5 -17.5z" />
    <glyph glyph-name="Adieresis" unicode="&#xc4;" horiz-adv-x="716" 
d="M384 729l292 -708q5 -10 0.5 -16t-13.5 -6h-30q-10 0 -15 13l-71 173h-383l-71 -172q-5 -14 -15 -14h-31q-8 0 -12 6t0 16l296 708q5 13 17 13h19q12 0 17 -13zM356 649l-168 -407h335zM229 875q0 18 13 31t31 13q19 0 31.5 -13t12.5 -31t-12.5 -30.5t-31.5 -12.5
q-18 0 -31 12.5t-13 30.5zM411 876q0 18 13 30.5t31 12.5t30.5 -12.5t12.5 -30.5t-12.5 -31t-30.5 -13t-31 13t-13 31z" />
    <glyph glyph-name="Aring" unicode="&#xc5;" horiz-adv-x="716" 
d="M384 729l292 -708q5 -10 0.5 -16t-13.5 -6h-30q-10 0 -15 13l-71 173h-383l-71 -172q-5 -14 -15 -14h-31q-8 0 -12 6t0 16l296 708q5 13 17 13h19q12 0 17 -13zM356 649l-168 -407h335zM364 1012q38 0 65.5 -27.5t27.5 -65.5q0 -39 -27 -65.5t-66 -26.5t-66 26.5
t-27 65.5q0 38 27 65.5t66 27.5zM310 919q0 -23 15.5 -38t38.5 -15q22 0 37.5 15t15.5 38t-15.5 38t-37.5 15q-23 0 -38.5 -15t-15.5 -38z" />
    <glyph glyph-name="AE" unicode="&#xc6;" horiz-adv-x="1151" 
d="M596 16v169h-375l-133 -175q-8 -10 -17 -10h-35q-9 0 -12 8t4 17l568 710q6 8 16 8h466q17 0 17 -16v-28q0 -16 -17 -16h-429v-280h345q19 0 19 -16v-23q0 -16 -19 -16h-345v-288h439q18 0 18 -17v-27q0 -16 -18 -16h-476q-16 0 -16 16zM265 244h331v403z" />
    <glyph glyph-name="Ccedilla" unicode="&#xc7;" horiz-adv-x="705" 
d="M625 117q16 12 25 -1l15 -23q7 -12 -6 -22q-98 -82 -232 -82q-158 0 -270.5 112t-112.5 271t112 269.5t271 110.5q131 0 234 -82q13 -10 7 -23l-17 -22q-2 -4 -8 -5t-16 4q-92 72 -198 72q-134 0 -230 -95.5t-96 -228.5q0 -134 95.5 -230.5t228.5 -96.5q107 0 198 72z
M393 -46v72h47q1 -7 1 -45q0 -19 2.5 -26t11.5 -10q71 -24 71 -91q0 -29 -27.5 -57t-80.5 -39q-12 -2 -15 6l-5 24q-3 11 11 15q25 5 45.5 19.5t20.5 34.5q0 40 -50 53q-32 9 -32 44z" />
    <glyph glyph-name="Egrave" unicode="&#xc8;" horiz-adv-x="642" 
d="M81 16v710q0 16 16 16h486q17 0 17 -14v-27q0 -16 -17 -16h-445v-268h357q19 0 19 -16v-26q0 -16 -19 -16h-357v-302h452q17 0 17 -13v-30q0 -14 -17 -14h-493q-16 0 -16 16zM322 852l-51 119q-4 10 -0.5 16t11.5 6h25q10 0 17 -13l52 -121q9 -20 -8 -20h-28
q-10 0 -18 13z" />
    <glyph glyph-name="Eacute" unicode="&#xc9;" horiz-adv-x="642" 
d="M81 16v710q0 16 16 16h486q17 0 17 -14v-27q0 -16 -17 -16h-445v-268h357q19 0 19 -16v-26q0 -16 -19 -16h-357v-302h452q17 0 17 -13v-30q0 -14 -17 -14h-493q-16 0 -16 16zM435 974l-55 -122q-6 -13 -17 -13h-30q-17 0 -6 19l52 122q6 13 17 13h33q15 0 6 -19z" />
    <glyph glyph-name="Ecircumflex" unicode="&#xca;" horiz-adv-x="642" 
d="M81 16v710q0 16 16 16h486q17 0 17 -14v-27q0 -16 -17 -16h-445v-268h357q19 0 19 -16v-26q0 -16 -19 -16h-357v-302h452q17 0 17 -13v-30q0 -14 -17 -14h-493q-16 0 -16 16zM225 891l114 112q11 14 24 1l114 -113q11 -11 1 -22l-15 -14q-10 -11 -23 2l-89 88l-90 -90
q-11 -11 -23 -1l-15 16q-9 10 2 21z" />
    <glyph glyph-name="Edieresis" unicode="&#xcb;" horiz-adv-x="642" 
d="M81 16v710q0 16 16 16h486q17 0 17 -14v-27q0 -16 -17 -16h-445v-268h357q19 0 19 -16v-26q0 -16 -19 -16h-357v-302h452q17 0 17 -13v-30q0 -14 -17 -14h-493q-16 0 -16 16zM212 885q0 18 13 31t31 13q19 0 31.5 -13t12.5 -31t-12.5 -30.5t-31.5 -12.5q-18 0 -31 12.5
t-13 30.5zM394 886q0 18 13 30.5t31 12.5t30.5 -12.5t12.5 -30.5t-12.5 -31t-30.5 -13t-31 13t-13 31z" />
    <glyph glyph-name="Igrave" unicode="&#xcc;" horiz-adv-x="218" 
d="M80 18v706q0 18 19 18h20q19 0 19 -18v-706q0 -18 -19 -18h-20q-19 0 -19 18zM78 852l-51 119q-4 10 -0.5 16t11.5 6h25q10 0 17 -13l52 -121q9 -20 -8 -20h-28q-10 0 -18 13z" />
    <glyph glyph-name="Iacute" unicode="&#xcd;" horiz-adv-x="218" 
d="M80 18v706q0 18 19 18h20q19 0 19 -18v-706q0 -18 -19 -18h-20q-19 0 -19 18zM195 974l-55 -122q-6 -13 -17 -13h-30q-17 0 -6 19l52 122q6 13 17 13h33q15 0 6 -19z" />
    <glyph glyph-name="Icircumflex" unicode="&#xce;" horiz-adv-x="218" 
d="M80 18v706q0 18 19 18h20q19 0 19 -18v-706q0 -18 -19 -18h-20q-19 0 -19 18zM-16 891l114 112q11 14 24 1l114 -113q12 -11 1 -22l-15 -14q-10 -11 -23 2l-89 88l-90 -90q-11 -11 -23 -1l-15 16q-9 10 2 21z" />
    <glyph glyph-name="Idieresis" unicode="&#xcf;" horiz-adv-x="218" 
d="M80 18v706q0 18 19 18h20q19 0 19 -18v-706q0 -18 -19 -18h-20q-19 0 -19 18zM-26 875q0 18 13 31t31 13q19 0 31.5 -13t12.5 -31t-12.5 -30.5t-31.5 -12.5q-18 0 -31 12.5t-13 30.5zM156 876q0 18 13 30.5t31 12.5t30.5 -12.5t12.5 -30.5t-12.5 -31t-30.5 -13t-31 13
t-13 31z" />
    <glyph glyph-name="Eth" unicode="&#xd0;" horiz-adv-x="740" 
d="M31 394h212q19 0 19 -19v-15q0 -8 -6 -14t-13 -6h-212q-20 0 -20 20v15q0 19 20 19zM79 17v706q0 19 16 19h236q154 0 262 -108.5t108 -263.5q0 -154 -109.5 -262t-264.5 -108h-232q-16 0 -16 17zM136 56h194q131 0 222.5 93.5t91.5 223.5q0 133 -93 222.5t-224 89.5
h-191v-629z" />
    <glyph glyph-name="Ntilde" unicode="&#xd1;" horiz-adv-x="771" 
d="M643 103v623q0 17 17 17h24q17 0 17 -16v-713q0 -14 -16 -14h-26q-10 0 -18 10l-503 636v-628q0 -18 -18 -18h-21q-18 0 -18 18v706q0 18 16 18h32q6 0 9 -5zM284 855q-12 -15 -26 -1l-7 7q-11 10 1 24q39 48 83 48q22 0 60 -22.5t55 -22.5q18 0 46 30q13 17 27 7l9 -10
q11 -10 0 -23q-37 -51 -86 -51q-22 0 -58 23t-53 23q-12 0 -22 -5.5t-13.5 -9t-15.5 -17.5z" />
    <glyph glyph-name="Ograve" unicode="&#xd2;" horiz-adv-x="853" 
d="M44 370q0 158 111.5 270t269.5 112q157 0 268.5 -112t111.5 -270q0 -157 -111.5 -268.5t-269.5 -111.5t-269 111t-111 269zM102 371q0 -134 94.5 -228t228.5 -94q133 0 227.5 94.5t94.5 227.5t-94.5 227.5t-227.5 94.5q-134 0 -228.5 -94.5t-94.5 -227.5zM396 852
l-51 119q-4 10 -0.5 16t11.5 6h25q10 0 17 -13l52 -121q9 -20 -8 -20h-28q-10 0 -18 13z" />
    <glyph glyph-name="Oacute" unicode="&#xd3;" horiz-adv-x="853" 
d="M44 370q0 158 111.5 270t269.5 112q157 0 268.5 -112t111.5 -270q0 -157 -111.5 -268.5t-269.5 -111.5t-269 111t-111 269zM102 371q0 -134 94.5 -228t228.5 -94q133 0 227.5 94.5t94.5 227.5t-94.5 227.5t-227.5 94.5q-134 0 -228.5 -94.5t-94.5 -227.5zM526 974
l-55 -122q-7 -13 -17 -13h-30q-17 0 -6 19l52 122q6 13 17 13h33q15 0 6 -19z" />
    <glyph glyph-name="Ocircumflex" unicode="&#xd4;" horiz-adv-x="853" 
d="M44 370q0 158 111.5 270t269.5 112q157 0 268.5 -112t111.5 -270q0 -157 -111.5 -268.5t-269.5 -111.5t-269 111t-111 269zM102 371q0 -134 94.5 -228t228.5 -94q133 0 227.5 94.5t94.5 227.5t-94.5 227.5t-227.5 94.5q-134 0 -228.5 -94.5t-94.5 -227.5zM286 891
l114 112q11 14 24 1l114 -113q12 -11 1 -22l-15 -14q-10 -11 -23 2l-89 88l-90 -90q-11 -11 -23 -1l-15 16q-9 10 2 21z" />
    <glyph glyph-name="Otilde" unicode="&#xd5;" horiz-adv-x="853" 
d="M44 370q0 158 111.5 270t269.5 112q157 0 268.5 -112t111.5 -270q0 -157 -111.5 -268.5t-269.5 -111.5t-269 111t-111 269zM102 371q0 -134 94.5 -228t228.5 -94q133 0 227.5 94.5t94.5 227.5t-94.5 227.5t-227.5 94.5q-134 0 -228.5 -94.5t-94.5 -227.5zM319 855
q-12 -15 -26 -1l-7 7q-11 10 1 24q39 48 83 48q22 0 60 -22.5t55 -22.5q18 0 46 30q13 17 27 7l9 -10q11 -10 0 -23q-37 -51 -86 -51q-22 0 -58 23t-53 23q-12 0 -22 -5.5t-13.5 -9t-15.5 -17.5z" />
    <glyph glyph-name="Odieresis" unicode="&#xd6;" horiz-adv-x="853" 
d="M44 370q0 158 111.5 270t269.5 112q157 0 268.5 -112t111.5 -270q0 -157 -111.5 -268.5t-269.5 -111.5t-269 111t-111 269zM102 371q0 -134 94.5 -228t228.5 -94q133 0 227.5 94.5t94.5 227.5t-94.5 227.5t-227.5 94.5q-134 0 -228.5 -94.5t-94.5 -227.5zM291 875
q0 18 13 31t31 13q19 0 31.5 -13t12.5 -31t-12.5 -30.5t-31.5 -12.5q-18 0 -31 12.5t-13 30.5zM473 876q0 18 13 30.5t31 12.5t30.5 -12.5t12.5 -30.5t-12.5 -31t-30.5 -13t-31 13t-13 31z" />
    <glyph glyph-name="multiply" unicode="&#xd7;" horiz-adv-x="446" 
d="M104 172l-19 19q-11 11 1 23l105 104l-104 103q-11 13 -1 22l17 18q11 11 23 -2l103 -103l106 105q10 12 21 1l19 -19q9 -11 -1 -21l-106 -105l106 -106q10 -11 0 -21l-18 -18q-4 -4 -10 -3.5t-10 4.5l-106 106l-104 -105q-13 -11 -22 -2z" />
    <glyph glyph-name="Oslash" unicode="&#xd8;" horiz-adv-x="851" 
d="M235 -47l28 73q-99 46 -159 138.5t-60 205.5q0 158 111.5 270t269.5 112q57 0 111 -17l24 59q6 14 12 18t19 4h14q20 0 20 -10q0 -1 -1 -4t-1.5 -6t-1.5 -6l-31 -76q97 -47 156 -139.5t59 -204.5q0 -157 -111.5 -268.5t-269.5 -111.5q-54 0 -108 16l-24 -59
q-6 -15 -24 -15h-21q-14 0 -14 10q0 3 2 11zM102 371q0 -134 94.5 -228t228.5 -94q133 0 227.5 94.5t94.5 227.5t-94.5 227.5t-227.5 94.5q-134 0 -228.5 -94.5t-94.5 -227.5z" />
    <glyph glyph-name="Ugrave" unicode="&#xd9;" horiz-adv-x="752" 
d="M128 724v-427q0 -107 70 -180t176 -73q109 0 178 73t69 180v427q0 18 19 18h19q20 0 20 -18v-434q0 -130 -88.5 -216t-216.5 -86q-126 0 -215 89t-89 215v432q0 18 17 18h22q19 0 19 -18zM376 852l-51 119q-4 10 -0.5 16t11.5 6h25q10 0 17 -13l52 -121q9 -20 -8 -20h-28
q-10 0 -18 13z" />
    <glyph glyph-name="Uacute" unicode="&#xda;" horiz-adv-x="752" 
d="M128 724v-427q0 -107 70 -180t176 -73q109 0 178 73t69 180v427q0 18 19 18h19q20 0 20 -18v-434q0 -130 -88.5 -216t-216.5 -86q-126 0 -215 89t-89 215v432q0 18 17 18h22q19 0 19 -18zM477 974l-55 -122q-6 -13 -17 -13h-30q-17 0 -6 19l52 122q6 13 17 13h33
q15 0 6 -19z" />
    <glyph glyph-name="Ucircumflex" unicode="&#xdb;" horiz-adv-x="752" 
d="M128 724v-427q0 -107 70 -180t176 -73q109 0 178 73t69 180v427q0 18 19 18h19q20 0 20 -18v-434q0 -130 -88.5 -216t-216.5 -86q-126 0 -215 89t-89 215v432q0 18 17 18h22q19 0 19 -18zM253 891l114 112q11 14 24 1l114 -113q11 -11 1 -22l-15 -14q-10 -11 -23 2
l-89 88l-90 -90q-11 -11 -23 -1l-15 16q-9 10 2 21z" />
    <glyph glyph-name="Udieresis" unicode="&#xdc;" horiz-adv-x="752" 
d="M128 724v-427q0 -107 70 -180t176 -73q109 0 178 73t69 180v427q0 18 19 18h19q20 0 20 -18v-434q0 -130 -88.5 -216t-216.5 -86q-126 0 -215 89t-89 215v432q0 18 17 18h22q19 0 19 -18zM240 875q0 18 13 31t31 13q19 0 31.5 -13t12.5 -31t-12.5 -30.5t-31.5 -12.5
q-18 0 -31 12.5t-13 30.5zM422 876q0 18 13 30.5t31 12.5t30.5 -12.5t12.5 -30.5t-12.5 -31t-30.5 -13t-31 13t-13 31z" />
    <glyph glyph-name="Yacute" unicode="&#xdd;" horiz-adv-x="553" 
d="M252 328l-242 394q-5 9 -1 14.5t12 5.5h34q9 0 16 -10l208 -348l212 347q6 11 15 11h31q8 0 11.5 -4t-1.5 -14l-238 -396v-310q0 -18 -14 -18h-30q-13 0 -13 18v310zM371 974l-55 -122q-6 -13 -17 -13h-30q-17 0 -6 19l52 122q6 13 17 13h33q15 0 6 -19z" />
    <glyph glyph-name="Thorn" unicode="&#xde;" horiz-adv-x="627" 
d="M81 18v707q0 18 18 18h21q18 0 18 -18v-114h202q96 0 163.5 -68t67.5 -163t-67 -162.5t-163 -67.5h-202v-132q0 -18 -19 -18h-21q-18 0 -18 18zM139 207h201q72 0 122.5 51t50.5 122q0 72 -50.5 123t-122.5 51h-201v-347z" />
    <glyph glyph-name="germandbls" unicode="&#xdf;" horiz-adv-x="576" 
d="M275 -29q-16 0 -16 14v34q0 13 19 13q86 0 142.5 51.5t56.5 132.5q0 80 -49 127t-150 47q-19 0 -19 16v27q0 16 20 16q45 0 75.5 12.5t44 33t18.5 39t5 38.5q0 59 -42 93t-103 34q-65 0 -101.5 -46t-36.5 -120v-707q0 -17 -16 -17h-28q-15 0 -15 17v717q0 97 55.5 156
t143.5 59q89 0 146 -54.5t57 -130.5q0 -95 -70 -147q58 -24 93.5 -82.5t35.5 -129.5q0 -102 -70.5 -172.5t-195.5 -70.5z" />
    <glyph glyph-name="agrave" unicode="&#xe0;" horiz-adv-x="562" 
d="M102 398l-13 13q-11 12 0 24q71 73 179 73q82 0 141 -55.5t59 -148.5v-287q0 -17 -15 -17h-22q-17 0 -17 19l-1 75q-14 -25 -25 -39.5t-31 -33t-49 -27.5t-67 -9q-86 0 -133 45.5t-47 114.5q0 60 46.5 101.5t130.5 41.5h176q0 70 -42 117t-104 47q-81 0 -140 -50
q-19 -15 -26 -4zM416 238h-164q-67 0 -101 -25t-34 -70q0 -42 31 -73t96 -31q69 0 120.5 52.5t51.5 146.5zM260 601l-51 119q-4 10 -0.5 16t11.5 6h25q10 0 17 -13l52 -121q9 -20 -8 -20h-28q-10 0 -18 13z" />
    <glyph glyph-name="aacute" unicode="&#xe1;" horiz-adv-x="562" 
d="M102 398l-13 13q-11 12 0 24q71 73 179 73q82 0 141 -55.5t59 -148.5v-287q0 -17 -15 -17h-22q-17 0 -17 19l-1 75q-14 -25 -25 -39.5t-31 -33t-49 -27.5t-67 -9q-86 0 -133 45.5t-47 114.5q0 60 46.5 101.5t130.5 41.5h176q0 70 -42 117t-104 47q-81 0 -140 -50
q-19 -15 -26 -4zM416 238h-164q-67 0 -101 -25t-34 -70q0 -42 31 -73t96 -31q69 0 120.5 52.5t51.5 146.5zM375 723l-55 -122q-6 -13 -17 -13h-30q-17 0 -6 19l52 122q6 13 17 13h33q15 0 6 -19z" />
    <glyph glyph-name="acircumflex" unicode="&#xe2;" horiz-adv-x="562" 
d="M102 398l-13 13q-11 12 0 24q71 73 179 73q82 0 141 -55.5t59 -148.5v-287q0 -17 -15 -17h-22q-17 0 -17 19l-1 75q-14 -25 -25 -39.5t-31 -33t-49 -27.5t-67 -9q-86 0 -133 45.5t-47 114.5q0 60 46.5 101.5t130.5 41.5h176q0 70 -42 117t-104 47q-81 0 -140 -50
q-19 -15 -26 -4zM416 238h-164q-67 0 -101 -25t-34 -70q0 -42 31 -73t96 -31q69 0 120.5 52.5t51.5 146.5zM142 640l114 112q11 14 24 1l114 -113q12 -12 1 -22l-15 -14q-10 -11 -23 2l-89 88l-90 -90q-11 -11 -23 -1l-15 16q-9 10 2 21z" />
    <glyph glyph-name="atilde" unicode="&#xe3;" horiz-adv-x="562" 
d="M102 398l-13 13q-11 12 0 24q71 73 179 73q82 0 141 -55.5t59 -148.5v-287q0 -17 -15 -17h-22q-17 0 -17 19l-1 75q-14 -25 -25 -39.5t-31 -33t-49 -27.5t-67 -9q-86 0 -133 45.5t-47 114.5q0 60 46.5 101.5t130.5 41.5h176q0 70 -42 117t-104 47q-81 0 -140 -50
q-19 -15 -26 -4zM416 238h-164q-67 0 -101 -25t-34 -70q0 -42 31 -73t96 -31q69 0 120.5 52.5t51.5 146.5zM178 604q-12 -15 -26 -1l-7 7q-11 10 1 24q39 48 83 48q22 0 60 -22.5t55 -22.5q18 0 46 30q13 17 27 7l9 -10q11 -10 0 -23q-37 -51 -86 -51q-22 0 -58 23t-53 23
q-12 0 -22 -5.5t-13.5 -9t-15.5 -17.5z" />
    <glyph glyph-name="adieresis" unicode="&#xe4;" horiz-adv-x="562" 
d="M102 398l-13 13q-11 12 0 24q71 73 179 73q82 0 141 -55.5t59 -148.5v-287q0 -17 -15 -17h-22q-17 0 -17 19l-1 75q-14 -25 -25 -39.5t-31 -33t-49 -27.5t-67 -9q-86 0 -133 45.5t-47 114.5q0 60 46.5 101.5t130.5 41.5h176q0 70 -42 117t-104 47q-81 0 -140 -50
q-19 -15 -26 -4zM416 238h-164q-67 0 -101 -25t-34 -70q0 -42 31 -73t96 -31q69 0 120.5 52.5t51.5 146.5zM138 624q0 18 13 31t31 13q19 0 31.5 -13t12.5 -31t-12.5 -30.5t-31.5 -12.5q-18 0 -31 12.5t-13 30.5zM320 625q0 18 13 30.5t31 12.5t30.5 -12.5t12.5 -30.5
t-12.5 -31t-30.5 -13t-31 13t-13 31z" />
    <glyph glyph-name="aring" unicode="&#xe5;" horiz-adv-x="562" 
d="M102 398l-13 13q-11 12 0 24q71 73 179 73q82 0 141 -55.5t59 -148.5v-287q0 -17 -15 -17h-22q-17 0 -17 19l-1 75q-14 -25 -25 -39.5t-31 -33t-49 -27.5t-67 -9q-86 0 -133 45.5t-47 114.5q0 60 46.5 101.5t130.5 41.5h176q0 70 -42 117t-104 47q-81 0 -140 -50
q-19 -15 -26 -4zM416 238h-164q-67 0 -101 -25t-34 -70q0 -42 31 -73t96 -31q69 0 120.5 52.5t51.5 146.5zM282 761q38 0 65.5 -27.5t27.5 -65.5q0 -39 -27 -65.5t-66 -26.5t-66 26.5t-27 65.5q0 38 27 65.5t66 27.5zM228 668q0 -23 15.5 -38t38.5 -15q22 0 37.5 15.5
t15.5 37.5t-15.5 37.5t-37.5 15.5q-23 0 -38.5 -15t-15.5 -38z" />
    <glyph glyph-name="ae" unicode="&#xe6;" horiz-adv-x="917" 
d="M102 398l-13 13q-11 12 0 24q71 73 179 73q82 0 141 -55.5t59 -148.5v-287q0 -17 -15 -17h-22q-17 0 -17 19l-1 75q-14 -25 -25 -39.5t-31 -33t-49 -27.5t-67 -9q-86 0 -133 45.5t-47 114.5q0 60 46.5 101.5t130.5 41.5h176q0 70 -42 117t-104 47q-81 0 -140 -50
q-19 -15 -26 -4zM416 238h-164q-67 0 -101 -25t-34 -70q0 -42 31 -73t96 -31q69 0 120.5 52.5t51.5 146.5zM655 -11q-100 0 -170 75t-70 180q0 106 69.5 181t166.5 75q93 0 161 -72.5t68 -174.5q0 -30 -39 -30h-368q4 -75 56.5 -126t124.5 -53h2q84 0 144 62q15 15 26 2
l12 -17q7 -8 6 -14.5t-13 -16.5q-81 -71 -176 -71zM649 443q-65 0 -114 -46.5t-60 -118.5h348q-9 70 -59 117.5t-115 47.5z" />
    <glyph glyph-name="ccedilla" unicode="&#xe7;" horiz-adv-x="511" 
d="M437 386q-68 58 -141 58q-84 0 -143.5 -56t-59.5 -142q0 -89 59 -144.5t144 -56.5q75 0 142 59q9 7 17 -1l17 -25q7 -7 -2 -16q-35 -34 -83.5 -53.5t-93.5 -18.5q-102 2 -178 75.5t-76 180.5q0 106 75 179.5t183 73.5q87 0 174 -72q11 -9 3 -19l-20 -22q-5 -8 -17 0z
M261 -46v72h47q1 -7 1 -45q0 -19 2.5 -26t11.5 -10q71 -24 71 -91q0 -29 -27.5 -57t-80.5 -39q-12 -2 -15 6l-5 24q-3 11 11 15q25 5 45.5 19.5t20.5 34.5q0 40 -50 53q-32 9 -32 44z" />
    <glyph glyph-name="egrave" unicode="&#xe8;" horiz-adv-x="532" 
d="M284 -11q-100 0 -170 75t-70 180q0 106 69.5 181t166.5 75q93 0 161 -72.5t68 -174.5q0 -30 -39 -30h-368q4 -75 56.5 -126t124.5 -53h2q84 0 144 62q15 15 26 2l12 -17q7 -8 6 -14.5t-13 -16.5q-81 -71 -176 -71zM278 443q-65 0 -114 -46.5t-60 -118.5h348
q-9 70 -59 117.5t-115 47.5zM262 601l-51 119q-4 10 -0.5 16t11.5 6h25q10 0 17 -13l52 -121q9 -20 -8 -20h-28q-10 0 -18 13z" />
    <glyph glyph-name="eacute" unicode="&#xe9;" horiz-adv-x="532" 
d="M284 -11q-100 0 -170 75t-70 180q0 106 69.5 181t166.5 75q93 0 161 -72.5t68 -174.5q0 -30 -39 -30h-368q4 -75 56.5 -126t124.5 -53h2q84 0 144 62q15 15 26 2l12 -17q7 -8 6 -14.5t-13 -16.5q-81 -71 -176 -71zM278 443q-65 0 -114 -46.5t-60 -118.5h348
q-9 70 -59 117.5t-115 47.5zM388 723l-55 -122q-7 -13 -17 -13h-30q-17 0 -6 19l52 122q6 13 17 13h33q15 0 6 -19z" />
    <glyph glyph-name="ecircumflex" unicode="&#xea;" horiz-adv-x="532" 
d="M284 -11q-100 0 -170 75t-70 180q0 106 69.5 181t166.5 75q93 0 161 -72.5t68 -174.5q0 -30 -39 -30h-368q4 -75 56.5 -126t124.5 -53h2q84 0 144 62q15 15 26 2l12 -17q7 -8 6 -14.5t-13 -16.5q-81 -71 -176 -71zM278 443q-65 0 -114 -46.5t-60 -118.5h348
q-9 70 -59 117.5t-115 47.5zM146 640l114 112q11 14 24 1l114 -113q12 -12 1 -22l-15 -14q-10 -11 -23 2l-89 88l-90 -90q-11 -11 -23 -1l-15 16q-9 10 2 21z" />
    <glyph glyph-name="edieresis" unicode="&#xeb;" horiz-adv-x="532" 
d="M284 -11q-100 0 -170 75t-70 180q0 106 69.5 181t166.5 75q93 0 161 -72.5t68 -174.5q0 -30 -39 -30h-368q4 -75 56.5 -126t124.5 -53h2q84 0 144 62q15 15 26 2l12 -17q7 -8 6 -14.5t-13 -16.5q-81 -71 -176 -71zM278 443q-65 0 -114 -46.5t-60 -118.5h348
q-9 70 -59 117.5t-115 47.5zM151 624q0 18 13 31t31 13q19 0 31.5 -13t12.5 -31t-12.5 -30.5t-31.5 -12.5q-18 0 -31 12.5t-13 30.5zM333 625q0 18 13 30.5t31 12.5t30.5 -12.5t12.5 -30.5t-12.5 -31t-30.5 -13t-31 13t-13 31z" />
    <glyph glyph-name="igrave" unicode="&#xec;" horiz-adv-x="217" 
d="M80 18v453q0 19 19 19h20q19 0 19 -19v-453q0 -18 -18 -18h-21q-19 0 -19 18zM80 601l-51 119q-4 10 -0.5 16t11.5 6h25q10 0 17 -13l52 -121q9 -20 -8 -20h-28q-10 0 -18 13z" />
    <glyph glyph-name="iacute" unicode="&#xed;" horiz-adv-x="217" 
d="M80 18v453q0 19 19 19h20q19 0 19 -19v-453q0 -18 -18 -18h-21q-19 0 -19 18zM192 723l-55 -122q-7 -13 -17 -13h-30q-17 0 -6 19l52 122q6 13 17 13h33q15 0 6 -19z" />
    <glyph glyph-name="icircumflex" unicode="&#xee;" horiz-adv-x="217" 
d="M80 18v453q0 19 19 19h20q19 0 19 -19v-453q0 -18 -18 -18h-21q-19 0 -19 18zM-18 640l114 112q11 14 24 1l114 -113q12 -12 1 -22l-15 -14q-10 -11 -23 2l-89 88l-90 -90q-11 -11 -23 -1l-15 16q-9 10 2 21z" />
    <glyph glyph-name="idieresis" unicode="&#xef;" horiz-adv-x="217" 
d="M80 18v453q0 19 19 19h20q19 0 19 -19v-453q0 -18 -18 -18h-21q-19 0 -19 18zM-27 624q0 18 13 31t31 13q19 0 31.5 -13t12.5 -31t-12.5 -30.5t-31.5 -12.5q-18 0 -31 12.5t-13 30.5zM155 625q0 18 13 30.5t31 12.5t30.5 -12.5t12.5 -30.5t-12.5 -31t-30.5 -13t-31 13
t-13 31z" />
    <glyph glyph-name="eth" unicode="&#xf0;" horiz-adv-x="574" 
d="M555 248q0 -107 -74.5 -182t-180.5 -75t-181 75t-75 182q0 106 75 181t181 75q43 0 91 -17l-79 136l-64 -37q-17 -11 -27 7l-6 9q-9 16 8 27l64 37l-31 53q-5 9 -5 16q0 10 18 10h20q18 0 31 -22l16 -28l67 39q17 9 26 -7l5 -9q5 -7 3 -15t-9 -12l-67 -40l150 -259
q44 -64 44 -144zM499 248q0 82 -58.5 141t-141.5 59t-141.5 -59t-58.5 -141q0 -83 59 -142t141 -59t141 59t59 142z" />
    <glyph glyph-name="ntilde" unicode="&#xf1;" horiz-adv-x="566" 
d="M138 299v-281q0 -18 -15 -18h-26q-16 0 -16 18v458q0 13 15 13h28q13 0 13 -14l2 -62q26 38 68.5 62.5t90.5 24.5q87 0 144.5 -61t57.5 -155v-264q0 -20 -16 -20h-26q-10 0 -13 4t-3 15v276q0 61 -44 104.5t-106 43.5q-61 0 -107.5 -42t-46.5 -102zM174 604
q-12 -15 -26 -1l-7 7q-11 10 1 24q39 48 83 48q22 0 60 -22.5t55 -22.5q18 0 46 30q13 17 27 7l9 -10q11 -10 0 -23q-37 -51 -86 -51q-22 0 -58 23t-53 23q-12 0 -22 -5.5t-13.5 -9t-15.5 -17.5z" />
    <glyph glyph-name="ograve" unicode="&#xf2;" horiz-adv-x="583" 
d="M44 244q0 107 71 181.5t176 74.5q106 0 177 -74.5t71 -181.5t-71 -181.5t-177 -74.5q-105 0 -176 74.5t-71 181.5zM101 244q0 -83 55 -141.5t136 -58.5t136 58.5t55 141.5t-55 141.5t-136 58.5t-136 -58.5t-55 -141.5zM283 601l-51 119q-4 10 -0.5 16t11.5 6h25
q10 0 17 -13l52 -121q9 -20 -8 -20h-28q-10 0 -18 13z" />
    <glyph glyph-name="oacute" unicode="&#xf3;" horiz-adv-x="583" 
d="M44 244q0 107 71 181.5t176 74.5q106 0 177 -74.5t71 -181.5t-71 -181.5t-177 -74.5q-105 0 -176 74.5t-71 181.5zM101 244q0 -83 55 -141.5t136 -58.5t136 58.5t55 141.5t-55 141.5t-136 58.5t-136 -58.5t-55 -141.5zM367 723l-55 -122q-6 -13 -17 -13h-30q-17 0 -6 19
l52 122q6 13 17 13h33q15 0 6 -19z" />
    <glyph glyph-name="ocircumflex" unicode="&#xf4;" horiz-adv-x="583" 
d="M44 244q0 107 71 181.5t176 74.5q106 0 177 -74.5t71 -181.5t-71 -181.5t-177 -74.5q-105 0 -176 74.5t-71 181.5zM101 244q0 -83 55 -141.5t136 -58.5t136 58.5t55 141.5t-55 141.5t-136 58.5t-136 -58.5t-55 -141.5zM171 640l114 112q11 14 24 1l114 -113q11 -12 1 -22
l-15 -14q-10 -11 -23 2l-89 88l-90 -90q-11 -11 -23 -1l-15 16q-9 10 2 21z" />
    <glyph glyph-name="otilde" unicode="&#xf5;" horiz-adv-x="583" 
d="M44 244q0 107 71 181.5t176 74.5q106 0 177 -74.5t71 -181.5t-71 -181.5t-177 -74.5q-105 0 -176 74.5t-71 181.5zM101 244q0 -83 55 -141.5t136 -58.5t136 58.5t55 141.5t-55 141.5t-136 58.5t-136 -58.5t-55 -141.5zM196 604q-12 -15 -26 -1l-7 7q-11 10 1 24
q39 48 83 48q22 0 60 -22.5t55 -22.5q18 0 46 30q13 17 27 7l9 -10q11 -10 0 -23q-37 -51 -86 -51q-22 0 -58 23t-53 23q-12 0 -22 -5.5t-13.5 -9t-15.5 -17.5z" />
    <glyph glyph-name="odieresis" unicode="&#xf6;" horiz-adv-x="583" 
d="M44 244q0 107 71 181.5t176 74.5q106 0 177 -74.5t71 -181.5t-71 -181.5t-177 -74.5q-105 0 -176 74.5t-71 181.5zM101 244q0 -83 55 -141.5t136 -58.5t136 58.5t55 141.5t-55 141.5t-136 58.5t-136 -58.5t-55 -141.5zM159 624q0 18 13 31t31 13q19 0 31.5 -13t12.5 -31
t-12.5 -30.5t-31.5 -12.5q-18 0 -31 12.5t-13 30.5zM341 625q0 18 13 30.5t31 12.5t30.5 -12.5t12.5 -30.5t-12.5 -31t-30.5 -13t-31 13t-13 31z" />
    <glyph glyph-name="divide" unicode="&#xf7;" horiz-adv-x="451" 
d="M59 273h320q19 0 19 -18v-21q0 -18 -19 -18h-320q-19 0 -19 18v21q0 18 19 18zM175 37q0 19 13.5 32.5t32.5 13.5t32.5 -13.5t13.5 -32.5t-13.5 -32.5t-32.5 -13.5t-32.5 13.5t-13.5 32.5zM175 453q0 19 13.5 32.5t32.5 13.5t32.5 -13.5t13.5 -32.5q0 -20 -13.5 -33.5
t-32.5 -13.5t-32.5 13.5t-13.5 33.5z" />
    <glyph glyph-name="oslash" unicode="&#xf8;" horiz-adv-x="583" 
d="M412 462l-46 20l23 58q7 19 26 19h12q13 0 16 -4.5t-2 -18.5zM185 15l45 -16l-24 -63q-6 -14 -21 -14h-18q-17 0 -10 18zM44 244q0 107 71 181.5t176 74.5q106 0 177 -74.5t71 -181.5t-71 -181.5t-177 -74.5q-105 0 -176 74.5t-71 181.5zM101 244q0 -83 55 -141.5
t136 -58.5t136 58.5t55 141.5t-55 141.5t-136 58.5t-136 -58.5t-55 -141.5z" />
    <glyph glyph-name="ugrave" unicode="&#xf9;" horiz-adv-x="568" 
d="M60 194v279q0 16 15 16h25q18 0 18 -20v-277q0 -61 45 -103.5t107 -42.5q61 0 106 43t45 104v278q0 18 18 18h21q19 0 19 -18v-453q0 -18 -19 -18h-16q-17 0 -19 18l-4 58q-60 -88 -156 -88q-85 0 -145 60.5t-60 145.5zM249 601l-51 119q-4 10 -0.5 16t11.5 6h25
q10 0 17 -13l52 -121q9 -20 -8 -20h-28q-10 0 -18 13z" />
    <glyph glyph-name="uacute" unicode="&#xfa;" horiz-adv-x="568" 
d="M60 194v279q0 16 15 16h25q18 0 18 -20v-277q0 -61 45 -103.5t107 -42.5q61 0 106 43t45 104v278q0 18 18 18h21q19 0 19 -18v-453q0 -18 -19 -18h-16q-17 0 -19 18l-4 58q-60 -88 -156 -88q-85 0 -145 60.5t-60 145.5zM355 723l-55 -122q-6 -13 -17 -13h-30q-17 0 -6 19
l52 122q6 13 17 13h33q15 0 6 -19z" />
    <glyph glyph-name="ucircumflex" unicode="&#xfb;" horiz-adv-x="568" 
d="M60 194v279q0 16 15 16h25q18 0 18 -20v-277q0 -61 45 -103.5t107 -42.5q61 0 106 43t45 104v278q0 18 18 18h21q19 0 19 -18v-453q0 -18 -19 -18h-16q-17 0 -19 18l-4 58q-60 -88 -156 -88q-85 0 -145 60.5t-60 145.5zM134 640l114 112q11 14 24 1l114 -113
q12 -12 1 -22l-15 -14q-10 -11 -23 2l-89 88l-90 -90q-11 -11 -23 -1l-15 16q-9 10 2 21z" />
    <glyph glyph-name="udieresis" unicode="&#xfc;" horiz-adv-x="568" 
d="M60 194v279q0 16 15 16h25q18 0 18 -20v-277q0 -61 45 -103.5t107 -42.5q61 0 106 43t45 104v278q0 18 18 18h21q19 0 19 -18v-453q0 -18 -19 -18h-16q-17 0 -19 18l-4 58q-60 -88 -156 -88q-85 0 -145 60.5t-60 145.5zM138 624q0 18 13 31t31 13q19 0 31.5 -13t12.5 -31
t-12.5 -30.5t-31.5 -12.5q-18 0 -31 12.5t-13 30.5zM320 625q0 18 13 30.5t31 12.5t30.5 -12.5t12.5 -30.5t-12.5 -31t-30.5 -13t-31 13t-13 31z" />
    <glyph glyph-name="yacute" unicode="&#xfd;" horiz-adv-x="501" 
d="M466 471l-274 -650q-6 -14 -19 -14h-29q-21 0 -12 20l79 187l-190 456q-3 7 0 13t12 6h27q13 0 18 -9l167 -398l160 393q5 14 16 14h34q19 0 11 -18zM330 723l-55 -122q-7 -13 -17 -13h-30q-17 0 -6 19l52 122q6 13 17 13h33q15 0 6 -19z" />
    <glyph glyph-name="thorn" unicode="&#xfe;" horiz-adv-x="591" 
d="M82 -172v187q-1 2 -1 8v698q0 22 24 22h10q23 0 23 -22l1 -324q28 43 68 68q62 36 117 36q104 0 172 -74t68 -182t-68 -182t-172 -74q-65 0 -127 42q-35 23 -58 60v-263q0 -23 -23 -23h-12q-22 0 -22 23zM508 245q0 84 -52 142t-133 58q-75 0 -125 -50.5t-59 -126.5v-44
q8 -77 58.5 -128t125.5 -51q81 0 133 58t52 142z" />
    <glyph glyph-name="ydieresis" unicode="&#xff;" horiz-adv-x="501" 
d="M466 471l-274 -650q-6 -14 -19 -14h-29q-21 0 -12 20l79 187l-190 456q-3 7 0 13t12 6h27q13 0 18 -9l167 -398l160 393q5 14 16 14h34q19 0 11 -18zM109 624q0 18 13 31t31 13q19 0 31.5 -13t12.5 -31t-12.5 -30.5t-31.5 -12.5q-18 0 -31 12.5t-13 30.5zM291 625
q0 18 13 30.5t31 12.5t30.5 -12.5t12.5 -30.5t-12.5 -31t-30.5 -13t-31 13t-13 31z" />
    <glyph glyph-name="Amacron" unicode="&#x100;" horiz-adv-x="716" 
d="M384 729l292 -708q5 -10 0.5 -16t-13.5 -6h-30q-10 0 -15 13l-71 173h-383l-71 -172q-5 -14 -15 -14h-31q-8 0 -12 6t0 16l296 708q5 13 17 13h19q12 0 17 -13zM356 649l-168 -407h335zM207 896h296q17 0 17 -16v-19q0 -17 -17 -17h-296q-16 0 -16 17v19q0 16 16 16z" />
    <glyph glyph-name="amacron" unicode="&#x101;" horiz-adv-x="562" 
d="M102 398l-13 13q-11 12 0 24q71 73 179 73q82 0 141 -55.5t59 -148.5v-287q0 -17 -15 -17h-22q-17 0 -17 19l-1 75q-14 -25 -25 -39.5t-31 -33t-49 -27.5t-67 -9q-86 0 -133 45.5t-47 114.5q0 60 46.5 101.5t130.5 41.5h176q0 70 -42 117t-104 47q-81 0 -140 -50
q-19 -15 -26 -4zM416 238h-164q-67 0 -101 -25t-34 -70q0 -42 31 -73t96 -31q69 0 120.5 52.5t51.5 146.5zM132 645h296q17 0 17 -16v-19q0 -17 -17 -17h-296q-16 0 -16 17v19q0 16 16 16z" />
    <glyph glyph-name="Abreve" unicode="&#x102;" horiz-adv-x="716" 
d="M384 729l292 -708q5 -10 0.5 -16t-13.5 -6h-30q-10 0 -15 13l-71 173h-383l-71 -172q-5 -14 -15 -14h-31q-8 0 -12 6t0 16l296 708q5 13 17 13h19q12 0 17 -13zM356 649l-168 -407h335zM343 866q-45 0 -76 29t-31 68q0 21 13 21h23q12 0 12 -19t16.5 -35t43.5 -16
q25 0 42 16.5t17 35.5q0 18 11 18h29q10 0 10 -20q0 -39 -32.5 -69t-77.5 -29z" />
    <glyph glyph-name="abreve" unicode="&#x103;" horiz-adv-x="562" 
d="M102 398l-13 13q-11 12 0 24q71 73 179 73q82 0 141 -55.5t59 -148.5v-287q0 -17 -15 -17h-22q-17 0 -17 19l-1 75q-14 -25 -25 -39.5t-31 -33t-49 -27.5t-67 -9q-86 0 -133 45.5t-47 114.5q0 60 46.5 101.5t130.5 41.5h176q0 70 -42 117t-104 47q-81 0 -140 -50
q-19 -15 -26 -4zM416 238h-164q-67 0 -101 -25t-34 -70q0 -42 31 -73t96 -31q69 0 120.5 52.5t51.5 146.5zM257 615q-45 0 -76 29t-31 68q0 21 13 21h23q12 0 12 -19t16.5 -35t43.5 -16q25 0 42 16.5t17 35.5q0 18 11 18h29q10 0 10 -20q0 -39 -32.5 -69t-77.5 -29z" />
    <glyph glyph-name="Aogonek" unicode="&#x104;" horiz-adv-x="716" 
d="M384 729l292 -708q5 -10 0.5 -16t-13.5 -6h-30q-10 0 -15 13l-71 173h-383l-71 -172q-5 -14 -15 -14h-31q-8 0 -12 6t0 16l296 708q5 13 17 13h19q12 0 17 -13zM356 649l-168 -407h335zM674 15v-78q0 -17 -4 -22.5t-20 -12.5q-30 -11 -44 -23.5t-14 -32.5
q0 -18 20.5 -32.5t45.5 -21.5q17 -5 11 -19l-8 -20q-2 -5 -5.5 -6.5t-5.5 -1.5t-8 2l-6 2q-45 15 -70 40t-25 54q0 67 71 91q9 3 11 9.5t3 26.5l1 45h47z" />
    <glyph glyph-name="aogonek" unicode="&#x105;" horiz-adv-x="562" 
d="M102 398l-13 13q-11 12 0 24q71 73 179 73q82 0 141 -55.5t59 -148.5v-287q0 -17 -15 -17h-22q-17 0 -17 19l-1 75q-14 -25 -25 -39.5t-31 -33t-49 -27.5t-67 -9q-86 0 -133 45.5t-47 114.5q0 60 46.5 101.5t130.5 41.5h176q0 70 -42 117t-104 47q-81 0 -140 -50
q-19 -15 -26 -4zM416 238h-164q-67 0 -101 -25t-34 -70q0 -42 31 -73t96 -31q69 0 120.5 52.5t51.5 146.5zM466 26v-78q0 -17 -4 -22.5t-20 -12.5q-30 -11 -44 -23.5t-14 -32.5q0 -18 20.5 -32.5t45.5 -21.5q17 -5 11 -19l-8 -20q-2 -5 -5.5 -6.5t-5.5 -1.5t-8 2l-6 2
q-45 15 -70 40t-25 54q0 67 71 91q9 3 11 9.5t3 26.5l1 45h47z" />
    <glyph glyph-name="Cacute" unicode="&#x106;" horiz-adv-x="705" 
d="M625 117q16 12 25 -1l15 -23q7 -12 -6 -22q-98 -82 -232 -82q-158 0 -270.5 112t-112.5 271t112 269.5t271 110.5q131 0 234 -82q13 -10 7 -23l-17 -22q-2 -4 -8 -5t-16 4q-92 72 -198 72q-134 0 -230 -95.5t-96 -228.5q0 -134 95.5 -230.5t228.5 -96.5q107 0 198 72z
M512 974l-55 -122q-7 -13 -17 -13h-30q-17 0 -6 19l52 122q6 13 17 13h33q15 0 6 -19z" />
    <glyph glyph-name="cacute" unicode="&#x107;" horiz-adv-x="511" 
d="M437 386q-68 58 -141 58q-84 0 -143.5 -56t-59.5 -142q0 -89 59 -144.5t144 -56.5q75 0 142 59q9 7 17 -1l17 -25q7 -7 -2 -16q-35 -34 -83.5 -53.5t-93.5 -18.5q-102 2 -178 75.5t-76 180.5q0 106 75 179.5t183 73.5q87 0 174 -72q11 -9 3 -19l-20 -22q-5 -8 -17 0z
M387 723l-55 -122q-6 -13 -17 -13h-30q-17 0 -6 19l52 122q6 13 17 13h33q15 0 6 -19z" />
    <glyph glyph-name="Ccircumflex" unicode="&#x108;" horiz-adv-x="705" 
d="M625 117q16 12 25 -1l15 -23q7 -12 -6 -22q-98 -82 -232 -82q-158 0 -270.5 112t-112.5 271t112 269.5t271 110.5q131 0 234 -82q13 -10 7 -23l-17 -22q-2 -4 -8 -5t-16 4q-92 72 -198 72q-134 0 -230 -95.5t-96 -228.5q0 -134 95.5 -230.5t228.5 -96.5q107 0 198 72z
M293 891l114 112q11 14 24 1l114 -113q11 -11 1 -22l-15 -14q-10 -11 -23 2l-89 88l-90 -90q-11 -11 -23 -1l-15 16q-9 10 2 21z" />
    <glyph glyph-name="ccircumflex" unicode="&#x109;" horiz-adv-x="511" 
d="M437 386q-68 58 -141 58q-84 0 -143.5 -56t-59.5 -142q0 -89 59 -144.5t144 -56.5q75 0 142 59q9 7 17 -1l17 -25q7 -7 -2 -16q-35 -34 -83.5 -53.5t-93.5 -18.5q-102 2 -178 75.5t-76 180.5q0 106 75 179.5t183 73.5q87 0 174 -72q11 -9 3 -19l-20 -22q-5 -8 -17 0z
M169 618l114 112q11 14 24 1l114 -113q11 -12 1 -22l-15 -14q-10 -11 -23 2l-89 88l-90 -90q-11 -11 -23 -1l-15 16q-9 10 2 21z" />
    <glyph glyph-name="Cdotaccent" unicode="&#x10a;" horiz-adv-x="705" 
d="M625 117q16 12 25 -1l15 -23q7 -12 -6 -22q-98 -82 -232 -82q-158 0 -270.5 112t-112.5 271t112 269.5t271 110.5q131 0 234 -82q13 -10 7 -23l-17 -22q-2 -4 -8 -5t-16 4q-92 72 -198 72q-134 0 -230 -95.5t-96 -228.5q0 -134 95.5 -230.5t228.5 -96.5q107 0 198 72z
M385 885q0 19 13.5 32.5t33.5 13.5t33 -13.5t13 -32.5t-13 -32.5t-33 -13.5t-33.5 13.5t-13.5 32.5z" />
    <glyph glyph-name="cdotaccent" unicode="&#x10b;" horiz-adv-x="511" 
d="M437 386q-68 58 -141 58q-84 0 -143.5 -56t-59.5 -142q0 -89 59 -144.5t144 -56.5q75 0 142 59q9 7 17 -1l17 -25q7 -7 -2 -16q-35 -34 -83.5 -53.5t-93.5 -18.5q-102 2 -178 75.5t-76 180.5q0 106 75 179.5t183 73.5q87 0 174 -72q11 -9 3 -19l-20 -22q-5 -8 -17 0z
M250 634q0 19 13.5 32.5t33.5 13.5q19 0 32.5 -13t13.5 -33t-13.5 -33t-32.5 -13q-20 0 -33.5 13.5t-13.5 32.5z" />
    <glyph glyph-name="Ccaron" unicode="&#x10c;" horiz-adv-x="705" 
d="M625 117q16 12 25 -1l15 -23q7 -12 -6 -22q-98 -82 -232 -82q-158 0 -270.5 112t-112.5 271t112 269.5t271 110.5q131 0 234 -82q13 -10 7 -23l-17 -22q-2 -4 -8 -5t-16 4q-92 72 -198 72q-134 0 -230 -95.5t-96 -228.5q0 -134 95.5 -230.5t228.5 -96.5q107 0 198 72z
M543 956l-114 -113q-6 -6 -11 -6q-6 0 -11 6l-115 114q-11 12 -3 21l20 18q6 7 19 -4l90 -91l90 90q11 11 20 3l18 -17q9 -8 -3 -21z" />
    <glyph glyph-name="ccaron" unicode="&#x10d;" horiz-adv-x="511" 
d="M437 386q-68 58 -141 58q-84 0 -143.5 -56t-59.5 -142q0 -89 59 -144.5t144 -56.5q75 0 142 59q9 7 17 -1l17 -25q7 -7 -2 -16q-35 -34 -83.5 -53.5t-93.5 -18.5q-102 2 -178 75.5t-76 180.5q0 106 75 179.5t183 73.5q87 0 174 -72q11 -9 3 -19l-20 -22q-5 -8 -17 0z
M428 706l-114 -113q-6 -6 -11 -6q-6 0 -11 6l-115 114q-11 12 -3 21l20 18q6 7 19 -4l90 -91l90 90q11 11 20 3l18 -17q9 -8 -3 -21z" />
    <glyph glyph-name="Dcaron" unicode="&#x10e;" horiz-adv-x="745" 
d="M81 17v706q0 19 16 19h236q154 0 262 -108.5t108 -263.5q0 -154 -109.5 -262t-264.5 -108h-232q-16 0 -16 17zM138 56h194q131 0 222.5 93.5t91.5 223.5q0 133 -93 222.5t-224 89.5h-191v-629zM423 956l-114 -113q-6 -6 -11 -6q-6 0 -11 6l-115 114q-11 12 -3 21l20 18
q6 7 19 -4l90 -91l90 90q11 11 20 3l18 -17q9 -8 -3 -21z" />
    <glyph glyph-name="dcaron" unicode="&#x10f;" horiz-adv-x="579" 
d="M513 722v-701q0 -21 -18 -21h-21q-19 0 -19 21v62q-53 -94 -182 -94q-98 0 -166.5 74t-68.5 181t68.5 181.5t166.5 74.5q65 0 111.5 -32t70.5 -84v338q0 20 19 20h21q18 0 18 -20zM459 244q0 82 -54 141t-128 59t-127.5 -59t-53.5 -141t53.5 -141t127.5 -59t128 59
t54 141zM550 703q0 20 14 34t34 14q23 0 35.5 -16t12.5 -41q0 -67 -33 -100q-9 -11 -17 -4l-16 13q-6 5 1 16q1 3 5 9t6 11t2 10v6q-19 3 -31.5 16t-12.5 32z" />
    <glyph glyph-name="Dcroat" unicode="&#x110;" horiz-adv-x="742" 
d="M28 394h227q17 0 17 -16v-19q0 -17 -17 -17h-227q-16 0 -16 17v19q0 16 16 16zM79 17v706q0 19 16 19h236q154 0 262 -108.5t108 -263.5q0 -154 -109.5 -262t-264.5 -108h-232q-16 0 -16 17zM136 56h194q131 0 222.5 93.5t91.5 223.5q0 133 -93 222.5t-224 89.5h-191
v-629z" />
    <glyph glyph-name="dcroat" unicode="&#x111;" horiz-adv-x="579" 
d="M340 623h242q22 0 22 -18v-19q0 -17 -22 -17h-242q-13 0 -18 3t-5 14v19q0 11 5 14.5t18 3.5zM513 722v-701q0 -21 -18 -21h-21q-19 0 -19 21v62q-53 -94 -182 -94q-98 0 -166.5 74t-68.5 181t68.5 181.5t166.5 74.5q65 0 111.5 -32t70.5 -84v338q0 20 19 20h21
q18 0 18 -20zM459 244q0 82 -54 141t-128 59t-127.5 -59t-53.5 -141t53.5 -141t127.5 -59t128 59t54 141z" />
    <glyph glyph-name="Emacron" unicode="&#x112;" horiz-adv-x="642" 
d="M81 16v710q0 16 16 16h486q17 0 17 -14v-27q0 -16 -17 -16h-445v-268h357q19 0 19 -16v-26q0 -16 -19 -16h-357v-302h452q17 0 17 -13v-30q0 -14 -17 -14h-493q-16 0 -16 16zM206 896h296q17 0 17 -16v-19q0 -17 -17 -17h-296q-16 0 -16 17v19q0 16 16 16z" />
    <glyph glyph-name="emacron" unicode="&#x113;" horiz-adv-x="532" 
d="M284 -11q-100 0 -170 75t-70 180q0 106 69.5 181t166.5 75q93 0 161 -72.5t68 -174.5q0 -30 -39 -30h-368q4 -75 56.5 -126t124.5 -53h2q84 0 144 62q15 15 26 2l12 -17q7 -8 6 -14.5t-13 -16.5q-81 -71 -176 -71zM278 443q-65 0 -114 -46.5t-60 -118.5h348
q-9 70 -59 117.5t-115 47.5zM133 645h296q17 0 17 -16v-19q0 -17 -17 -17h-296q-16 0 -16 17v19q0 16 16 16z" />
    <glyph glyph-name="Ebreve" unicode="&#x114;" horiz-adv-x="642" 
d="M81 16v710q0 16 16 16h486q17 0 17 -14v-27q0 -16 -17 -16h-445v-268h357q19 0 19 -16v-26q0 -16 -19 -16h-357v-302h452q17 0 17 -13v-30q0 -14 -17 -14h-493q-16 0 -16 16zM354 866q-45 0 -76 29t-31 68q0 21 13 21h23q12 0 12 -19t16.5 -35t43.5 -16q25 0 42 16.5
t17 35.5q0 18 11 18h29q10 0 10 -20q0 -39 -32.5 -69t-77.5 -29z" />
    <glyph glyph-name="ebreve" unicode="&#x115;" horiz-adv-x="532" 
d="M284 -11q-100 0 -170 75t-70 180q0 106 69.5 181t166.5 75q93 0 161 -72.5t68 -174.5q0 -30 -39 -30h-368q4 -75 56.5 -126t124.5 -53h2q84 0 144 62q15 15 26 2l12 -17q7 -8 6 -14.5t-13 -16.5q-81 -71 -176 -71zM278 443q-65 0 -114 -46.5t-60 -118.5h348
q-9 70 -59 117.5t-115 47.5zM291 605q-45 0 -76 29t-31 68q0 21 13 21h23q12 0 12 -19t16.5 -35t43.5 -16q25 0 42 16.5t17 35.5q0 18 11 18h29q10 0 10 -20q0 -39 -32.5 -69t-77.5 -29z" />
    <glyph glyph-name="Edotaccent" unicode="&#x116;" horiz-adv-x="642" 
d="M81 16v710q0 16 16 16h486q17 0 17 -14v-27q0 -16 -17 -16h-445v-268h357q19 0 19 -16v-26q0 -16 -19 -16h-357v-302h452q17 0 17 -13v-30q0 -14 -17 -14h-493q-16 0 -16 16zM315 885q0 19 13.5 32.5t33.5 13.5t33 -13.5t13 -32.5t-13 -32.5t-33 -13.5t-33.5 13.5
t-13.5 32.5z" />
    <glyph glyph-name="edotaccent" unicode="&#x117;" horiz-adv-x="532" 
d="M284 -11q-100 0 -170 75t-70 180q0 106 69.5 181t166.5 75q93 0 161 -72.5t68 -174.5q0 -30 -39 -30h-368q4 -75 56.5 -126t124.5 -53h2q84 0 144 62q15 15 26 2l12 -17q7 -8 6 -14.5t-13 -16.5q-81 -71 -176 -71zM278 443q-65 0 -114 -46.5t-60 -118.5h348
q-9 70 -59 117.5t-115 47.5zM244 634q0 19 13.5 32.5t33.5 13.5q19 0 32.5 -13t13.5 -33t-13.5 -33t-32.5 -13q-20 0 -33.5 13.5t-13.5 32.5z" />
    <glyph glyph-name="Eogonek" unicode="&#x118;" horiz-adv-x="642" 
d="M81 16v710q0 16 16 16h486q17 0 17 -14v-27q0 -16 -17 -16h-445v-268h357q19 0 19 -16v-26q0 -16 -19 -16h-357v-302h452q17 0 17 -13v-30q0 -14 -17 -14h-493q-16 0 -16 16zM606 26v-78q0 -17 -4 -22.5t-20 -12.5q-30 -11 -44 -23.5t-14 -32.5q0 -18 20.5 -32.5
t45.5 -21.5q17 -5 11 -19l-8 -20q-2 -5 -5.5 -6.5t-5.5 -1.5t-8 2l-6 2q-45 15 -70 40t-25 54q0 67 71 91q9 3 11 9.5t3 26.5l1 45h47z" />
    <glyph glyph-name="eogonek" unicode="&#x119;" horiz-adv-x="532" 
d="M284 -11q-100 0 -170 75t-70 180q0 106 69.5 181t166.5 75q93 0 161 -72.5t68 -174.5q0 -30 -39 -30h-368q4 -75 56.5 -126t124.5 -53h2q84 0 144 62q15 15 26 2l12 -17q7 -8 6 -14.5t-13 -16.5q-81 -71 -176 -71zM278 443q-65 0 -114 -46.5t-60 -118.5h348
q-9 70 -59 117.5t-115 47.5zM299 21v-78q0 -17 -4 -22.5t-20 -12.5q-30 -11 -44 -23.5t-14 -32.5q0 -18 20.5 -32.5t45.5 -21.5q17 -5 11 -19l-8 -20q-2 -5 -5.5 -6.5t-5.5 -1.5t-8 2l-6 2q-45 15 -70 40t-25 54q0 67 71 91q9 3 11 9.5t3 26.5l1 45h47z" />
    <glyph glyph-name="Ecaron" unicode="&#x11a;" horiz-adv-x="642" 
d="M81 16v710q0 16 16 16h486q17 0 17 -14v-27q0 -16 -17 -16h-445v-268h357q19 0 19 -16v-26q0 -16 -19 -16h-357v-302h452q17 0 17 -13v-30q0 -14 -17 -14h-493q-16 0 -16 16zM483 956l-114 -113q-6 -6 -11 -6q-6 0 -11 6l-115 114q-11 12 -3 21l20 18q6 7 19 -4l90 -91
l90 90q11 11 20 3l18 -17q9 -8 -3 -21z" />
    <glyph glyph-name="ecaron" unicode="&#x11b;" horiz-adv-x="532" 
d="M284 -11q-100 0 -170 75t-70 180q0 106 69.5 181t166.5 75q93 0 161 -72.5t68 -174.5q0 -30 -39 -30h-368q4 -75 56.5 -126t124.5 -53h2q84 0 144 62q15 15 26 2l12 -17q7 -8 6 -14.5t-13 -16.5q-81 -71 -176 -71zM278 443q-65 0 -114 -46.5t-60 -118.5h348
q-9 70 -59 117.5t-115 47.5zM413 705l-114 -113q-6 -6 -11 -6q-6 0 -11 6l-115 114q-11 12 -3 21l20 18q6 7 19 -4l90 -91l90 90q11 11 20 3l18 -17q9 -8 -3 -21z" />
    <glyph glyph-name="Gcircumflex" unicode="&#x11c;" horiz-adv-x="726" 
d="M426 48q50 0 101.5 17.5t83.5 43.5v202q0 17 17 17h26q16 0 16 -17v-219q0 -13 -8 -18q-107 -83 -235 -83q-162 -1 -272.5 110t-110.5 270t111.5 269.5t270.5 110.5q129 0 233 -83q15 -12 5 -22l-16 -22q-11 -11 -24 -2q-95 71 -197 71q-135 0 -230 -94t-95 -228
q0 -133 95.5 -228.5t228.5 -94.5zM286 891l114 112q11 14 24 1l114 -113q12 -11 1 -22l-15 -14q-10 -11 -23 2l-89 88l-90 -90q-11 -11 -23 -1l-15 16q-9 10 2 21z" />
    <glyph glyph-name="gcircumflex" unicode="&#x11d;" horiz-adv-x="550" 
d="M344 491h140q20 0 20 -20v-13q0 -21 -20 -21h-77q58 -49 58 -124q0 -80 -56 -137.5t-137 -57.5q-34 0 -64 12q-58 -4 -58 -42q0 -19 18 -30.5t42 -11.5h191q46 0 82.5 -30t36.5 -77q0 -70 -70.5 -109t-179.5 -39q-58 0 -119 20t-61 42q0 7 3 10q3 7 11 16.5t13 9.5
q7 0 11 -3q70 -39 151 -39q76 0 127.5 25t51.5 64q0 22 -18.5 39.5t-43.5 17.5h-1h-202q-44 2 -72.5 28t-28.5 66q0 56 59 78q-32 24 -52 64.5t-20 83.5q0 80 56 136t137 56q36 0 72 -14zM133 313q0 -58 40.5 -100t98.5 -42t97.5 42t39.5 100q0 57 -40.5 97.5t-96.5 40.5
q-58 0 -98.5 -40.5t-40.5 -97.5zM148 640l114 112q11 14 24 1l114 -113q12 -12 1 -22l-15 -14q-10 -11 -23 2l-89 88l-90 -90q-11 -11 -23 -1l-15 16q-9 10 2 21z" />
    <glyph glyph-name="Gbreve" unicode="&#x11e;" horiz-adv-x="726" 
d="M426 48q50 0 101.5 17.5t83.5 43.5v202q0 17 17 17h26q16 0 16 -17v-219q0 -13 -8 -18q-107 -83 -235 -83q-162 -1 -272.5 110t-110.5 270t111.5 269.5t270.5 110.5q129 0 233 -83q15 -12 5 -22l-16 -22q-11 -11 -24 -2q-95 71 -197 71q-135 0 -230 -94t-95 -228
q0 -133 95.5 -228.5t228.5 -94.5zM426 866q-45 0 -76 29t-31 68q0 21 13 21h23q12 0 12 -19t16.5 -35t43.5 -16q25 0 42 16.5t17 35.5q0 18 11 18h29q10 0 10 -20q0 -39 -32.5 -69t-77.5 -29z" />
    <glyph glyph-name="gbreve" unicode="&#x11f;" horiz-adv-x="550" 
d="M344 491h140q20 0 20 -20v-13q0 -21 -20 -21h-77q58 -49 58 -124q0 -80 -56 -137.5t-137 -57.5q-34 0 -64 12q-58 -4 -58 -42q0 -19 18 -30.5t42 -11.5h191q46 0 82.5 -30t36.5 -77q0 -70 -70.5 -109t-179.5 -39q-58 0 -119 20t-61 42q0 7 3 10q3 7 11 16.5t13 9.5
q7 0 11 -3q70 -39 151 -39q76 0 127.5 25t51.5 64q0 22 -18.5 39.5t-43.5 17.5h-1h-202q-44 2 -72.5 28t-28.5 66q0 56 59 78q-32 24 -52 64.5t-20 83.5q0 80 56 136t137 56q36 0 72 -14zM133 313q0 -58 40.5 -100t98.5 -42t97.5 42t39.5 100q0 57 -40.5 97.5t-96.5 40.5
q-58 0 -98.5 -40.5t-40.5 -97.5zM276 615q-45 0 -76 29t-31 68q0 21 13 21h23q12 0 12 -19t16.5 -35t43.5 -16q25 0 42 16.5t17 35.5q0 18 11 18h29q10 0 10 -20q0 -39 -32.5 -69t-77.5 -29z" />
    <glyph glyph-name="Gdotaccent" unicode="&#x120;" horiz-adv-x="726" 
d="M426 48q50 0 101.5 17.5t83.5 43.5v202q0 17 17 17h26q16 0 16 -17v-219q0 -13 -8 -18q-107 -83 -235 -83q-162 -1 -272.5 110t-110.5 270t111.5 269.5t270.5 110.5q129 0 233 -83q15 -12 5 -22l-16 -22q-11 -11 -24 -2q-95 71 -197 71q-135 0 -230 -94t-95 -228
q0 -133 95.5 -228.5t228.5 -94.5zM383 885q0 19 13.5 32.5t33.5 13.5t33 -13.5t13 -32.5t-13 -32.5t-33 -13.5t-33.5 13.5t-13.5 32.5z" />
    <glyph glyph-name="gdotaccent" unicode="&#x121;" horiz-adv-x="550" 
d="M344 491h140q20 0 20 -20v-13q0 -21 -20 -21h-77q58 -49 58 -124q0 -80 -56 -137.5t-137 -57.5q-34 0 -64 12q-58 -4 -58 -42q0 -19 18 -30.5t42 -11.5h191q46 0 82.5 -30t36.5 -77q0 -70 -70.5 -109t-179.5 -39q-58 0 -119 20t-61 42q0 7 3 10q3 7 11 16.5t13 9.5
q7 0 11 -3q70 -39 151 -39q76 0 127.5 25t51.5 64q0 22 -18.5 39.5t-43.5 17.5h-1h-202q-44 2 -72.5 28t-28.5 66q0 56 59 78q-32 24 -52 64.5t-20 83.5q0 80 56 136t137 56q36 0 72 -14zM133 313q0 -58 40.5 -100t98.5 -42t97.5 42t39.5 100q0 57 -40.5 97.5t-96.5 40.5
q-58 0 -98.5 -40.5t-40.5 -97.5zM244 634q0 19 13.5 32.5t33.5 13.5q19 0 32.5 -13t13.5 -33t-13.5 -33t-32.5 -13q-20 0 -33.5 13.5t-13.5 32.5z" />
    <glyph glyph-name="Gcommaaccent" unicode="&#x122;" horiz-adv-x="726" 
d="M426 48q50 0 101.5 17.5t83.5 43.5v202q0 17 17 17h26q16 0 16 -17v-219q0 -13 -8 -18q-107 -83 -235 -83q-162 -1 -272.5 110t-110.5 270t111.5 269.5t270.5 110.5q129 0 233 -83q15 -12 5 -22l-16 -22q-11 -11 -24 -2q-95 71 -197 71q-135 0 -230 -94t-95 -228
q0 -133 95.5 -228.5t228.5 -94.5zM382 -110q0 20 14 33.5t33 13.5q23 0 35 -15.5t12 -40.5q0 -66 -32 -98q-9 -9 -17 -3l-15 12q-4 4 0 16q13 20 13 29v6q-19 3 -31 16t-12 31z" />
    <glyph glyph-name="gcommaaccent" unicode="&#x123;" horiz-adv-x="550" 
d="M344 491h140q20 0 20 -20v-13q0 -21 -20 -21h-77q58 -49 58 -124q0 -80 -56 -137.5t-137 -57.5q-34 0 -64 12q-58 -4 -58 -42q0 -19 18 -30.5t42 -11.5h191q46 0 82.5 -30t36.5 -77q0 -70 -70.5 -109t-179.5 -39q-58 0 -119 20t-61 42q0 7 3 10q3 7 11 16.5t13 9.5
q7 0 11 -3q70 -39 151 -39q76 0 127.5 25t51.5 64q0 22 -18.5 39.5t-43.5 17.5h-1h-202q-44 2 -72.5 28t-28.5 66q0 56 59 78q-32 24 -52 64.5t-20 83.5q0 80 56 136t137 56q36 0 72 -14zM133 313q0 -58 40.5 -100t98.5 -42t97.5 42t39.5 100q0 57 -40.5 97.5t-96.5 40.5
q-58 0 -98.5 -40.5t-40.5 -97.5zM335 638q0 -20 -14 -34t-34 -14q-23 0 -35.5 16t-12.5 41q0 67 33 100q9 11 17 4l16 -13q6 -5 -1 -16q-1 -3 -5 -9t-6 -11t-2 -10v-6q19 -3 31.5 -16t12.5 -32z" />
    <glyph glyph-name="Hcircumflex" unicode="&#x124;" horiz-adv-x="771" 
d="M626 17v334h-488v-334q0 -17 -15 -17h-26q-16 0 -16 17v707q0 18 16 18h26q15 0 15 -17v-317h488v316q0 18 16 18h26q16 0 16 -17v-708q0 -17 -17 -17h-25q-16 0 -16 17zM247 891l114 112q11 14 24 1l114 -113q11 -11 1 -22l-15 -14q-10 -11 -23 2l-89 88l-90 -90
q-11 -11 -23 -1l-15 16q-9 10 2 21z" />
    <glyph glyph-name="hcircumflex" unicode="&#x125;" horiz-adv-x="566" 
d="M438 18v277q0 61 -39 104t-100 43q-62 0 -111.5 -42.5t-49.5 -101.5v-280q0 -18 -18 -18h-21q-18 0 -18 18v705q0 19 16 19h24q17 0 17 -19v-306q25 37 69.5 60t93.5 23q88 0 141 -62t53 -154v-266q0 -18 -17 -18h-23q-17 0 -17 18zM169 811l114 112q11 14 24 1l114 -113
q11 -11 1 -22l-15 -14q-10 -11 -23 2l-89 88l-90 -90q-11 -11 -23 -1l-15 16q-9 10 2 21z" />
    <glyph glyph-name="Hbar" unicode="&#x126;" horiz-adv-x="773" 
d="M129 570h517q17 0 17 -16v-19q0 -17 -17 -17h-517q-17 0 -17 17v19q0 16 17 16zM626 17v334h-488v-334q0 -17 -15 -17h-26q-16 0 -16 17v707q0 18 16 18h26q15 0 15 -17v-317h488v316q0 18 16 18h26q16 0 16 -17v-708q0 -17 -17 -17h-25q-16 0 -16 17z" />
    <glyph glyph-name="hbar" unicode="&#x127;" horiz-adv-x="565" 
d="M-1 657h256q17 0 17 -16v-16q0 -17 -17 -17h-256q-17 0 -17 17v16q0 16 17 16zM437 18v277q0 61 -39 104t-100 43q-62 0 -111.5 -42.5t-49.5 -101.5v-280q0 -18 -18 -18h-21q-18 0 -18 18v705q0 19 16 19h24q17 0 17 -19v-306q25 37 69.5 60t93.5 23q88 0 141 -62
t53 -154v-266q0 -18 -17 -18h-23q-17 0 -17 18z" />
    <glyph glyph-name="Itilde" unicode="&#x128;" horiz-adv-x="218" 
d="M80 18v706q0 18 19 18h20q19 0 19 -18v-706q0 -18 -19 -18h-20q-19 0 -19 18zM2 855q-12 -15 -26 -1l-7 7q-11 10 1 24q39 48 83 48q22 0 60 -22.5t55 -22.5q18 0 46 30q13 17 27 7l9 -10q11 -10 0 -23q-37 -51 -86 -51q-22 0 -58 23t-53 23q-12 0 -22 -5.5t-13.5 -9
t-15.5 -17.5z" />
    <glyph glyph-name="itilde" unicode="&#x129;" horiz-adv-x="217" 
d="M80 18v453q0 19 19 19h20q19 0 19 -19v-453q0 -18 -18 -18h-21q-19 0 -19 18zM2 604q-12 -15 -26 -1l-7 7q-11 10 1 24q39 48 83 48q22 0 60 -22.5t55 -22.5q18 0 46 30q13 17 27 7l9 -10q11 -10 0 -23q-37 -51 -86 -51q-22 0 -58 23t-53 23q-12 0 -22 -5.5t-13.5 -9
t-15.5 -17.5z" />
    <glyph glyph-name="Imacron" unicode="&#x12a;" horiz-adv-x="218" 
d="M80 18v706q0 18 19 18h20q19 0 19 -18v-706q0 -18 -19 -18h-20q-19 0 -19 18zM-39 896h296q17 0 17 -16v-19q0 -17 -17 -17h-296q-16 0 -16 17v19q0 16 16 16z" />
    <glyph glyph-name="imacron" unicode="&#x12b;" horiz-adv-x="217" 
d="M80 18v453q0 19 19 19h20q19 0 19 -19v-453q0 -18 -18 -18h-21q-19 0 -19 18zM-42 645h296q17 0 17 -16v-19q0 -17 -17 -17h-296q-16 0 -16 17v19q0 16 16 16z" />
    <glyph glyph-name="Ibreve" unicode="&#x12c;" horiz-adv-x="218" 
d="M80 18v706q0 18 19 18h20q19 0 19 -18v-706q0 -18 -19 -18h-20q-19 0 -19 18zM107 866q-45 0 -76 29t-31 68q0 21 13 21h23q12 0 12 -19t16.5 -35t43.5 -16q25 0 42 16.5t17 35.5q0 18 11 18h29q10 0 10 -20q0 -39 -32.5 -69t-77.5 -29z" />
    <glyph glyph-name="ibreve" unicode="&#x12d;" horiz-adv-x="217" 
d="M80 18v453q0 19 19 19h20q19 0 19 -19v-453q0 -18 -18 -18h-21q-19 0 -19 18zM105 615q-45 0 -76 29t-31 68q0 21 13 21h23q12 0 12 -19t16.5 -35t43.5 -16q25 0 42 16.5t17 35.5q0 18 11 18h29q10 0 10 -20q0 -39 -32.5 -69t-77.5 -29z" />
    <glyph glyph-name="Iogonek" unicode="&#x12e;" horiz-adv-x="218" 
d="M80 18v706q0 18 19 18h20q19 0 19 -18v-706q0 -18 -19 -18h-20q-19 0 -19 18zM132 26v-78q0 -17 -4 -22.5t-20 -12.5q-30 -11 -44 -23.5t-14 -32.5q0 -18 20.5 -32.5t45.5 -21.5q17 -5 11 -19l-8 -20q-2 -5 -5.5 -6.5t-5.5 -1.5t-8 2l-6 2q-45 15 -70 40t-25 54
q0 67 71 91q9 3 11 9.5t3 26.5l1 45h47z" />
    <glyph glyph-name="iogonek" unicode="&#x12f;" horiz-adv-x="217" 
d="M80 18v453q0 18 19 18h20q19 0 19 -18v-453q0 -18 -19 -18h-20q-19 0 -19 18zM62 632q0 19 13.5 33t32.5 14q20 0 33.5 -13.5t13.5 -33.5q0 -19 -14 -32.5t-33 -13.5t-32.5 13.5t-13.5 32.5zM132 26v-78q0 -17 -4 -22.5t-20 -12.5q-30 -11 -44 -23.5t-14 -32.5
q0 -18 20.5 -32.5t45.5 -21.5q17 -5 11 -19l-8 -20q-2 -5 -5.5 -6.5t-5.5 -1.5t-8 2l-6 2q-45 15 -70 40t-25 54q0 67 71 91q9 3 11 9.5t3 26.5l1 45h47z" />
    <glyph glyph-name="Idotaccent" unicode="&#x130;" horiz-adv-x="218" 
d="M80 18v706q0 18 19 18h20q19 0 19 -18v-706q0 -18 -19 -18h-20q-19 0 -19 18zM62 885q0 19 13.5 32.5t33.5 13.5q19 0 32.5 -13.5t13.5 -32.5t-13.5 -32.5t-32.5 -13.5q-20 0 -33.5 13.5t-13.5 32.5z" />
    <glyph glyph-name="dotlessi" unicode="&#x131;" horiz-adv-x="217" 
d="M80 18v453q0 19 19 19h20q19 0 19 -19v-453q0 -18 -18 -18h-21q-19 0 -19 18z" />
    <glyph glyph-name="IJ" unicode="&#x132;" horiz-adv-x="438" 
d="M80 18v706q0 18 19 18h21q18 0 18 -18v-706q0 -18 -18 -18h-21q-19 0 -19 18zM300 -16v740q0 18 15 18h26q16 0 16 -19v-672q0 -53 -1 -79q-4 -70 -50 -116.5t-118 -46.5q-75 0 -123 48q-21 18 -9 29l20 21q10 11 25 -4q37 -37 84 -37q52 0 83.5 35.5t31.5 82.5z" />
    <glyph glyph-name="ij" unicode="&#x133;" horiz-adv-x="403" 
d="M82 18v453q0 18 19 18h20q19 0 19 -18v-453q0 -18 -19 -18h-20q-19 0 -19 18zM64 632q0 19 13.5 33t32.5 14q20 0 33.5 -13.5t13.5 -33.5q0 -19 -14 -32.5t-33 -13.5t-32.5 13.5t-13.5 32.5zM280 -22v491q0 20 18 20h22q18 0 18 -20v-492q0 -64 -44 -109.5t-107 -45.5
q-23 0 -23 15v24q0 17 21 17h1q41 1 67.5 30t26.5 70zM262 632q0 20 14 33.5t33 13.5t32.5 -13.5t13.5 -33.5q0 -19 -13.5 -32.5t-32.5 -13.5t-33 13.5t-14 32.5z" />
    <glyph glyph-name="Jcircumflex" unicode="&#x134;" horiz-adv-x="400" 
d="M256 166v559q0 18 15 18h26q16 0 16 -19v-491q0 -53 -1 -79q-3 -70 -49 -116.5t-118 -46.5q-76 0 -124 48q-19 19 -9 29l21 21q10 10 24 -4q40 -37 84 -37q53 0 84 35.5t31 82.5zM154 890l114 112q11 14 24 1l114 -113q12 -12 1 -22l-15 -14q-10 -11 -23 2l-89 88
l-90 -90q-11 -11 -23 -1l-15 16q-9 10 2 21z" />
    <glyph glyph-name="jcircumflex" unicode="&#x135;" horiz-adv-x="213" 
d="M61 -22v493q0 20 21 20h17q9 0 15.5 -7.5t6.5 -16.5l-2 -490q-1 -64 -44 -109.5t-106 -45.5q-24 0 -24 20v16q0 20 21 20h2q41 1 67 30t26 70zM-49 640l114 112q11 14 24 1l114 -113q11 -12 1 -22l-15 -14q-10 -11 -23 2l-89 88l-90 -90q-11 -11 -23 -1l-15 16
q-9 10 2 21z" />
    <glyph glyph-name="Kcommaaccent" unicode="&#x136;" horiz-adv-x="734" 
d="M612 719l-269 -285l348 -412q6 -8 2.5 -15t-12.5 -7h-41q-9 0 -20 12l-315 381l-164 -174v-202q0 -17 -15 -17h-27q-16 0 -16 17v708q0 17 16 17h26q16 0 16 -17v-421l402 427q10 11 20 11h40q9 0 12.5 -8t-3.5 -15zM308 -160q0 20 14 33.5t33 13.5q23 0 35 -15.5
t12 -40.5q0 -66 -32 -98q-9 -9 -17 -3l-15 12q-4 4 0 16q13 20 13 29v6q-19 3 -31 16t-12 31z" />
    <glyph glyph-name="kcommaaccent" unicode="&#x137;" horiz-adv-x="523" 
d="M138 269l217 211q9 9 23 9h38q10 0 12 -7.5t-5 -13.5l-161 -155l246 -289q8 -10 4.5 -17t-13.5 -7h-37q-10 0 -22 14l-219 258l-83 -80v-174q0 -18 -19 -18h-20q-18 0 -18 18v705q0 19 16 19h25q16 0 16 -19v-454zM217 -160q0 20 13.5 33.5t33.5 13.5q23 0 35 -15.5
t12 -40.5q0 -66 -32 -98q-9 -9 -17 -3l-15 12q-4 4 0 16q13 20 13 29v6q-19 3 -31 16t-12 31z" />
    <glyph glyph-name="kgreenlandic" unicode="&#x138;" horiz-adv-x="523" 
d="M138 269l217 211q9 9 23 9h38q10 0 12 -7.5t-5 -13.5l-161 -155l246 -289q8 -10 4.5 -17t-13.5 -7h-37q-10 0 -22 14l-219 258l-83 -80v-174q0 -18 -19 -18h-20q-18 0 -18 18v452q0 19 16 19h25q16 0 16 -19v-201z" />
    <glyph glyph-name="Lacute" unicode="&#x139;" horiz-adv-x="574" 
d="M81 16v709q0 17 15 17h27q15 0 15 -17v-668h397q18 0 18 -15v-26q0 -16 -18 -16h-439q-15 0 -15 16zM201 974l-55 -122q-6 -13 -17 -13h-30q-17 0 -6 19l52 122q6 13 17 13h33q15 0 6 -19z" />
    <glyph glyph-name="lacute" unicode="&#x13a;" horiz-adv-x="217" 
d="M80 18v706q0 18 19 18h21q18 0 18 -18l-1 -706q0 -18 -18 -18h-21q-18 0 -18 18zM195 942l-55 -122q-6 -13 -17 -13h-30q-17 0 -6 19l52 122q6 13 17 13h33q15 0 6 -19z" />
    <glyph glyph-name="Lcommaaccent" unicode="&#x13b;" horiz-adv-x="574" 
d="M81 16v709q0 17 15 17h27q15 0 15 -17v-668h397q18 0 18 -15v-26q0 -16 -18 -16h-439q-15 0 -15 16zM238 -160q0 20 14 33.5t33 13.5q23 0 35 -15.5t12 -40.5q0 -66 -32 -98q-9 -9 -17 -3l-15 12q-4 4 0 16q13 20 13 29v6q-19 3 -31 16t-12 31z" />
    <glyph glyph-name="lcommaaccent" unicode="&#x13c;" horiz-adv-x="217" 
d="M80 18v706q0 18 19 18h21q18 0 18 -18l-1 -706q0 -18 -18 -18h-21q-18 0 -18 18zM60 -160q0 20 14 33.5t33 13.5q23 0 35 -15.5t12 -40.5q0 -66 -32 -98q-9 -9 -17 -3l-15 12q-4 4 0 16q13 20 13 29v6q-19 3 -31 16t-12 31z" />
    <glyph glyph-name="Lcaron" unicode="&#x13d;" horiz-adv-x="574" 
d="M81 16v709q0 17 15 17h27q15 0 15 -17v-668h397q18 0 18 -15v-26q0 -16 -18 -16h-439q-15 0 -15 16zM279 711q0 19 13.5 33t33.5 14q23 0 35 -15.5t12 -40.5q0 -66 -32 -98q-9 -9 -17 -3l-15 12q-4 4 0 16q13 19 13 29v6q-19 3 -31 16t-12 31z" />
    <glyph glyph-name="lcaron" unicode="&#x13e;" horiz-adv-x="275" 
d="M79 18v706q0 19 19 19h21q18 0 18 -19v-706q0 -18 -18 -18h-21q-19 0 -19 18zM276 697q0 -30 -8.5 -53t-17.5 -32.5t-17 -9.5q-3 0 -6 3l-4 3q-11 4 -11 13q0 3 8 14t8 24v7q-37 9 -37 43q0 17 12.5 29.5t29.5 12.5q21 0 32 -15t11 -39z" />
    <glyph glyph-name="Ldot" unicode="&#x13f;" horiz-adv-x="574" 
d="M81 16v709q0 17 15 17h27q15 0 15 -17v-668h397q18 0 18 -15v-26q0 -16 -18 -16h-439q-15 0 -15 16zM323 368q0 19 13.5 32.5t32.5 13.5q20 0 33.5 -13.5t13.5 -32.5t-13.5 -32.5t-33.5 -13.5q-19 0 -32.5 13.5t-13.5 32.5z" />
    <glyph glyph-name="ldot" unicode="&#x140;" horiz-adv-x="232" 
d="M80 18v706q0 18 19 18h21q18 0 18 -18l-1 -706q0 -18 -18 -18h-21q-18 0 -18 18zM170 342q0 19 13.5 32.5t32.5 13.5q20 0 33.5 -13.5t13.5 -32.5t-13.5 -32.5t-33.5 -13.5q-19 0 -32.5 13.5t-13.5 32.5z" />
    <glyph glyph-name="Lslash" unicode="&#x141;" horiz-adv-x="574" 
d="M129 342l-3 52l148 54q6 2 7 2q9 0 12 -10l6 -17q2 -4 2 -7q0 -11 -11 -14zM89 380l-3 -54l-82 -30q-2 -1 -6 -1q-10 0 -14 11l-6 16q-1 3 -1 7q0 9 11 13q21 8 101 38zM81 16v709q0 17 15 17h27q15 0 15 -17v-668h397q18 0 18 -15v-26q0 -16 -18 -16h-439q-15 0 -15 16z
" />
    <glyph glyph-name="lslash" unicode="&#x142;" horiz-adv-x="217" 
d="M79 412v312q0 19 19 19h21q18 0 18 -19v-291q14 5 52 19t58 22q3 1 7 1q9 0 13 -10l6 -16q1 -3 1 -7q0 -9 -11 -14q-21 -8 -63 -23.5t-63 -23.5v-363q0 -18 -18 -18h-21q-19 0 -19 18v342q-68 -26 -102 -38q-4 -2 -7 -2q-8 0 -13 11l-6 17q-1 2 -1 7q0 9 11 13z" />
    <glyph glyph-name="Nacute" unicode="&#x143;" horiz-adv-x="771" 
d="M643 103v623q0 17 17 17h24q17 0 17 -16v-713q0 -14 -16 -14h-26q-10 0 -18 10l-503 636v-628q0 -18 -18 -18h-21q-18 0 -18 18v706q0 18 16 18h32q6 0 9 -5zM498 974l-55 -122q-7 -13 -17 -13h-30q-17 0 -6 19l52 122q6 13 17 13h33q15 0 6 -19z" />
    <glyph glyph-name="nacute" unicode="&#x144;" horiz-adv-x="566" 
d="M138 299v-281q0 -18 -15 -18h-26q-16 0 -16 18v458q0 13 15 13h28q13 0 13 -14l2 -62q26 38 68.5 62.5t90.5 24.5q87 0 144.5 -61t57.5 -155v-264q0 -20 -16 -20h-26q-10 0 -13 4t-3 15v276q0 61 -44 104.5t-106 43.5q-61 0 -107.5 -42t-46.5 -102zM376 723l-55 -122
q-7 -13 -17 -13h-30q-17 0 -6 19l52 122q6 13 17 13h33q15 0 6 -19z" />
    <glyph glyph-name="Ncommaaccent" unicode="&#x145;" horiz-adv-x="771" 
d="M643 103v623q0 17 17 17h24q17 0 17 -16v-713q0 -14 -16 -14h-26q-10 0 -18 10l-503 636v-628q0 -18 -18 -18h-21q-18 0 -18 18v706q0 18 16 18h32q6 0 9 -5zM341 -160q0 20 13.5 33.5t33.5 13.5q23 0 35 -15.5t12 -40.5q0 -66 -32 -98q-9 -9 -17 -3l-15 12q-4 4 0 16
q13 20 13 29v6q-19 3 -31 16t-12 31z" />
    <glyph glyph-name="ncommaaccent" unicode="&#x146;" horiz-adv-x="568" 
d="M138 299v-281q0 -18 -15 -18h-26q-16 0 -16 18v458q0 13 15 13h28q13 0 13 -14l2 -62q26 38 68.5 62.5t90.5 24.5q87 0 144.5 -61t57.5 -155v-264q0 -20 -16 -20h-26q-10 0 -13 4t-3 15v276q0 61 -44 104.5t-106 43.5q-61 0 -107.5 -42t-46.5 -102zM232 -160
q0 20 14 33.5t33 13.5q23 0 35 -15.5t12 -40.5q0 -66 -32 -98q-9 -9 -17 -3l-15 12q-4 4 0 16q13 20 13 29v6q-19 3 -31 16t-12 31z" />
    <glyph glyph-name="Ncaron" unicode="&#x147;" horiz-adv-x="771" 
d="M643 103v623q0 17 17 17h24q17 0 17 -16v-713q0 -14 -16 -14h-26q-10 0 -18 10l-503 636v-628q0 -18 -18 -18h-21q-18 0 -18 18v706q0 18 16 18h32q6 0 9 -5zM502 956l-114 -113q-6 -6 -11 -6q-6 0 -11 6l-115 114q-11 12 -3 21l20 18q6 7 19 -4l90 -91l90 90q11 11 20 3
l18 -17q9 -8 -3 -21z" />
    <glyph glyph-name="ncaron" unicode="&#x148;" horiz-adv-x="566" 
d="M138 299v-281q0 -18 -15 -18h-26q-16 0 -16 18v458q0 13 15 13h28q13 0 13 -14l2 -62q26 38 68.5 62.5t90.5 24.5q87 0 144.5 -61t57.5 -155v-264q0 -20 -16 -20h-26q-10 0 -13 4t-3 15v276q0 61 -44 104.5t-106 43.5q-61 0 -107.5 -42t-46.5 -102zM408 705l-114 -113
q-6 -6 -11 -6q-6 0 -11 6l-115 114q-11 12 -3 21l20 18q6 7 19 -4l90 -91l90 90q11 11 20 3l18 -17q9 -8 -3 -21z" />
    <glyph glyph-name="napostrophe" unicode="&#x149;" horiz-adv-x="577" 
d="M149 299v-281q0 -18 -15 -18h-26q-16 0 -16 18v458q0 13 15 13h28q13 0 13 -14l2 -62q26 38 68.5 62.5t90.5 24.5q87 0 144.5 -61t57.5 -155v-264q0 -20 -16 -20h-26q-10 0 -13 4t-3 15v276q0 61 -44 104.5t-106 43.5q-61 0 -107.5 -42t-46.5 -102zM-37 697q0 19 13.5 33
t33.5 14q23 0 35 -15.5t12 -40.5q0 -66 -32 -98q-9 -9 -17 -3l-15 12q-4 4 0 16q13 19 13 29v6q-19 3 -31 16t-12 31z" />
    <glyph glyph-name="Eng" unicode="&#x14a;" horiz-adv-x="771" 
d="M643 21h58v-114q0 -73 -51.5 -121t-122.5 -48q-88 0 -130 52q-6 0 -6 11q0 5 7 12l16 17q5 5 12 5q4 0 13 -7q34 -34 87 -34q50 0 82.5 34t34.5 80v113zM643 103v623q0 17 17 17h24q17 0 17 -16v-711q0 -16 -19 -16h-23q-11 0 -17 8l-504 638v-628q0 -18 -18 -18h-21
q-18 0 -18 18v706q0 18 16 18h32q6 0 9 -5z" />
    <glyph glyph-name="eng" unicode="&#x14b;" horiz-adv-x="591" 
d="M440 -63v335q0 24 -3 46q-8 53 -50.5 88.5t-97.5 35.5q-60 0 -103 -41t-46 -102v-282q0 -17 -19 -17h-23q-17 0 -17 17v454q0 18 17 18h23q19 0 19 -18v-65q65 94 158 94q85 0 142 -60t57 -147v-357q0 -69 -48.5 -115.5t-115.5 -46.5h-1q-22 0 -22 23v12q0 22 23 22
q44 0 74.5 32.5t32.5 73.5z" />
    <glyph glyph-name="Omacron" unicode="&#x14c;" horiz-adv-x="853" 
d="M44 370q0 158 111.5 270t269.5 112q157 0 268.5 -112t111.5 -270q0 -157 -111.5 -268.5t-269.5 -111.5t-269 111t-111 269zM102 371q0 -134 94.5 -228t228.5 -94q133 0 227.5 94.5t94.5 227.5t-94.5 227.5t-227.5 94.5q-134 0 -228.5 -94.5t-94.5 -227.5zM275 896h296
q17 0 17 -16v-19q0 -17 -17 -17h-296q-16 0 -16 17v19q0 16 16 16z" />
    <glyph glyph-name="omacron" unicode="&#x14d;" horiz-adv-x="583" 
d="M44 244q0 107 71 181.5t176 74.5q106 0 177 -74.5t71 -181.5t-71 -181.5t-177 -74.5q-105 0 -176 74.5t-71 181.5zM101 244q0 -83 55 -141.5t136 -58.5t136 58.5t55 141.5t-55 141.5t-136 58.5t-136 -58.5t-55 -141.5zM144 645h296q17 0 17 -16v-19q0 -17 -17 -17h-296
q-16 0 -16 17v19q0 16 16 16z" />
    <glyph glyph-name="Obreve" unicode="&#x14e;" horiz-adv-x="853" 
d="M44 370q0 158 111.5 270t269.5 112q157 0 268.5 -112t111.5 -270q0 -157 -111.5 -268.5t-269.5 -111.5t-269 111t-111 269zM102 371q0 -134 94.5 -228t228.5 -94q133 0 227.5 94.5t94.5 227.5t-94.5 227.5t-227.5 94.5q-134 0 -228.5 -94.5t-94.5 -227.5zM429 866
q-45 0 -76 29t-31 68q0 21 13 21h23q12 0 12 -19t16.5 -35t43.5 -16q25 0 42 16.5t17 35.5q0 18 11 18h29q10 0 10 -20q0 -39 -32.5 -69t-77.5 -29z" />
    <glyph glyph-name="obreve" unicode="&#x14f;" horiz-adv-x="583" 
d="M44 244q0 107 71 181.5t176 74.5q106 0 177 -74.5t71 -181.5t-71 -181.5t-177 -74.5q-105 0 -176 74.5t-71 181.5zM101 244q0 -83 55 -141.5t136 -58.5t136 58.5t55 141.5t-55 141.5t-136 58.5t-136 -58.5t-55 -141.5zM299 615q-45 0 -76 29t-31 68q0 21 13 21h23
q12 0 12 -19t16.5 -35t43.5 -16q25 0 42 16.5t17 35.5q0 18 11 18h29q10 0 10 -20q0 -39 -32.5 -69t-77.5 -29z" />
    <glyph glyph-name="Ohungarumlaut" unicode="&#x150;" horiz-adv-x="853" 
d="M44 370q0 158 111.5 270t269.5 112q157 0 268.5 -112t111.5 -270q0 -157 -111.5 -268.5t-269.5 -111.5t-269 111t-111 269zM102 371q0 -134 94.5 -228t228.5 -94q133 0 227.5 94.5t94.5 227.5t-94.5 227.5t-227.5 94.5q-134 0 -228.5 -94.5t-94.5 -227.5zM441 964
l-52 -106q-7 -13 -17 -13h-33q-8 1 -12.5 7t0.5 16l54 107q6 13 19 13h29q8 0 12.5 -7.5t-0.5 -16.5zM603 964l-52 -106q-7 -13 -17 -13h-33q-8 1 -12.5 7t0.5 16l53 107q7 13 20 13h29q8 0 12.5 -7.5t-0.5 -16.5z" />
    <glyph glyph-name="ohungarumlaut" unicode="&#x151;" horiz-adv-x="583" 
d="M44 244q0 107 71 181.5t176 74.5q106 0 177 -74.5t71 -181.5t-71 -181.5t-177 -74.5q-105 0 -176 74.5t-71 181.5zM101 244q0 -83 55 -141.5t136 -58.5t136 58.5t55 141.5t-55 141.5t-136 58.5t-136 -58.5t-55 -141.5zM282 713l-52 -106q-6 -13 -17 -13h-33q-8 1 -12.5 7
t0.5 16l54 107q6 13 19 13h29q8 0 12.5 -7.5t-0.5 -16.5zM444 713l-52 -106q-6 -13 -17 -13h-33q-8 1 -12.5 7t0.5 16l53 107q7 13 20 13h29q8 0 12.5 -7.5t-0.5 -16.5z" />
    <glyph glyph-name="OE" unicode="&#x152;" horiz-adv-x="1285" 
d="M34 371q0 159 112 271t270 112q99 0 183.5 -47t136.5 -126v146q0 15 16 15h479q18 0 18 -15v-26q0 -16 -18 -16h-433v-283h353q17 0 17 -15v-23q0 -17 -17 -17h-353v-290h443q18 0 18 -16v-25q0 -16 -18 -16h-489q-16 0 -16 16v146q-52 -79 -136.5 -126t-183.5 -47
q-158 0 -270 112t-112 270zM98 371q0 -133 92.5 -226.5t225.5 -93.5t226 93.5t93 226.5q0 134 -93 227.5t-226 93.5t-225.5 -93.5t-92.5 -227.5z" />
    <glyph glyph-name="oe" unicode="&#x153;" horiz-adv-x="1022" 
d="M44 244q0 107 71 181.5t176 74.5q106 0 177 -74.5t71 -181.5t-71 -181.5t-177 -74.5q-105 0 -176 74.5t-71 181.5zM101 244q0 -83 55 -141.5t136 -58.5t136 58.5t55 141.5t-55 141.5t-136 58.5t-136 -58.5t-55 -141.5zM723 -11q-100 0 -170 75t-70 180q0 106 69.5 181
t166.5 75q93 0 161 -72.5t68 -174.5q0 -30 -39 -30h-368q4 -75 56.5 -126t124.5 -53h2q84 0 144 62q15 15 26 2l12 -17q7 -8 6 -14.5t-13 -16.5q-81 -71 -176 -71zM717 443q-65 0 -114 -46.5t-60 -118.5h348q-9 70 -59 117.5t-115 47.5z" />
    <glyph glyph-name="Racute" unicode="&#x154;" horiz-adv-x="671" 
d="M97 742h288q96 0 163.5 -68.5t67.5 -164.5q0 -70 -37.5 -127.5t-99.5 -84.5l126 -278q4 -7 1 -13t-12 -6h-35q-9 0 -13 9l-123 273q-22 -5 -43 -5h-244v-259q0 -18 -18 -18h-21q-18 0 -18 18v707q0 17 18 17zM136 334h232q79 0 135 48t56 127q0 73 -51 124.5t-125 51.5
h-247v-351zM328 852l55 122q9 19 -6 19h-33q-11 0 -17 -13l-52 -122q-11 -19 6 -19h30q11 0 17 13z" />
    <glyph glyph-name="racute" unicode="&#x155;" horiz-adv-x="381" 
d="M81 17v449q0 23 16 23h25q13 0 15 -19l1 -55q14 37 49 59.5t82 22.5q55 0 94 -28q18 -15 10 -28l-15 -22q-9 -12 -21 -3q-38 24 -72 24q-54 0 -90.5 -46t-36.5 -106v-270q0 -18 -18 -18h-21q-18 0 -18 17zM305 723l-55 -122q-6 -13 -17 -13h-30q-17 0 -6 19l52 122
q6 13 17 13h33q15 0 6 -19z" />
    <glyph glyph-name="Rcommaaccent" unicode="&#x156;" horiz-adv-x="671" 
d="M97 742h288q96 0 163.5 -68.5t67.5 -164.5q0 -70 -37.5 -127.5t-99.5 -84.5l126 -278q4 -7 1 -13t-12 -6h-35q-9 0 -13 9l-123 273q-22 -5 -43 -5h-244v-259q0 -18 -18 -18h-21q-18 0 -18 18v707q0 17 18 17zM136 334h232q79 0 135 48t56 127q0 73 -51 124.5t-125 51.5
h-247v-351zM283 -160q0 20 13.5 33.5t33.5 13.5q23 0 35 -15.5t12 -40.5q0 -66 -32 -98q-9 -9 -17 -3l-15 12q-4 4 0 16q13 20 13 29v6q-19 3 -31 16t-12 31z" />
    <glyph glyph-name="rcommaaccent" unicode="&#x157;" horiz-adv-x="381" 
d="M81 17v449q0 23 16 23h25q13 0 15 -19l1 -55q14 37 49 59.5t82 22.5q55 0 94 -28q18 -15 10 -28l-15 -22q-9 -12 -21 -3q-38 24 -72 24q-54 0 -90.5 -46t-36.5 -106v-270q0 -18 -18 -18h-21q-18 0 -18 17zM66 -132q0 20 14 33.5t33 13.5q23 0 35 -15.5t12 -40.5
q0 -66 -32 -98q-9 -9 -17 -3l-15 12q-4 4 0 16q13 20 13 29v6q-19 3 -31 16t-12 31z" />
    <glyph glyph-name="Rcaron" unicode="&#x158;" horiz-adv-x="671" 
d="M97 742h288q96 0 163.5 -68.5t67.5 -164.5q0 -70 -37.5 -127.5t-99.5 -84.5l126 -278q4 -7 1 -13t-12 -6h-35q-9 0 -13 9l-123 273q-22 -5 -43 -5h-244v-259q0 -18 -18 -18h-21q-18 0 -18 18v707q0 17 18 17zM136 334h232q79 0 135 48t56 127q0 73 -51 124.5t-125 51.5
h-247v-351zM329 843l114 113q12 13 3 21l-18 17q-9 8 -20 -3l-90 -90l-90 91q-13 11 -19 4l-20 -18q-8 -9 3 -21l115 -114q5 -6 11 -6q5 0 11 6z" />
    <glyph glyph-name="rcaron" unicode="&#x159;" horiz-adv-x="381" 
d="M81 17v449q0 23 16 23h25q13 0 15 -19l1 -55q14 37 49 59.5t82 22.5q55 0 94 -28q18 -15 10 -28l-15 -22q-9 -12 -21 -3q-38 24 -72 24q-54 0 -90.5 -46t-36.5 -106v-270q0 -18 -18 -18h-21q-18 0 -18 17zM312 705l-114 -113q-6 -6 -11 -6q-6 0 -11 6l-115 114
q-11 12 -3 21l20 18q6 7 19 -4l90 -91l90 90q11 11 20 3l18 -17q9 -8 -3 -21z" />
    <glyph glyph-name="Sacute" unicode="&#x15a;" horiz-adv-x="641" 
d="M59 107q-14 17 -3 28l20 17q12 9 26 -7q86 -100 219 -100q90 0 153 42t63 122q0 30 -16 54t-36.5 38.5t-55 26.5t-56 17t-55.5 12q-129 29 -190.5 75t-61.5 124q0 90 69.5 142.5t190.5 52.5q141 0 235 -91q13 -13 0 -26l-17 -19q-12 -8 -30 8q-41 35 -81.5 52.5
t-99.5 18.5q-38 1 -73 -5.5t-66.5 -21.5t-50 -44t-18.5 -69q0 -41 33 -71t74.5 -44t104.5 -28q34 -8 52.5 -12.5t50 -15t50 -19.5t41 -24.5t35 -33t21 -42.5t8.5 -54q0 -105 -79.5 -162.5t-194.5 -57.5q-163 0 -262 117zM418 974l-55 -122q-7 -13 -17 -13h-30q-17 0 -6 19
l52 122q6 13 17 13h33q15 0 6 -19z" />
    <glyph glyph-name="sacute" unicode="&#x15b;" horiz-adv-x="425" 
d="M312 389q-36 58 -103 58q-42 0 -69.5 -23t-27.5 -59q0 -57 94 -80q173 -44 173 -154q0 -66 -50.5 -104t-122.5 -38q-58 0 -103 27t-63 75q-5 18 11 24l19 9q16 6 23 -10l3 -5q15 -30 47.5 -47.5t62.5 -17.5q42 0 79 22.5t37 63.5q0 68 -123 97q-62 15 -102.5 50.5
t-40.5 87.5q0 61 42 98.5t111 37.5q107 0 157 -88q9 -16 -6 -25l-18 -11q-13 -9 -23 1q-4 6 -7 11zM302 723l-55 -122q-7 -13 -17 -13h-30q-17 0 -6 19l52 122q6 13 17 13h33q15 0 6 -19z" />
    <glyph glyph-name="Scircumflex" unicode="&#x15c;" horiz-adv-x="641" 
d="M59 107q-14 17 -3 28l20 17q12 9 26 -7q86 -100 219 -100q90 0 153 42t63 122q0 30 -16 54t-36.5 38.5t-55 26.5t-56 17t-55.5 12q-129 29 -190.5 75t-61.5 124q0 90 69.5 142.5t190.5 52.5q141 0 235 -91q13 -13 0 -26l-17 -19q-12 -8 -30 8q-41 35 -81.5 52.5
t-99.5 18.5q-38 1 -73 -5.5t-66.5 -21.5t-50 -44t-18.5 -69q0 -41 33 -71t74.5 -44t104.5 -28q34 -8 52.5 -12.5t50 -15t50 -19.5t41 -24.5t35 -33t21 -42.5t8.5 -54q0 -105 -79.5 -162.5t-194.5 -57.5q-163 0 -262 117zM204 891l114 112q11 14 24 1l114 -113q12 -11 1 -22
l-15 -14q-10 -11 -23 2l-89 88l-90 -90q-11 -11 -23 -1l-15 16q-9 10 2 21z" />
    <glyph glyph-name="scircumflex" unicode="&#x15d;" horiz-adv-x="425" 
d="M312 389q-36 58 -103 58q-42 0 -69.5 -23t-27.5 -59q0 -57 94 -80q173 -44 173 -154q0 -66 -50.5 -104t-122.5 -38q-58 0 -103 27t-63 75q-5 18 11 24l19 9q16 6 23 -10l3 -5q15 -30 47.5 -47.5t62.5 -17.5q42 0 79 22.5t37 63.5q0 68 -123 97q-62 15 -102.5 50.5
t-40.5 87.5q0 61 42 98.5t111 37.5q107 0 157 -88q9 -16 -6 -25l-18 -11q-13 -9 -23 1q-4 6 -7 11zM72 640l114 112q11 14 24 1l114 -113q12 -12 1 -22l-15 -14q-10 -11 -23 2l-89 88l-90 -90q-11 -11 -23 -1l-15 16q-9 10 2 21z" />
    <glyph glyph-name="Scedilla" unicode="&#x15e;" horiz-adv-x="641" 
d="M59 107q-14 17 -3 28l20 17q12 9 26 -7q86 -100 219 -100q90 0 153 42t63 122q0 30 -16 54t-36.5 38.5t-55 26.5t-56 17t-55.5 12q-129 29 -190.5 75t-61.5 124q0 90 69.5 142.5t190.5 52.5q141 0 235 -91q13 -13 0 -26l-17 -19q-12 -8 -30 8q-41 35 -81.5 52.5
t-99.5 18.5q-38 1 -73 -5.5t-66.5 -21.5t-50 -44t-18.5 -69q0 -41 33 -71t74.5 -44t104.5 -28q34 -8 52.5 -12.5t50 -15t50 -19.5t41 -24.5t35 -33t21 -42.5t8.5 -54q0 -105 -79.5 -162.5t-194.5 -57.5q-163 0 -262 117zM283 -46v72h47q1 -7 1 -45q0 -19 2.5 -26t11.5 -10
q71 -24 71 -91q0 -29 -27.5 -57t-80.5 -39q-12 -2 -15 6l-5 24q-3 11 11 15q25 5 45.5 19.5t20.5 34.5q0 40 -50 53q-32 9 -32 44z" />
    <glyph glyph-name="scedilla" unicode="&#x15f;" horiz-adv-x="425" 
d="M312 389q-36 58 -103 58q-42 0 -69.5 -23t-27.5 -59q0 -57 94 -80q173 -44 173 -154q0 -66 -50.5 -104t-122.5 -38q-58 0 -103 27t-63 75q-5 18 11 24l19 9q16 6 23 -10l3 -5q15 -30 47.5 -47.5t62.5 -17.5q42 0 79 22.5t37 63.5q0 68 -123 97q-62 15 -102.5 50.5
t-40.5 87.5q0 61 42 98.5t111 37.5q107 0 157 -88q9 -16 -6 -25l-18 -11q-13 -9 -23 1q-4 6 -7 11zM176 -51v72h47q1 -7 1 -45q0 -19 2.5 -26t11.5 -10q71 -24 71 -91q0 -29 -27.5 -57t-80.5 -39q-12 -2 -15 6l-5 24q-3 11 11 15q25 5 45.5 19.5t20.5 34.5q0 40 -50 53
q-32 9 -32 44z" />
    <glyph glyph-name="Scaron" unicode="&#x160;" horiz-adv-x="641" 
d="M59 107q-14 17 -3 28l20 17q12 9 26 -7q86 -100 219 -100q90 0 153 42t63 122q0 30 -16 54t-36.5 38.5t-55 26.5t-56 17t-55.5 12q-129 29 -190.5 75t-61.5 124q0 90 69.5 142.5t190.5 52.5q141 0 235 -91q13 -13 0 -26l-17 -19q-12 -8 -30 8q-41 35 -81.5 52.5
t-99.5 18.5q-38 1 -73 -5.5t-66.5 -21.5t-50 -44t-18.5 -69q0 -41 33 -71t74.5 -44t104.5 -28q34 -8 52.5 -12.5t50 -15t50 -19.5t41 -24.5t35 -33t21 -42.5t8.5 -54q0 -105 -79.5 -162.5t-194.5 -57.5q-163 0 -262 117zM457 956l-114 -113q-6 -6 -11 -6q-6 0 -11 6
l-115 114q-11 12 -3 21l20 18q6 7 19 -4l90 -91l90 90q11 11 20 3l18 -17q9 -8 -3 -21z" />
    <glyph glyph-name="scaron" unicode="&#x161;" horiz-adv-x="425" 
d="M312 389q-36 58 -103 58q-42 0 -69.5 -23t-27.5 -59q0 -57 94 -80q173 -44 173 -154q0 -66 -50.5 -104t-122.5 -38q-58 0 -103 27t-63 75q-5 18 11 24l19 9q16 6 23 -10l3 -5q15 -30 47.5 -47.5t62.5 -17.5q42 0 79 22.5t37 63.5q0 68 -123 97q-62 15 -102.5 50.5
t-40.5 87.5q0 61 42 98.5t111 37.5q107 0 157 -88q9 -16 -6 -25l-18 -11q-13 -9 -23 1q-4 6 -7 11zM345 705l-114 -113q-6 -6 -11 -6q-6 0 -11 6l-115 114q-11 12 -3 21l20 18q6 7 19 -4l90 -91l90 90q11 11 20 3l18 -17q9 -8 -3 -21z" />
    <glyph glyph-name="Tcommaaccent" unicode="&#x162;" horiz-adv-x="611" 
d="M39 742h523q20 0 20 -18v-22q0 -18 -20 -18h-232v-666q0 -18 -18 -18h-21q-18 0 -18 18v666h-234q-18 0 -18 20v20q0 18 18 18zM257 -160q0 20 13.5 33.5t33.5 13.5q23 0 35 -15.5t12 -40.5q0 -66 -32 -98q-9 -9 -17 -3l-15 12q-4 4 0 16q13 20 13 29v6q-19 3 -31 16
t-12 31z" />
    <glyph glyph-name="tcommaaccent" unicode="&#x163;" horiz-adv-x="296" 
d="M233 51h19q21 0 21 -15v-26q0 -15 -24 -15h-15q-57 0 -88.5 29t-31.5 105v307h-69q-19 0 -19 18v18q0 18 19 18h69v148q0 15 17 17l25 4q9 1 12.5 -5t3.5 -16v-148h87q20 0 20 -19v-16q0 -19 -20 -19h-87v-293q0 -51 14 -70t47 -22zM75 -149q0 19 13.5 33t33.5 14
q23 0 35 -15.5t12 -40.5q0 -66 -32 -98q-9 -9 -17 -3l-15 12q-4 4 0 16q13 19 13 29v6q-19 3 -31 16t-12 31z" />
    <glyph glyph-name="Tcaron" unicode="&#x164;" horiz-adv-x="611" 
d="M39 742h523q20 0 20 -18v-22q0 -18 -20 -18h-232v-666q0 -18 -18 -18h-21q-18 0 -18 18v666h-234q-18 0 -18 20v20q0 18 18 18zM428 956l-114 -113q-6 -6 -11 -6q-6 0 -11 6l-115 114q-11 12 -3 21l20 18q6 7 19 -4l90 -91l90 90q11 11 20 3l18 -17q9 -8 -3 -21z" />
    <glyph glyph-name="tcaron" unicode="&#x165;" horiz-adv-x="296" 
d="M233 51h19q21 0 21 -15v-26q0 -15 -24 -15h-15q-57 0 -88.5 29t-31.5 105v307h-69q-19 0 -19 18v18q0 18 19 18h69v148q0 15 17 17l25 4q9 1 12.5 -5t3.5 -16v-148h87q20 0 20 -19v-16q0 -19 -20 -19h-87v-293q0 -51 14 -70t47 -22zM234 693q0 19 14 33t33 14
q23 0 35 -15.5t12 -40.5q0 -66 -32 -98q-9 -9 -17 -3l-15 12q-4 4 0 16q13 19 13 29v6q-19 3 -31 16t-12 31z" />
    <glyph glyph-name="Tbar" unicode="&#x166;" horiz-adv-x="611" 
d="M39 742h523q20 0 20 -18v-22q0 -18 -20 -18h-232v-666q0 -18 -18 -18h-21q-18 0 -18 18v666h-234q-18 0 -18 20v20q0 18 18 18zM156 473h296q17 0 17 -16v-19q0 -17 -17 -17h-296q-16 0 -16 17v19q0 16 16 16z" />
    <glyph glyph-name="tbar" unicode="&#x167;" horiz-adv-x="280" 
d="M52 328h176q17 0 17 -16v-19q0 -17 -17 -17h-176q-17 0 -17 17v19q0 16 17 16zM232 51h19q21 0 21 -15v-26q0 -15 -24 -15h-15q-57 0 -88.5 29t-31.5 105v307h-69q-19 0 -19 18v18q0 18 19 18h69v148q0 15 17 17l25 4q9 1 12.5 -5t3.5 -16v-148h87q20 0 20 -19v-16
q0 -19 -20 -19h-87v-293q0 -51 14 -70t47 -22z" />
    <glyph glyph-name="Utilde" unicode="&#x168;" horiz-adv-x="752" 
d="M128 724v-427q0 -107 70 -180t176 -73q109 0 178 73t69 180v427q0 18 19 18h19q20 0 20 -18v-434q0 -130 -88.5 -216t-216.5 -86q-126 0 -215 89t-89 215v432q0 18 17 18h22q19 0 19 -18zM268 855q-12 -15 -26 -1l-7 7q-11 10 1 24q39 48 83 48q22 0 60 -22.5t55 -22.5
q18 0 46 30q13 17 27 7l9 -10q11 -10 0 -23q-37 -51 -86 -51q-22 0 -58 23t-53 23q-12 0 -22 -5.5t-13.5 -9t-15.5 -17.5z" />
    <glyph glyph-name="utilde" unicode="&#x169;" horiz-adv-x="568" 
d="M60 194v279q0 16 15 16h25q18 0 18 -20v-277q0 -61 45 -103.5t107 -42.5q61 0 106 43t45 104v278q0 18 18 18h21q19 0 19 -18v-453q0 -18 -19 -18h-16q-17 0 -19 18l-4 58q-60 -88 -156 -88q-85 0 -145 60.5t-60 145.5zM167 604q-12 -15 -26 -1l-7 7q-11 10 1 24
q39 48 83 48q22 0 60 -22.5t55 -22.5q18 0 46 30q13 17 27 7l9 -10q11 -10 0 -23q-37 -51 -86 -51q-22 0 -58 23t-53 23q-12 0 -22 -5.5t-13.5 -9t-15.5 -17.5z" />
    <glyph glyph-name="Umacron" unicode="&#x16a;" horiz-adv-x="752" 
d="M128 724v-427q0 -107 70 -180t176 -73q109 0 178 73t69 180v427q0 18 19 18h19q20 0 20 -18v-434q0 -130 -88.5 -216t-216.5 -86q-126 0 -215 89t-89 215v432q0 18 17 18h22q19 0 19 -18zM232 896h296q17 0 17 -16v-19q0 -17 -17 -17h-296q-16 0 -16 17v19q0 16 16 16z
" />
    <glyph glyph-name="umacron" unicode="&#x16b;" horiz-adv-x="568" 
d="M60 194v279q0 16 15 16h25q18 0 18 -20v-277q0 -61 45 -103.5t107 -42.5q61 0 106 43t45 104v278q0 18 18 18h21q19 0 19 -18v-453q0 -18 -19 -18h-16q-17 0 -19 18l-4 58q-60 -88 -156 -88q-85 0 -145 60.5t-60 145.5zM124 645h296q17 0 17 -16v-19q0 -17 -17 -17h-296
q-16 0 -16 17v19q0 16 16 16z" />
    <glyph glyph-name="Ubreve" unicode="&#x16c;" horiz-adv-x="752" 
d="M128 724v-427q0 -107 70 -180t176 -73q109 0 178 73t69 180v427q0 18 19 18h19q20 0 20 -18v-434q0 -130 -88.5 -216t-216.5 -86q-126 0 -215 89t-89 215v432q0 18 17 18h22q19 0 19 -18zM372 866q-45 0 -76 29t-31 68q0 21 13 21h23q12 0 12 -19t16.5 -35t43.5 -16
q25 0 42 16.5t17 35.5q0 18 11 18h29q10 0 10 -20q0 -39 -32.5 -69t-77.5 -29z" />
    <glyph glyph-name="ubreve" unicode="&#x16d;" horiz-adv-x="568" 
d="M60 194v279q0 16 15 16h25q18 0 18 -20v-277q0 -61 45 -103.5t107 -42.5q61 0 106 43t45 104v278q0 18 18 18h21q19 0 19 -18v-453q0 -18 -19 -18h-16q-17 0 -19 18l-4 58q-60 -88 -156 -88q-85 0 -145 60.5t-60 145.5zM267 615q-45 0 -76 29t-31 68q0 21 13 21h23
q12 0 12 -19t16.5 -35t43.5 -16q25 0 42 16.5t17 35.5q0 18 11 18h29q10 0 10 -20q0 -39 -32.5 -69t-77.5 -29z" />
    <glyph glyph-name="Uring" unicode="&#x16e;" horiz-adv-x="752" 
d="M128 724v-427q0 -107 70 -180t176 -73q109 0 178 73t69 180v427q0 18 19 18h19q20 0 20 -18v-434q0 -130 -88.5 -216t-216.5 -86q-126 0 -215 89t-89 215v432q0 18 17 18h22q19 0 19 -18zM387 1012q38 0 65.5 -27.5t27.5 -65.5q0 -39 -27 -65.5t-66 -26.5t-66 26.5
t-27 65.5q0 38 27 65.5t66 27.5zM333 919q0 -23 15.5 -38t38.5 -15t38 15t15 38t-15 38t-38 15t-38.5 -15t-15.5 -38z" />
    <glyph glyph-name="uring" unicode="&#x16f;" horiz-adv-x="568" 
d="M60 194v279q0 16 15 16h25q18 0 18 -20v-277q0 -61 45 -103.5t107 -42.5q61 0 106 43t45 104v278q0 18 18 18h21q19 0 19 -18v-453q0 -18 -19 -18h-16q-17 0 -19 18l-4 58q-60 -88 -156 -88q-85 0 -145 60.5t-60 145.5zM273 761q38 0 65.5 -27.5t27.5 -65.5
q0 -39 -27 -65.5t-66 -26.5t-66 26.5t-27 65.5q0 38 27 65.5t66 27.5zM219 668q0 -23 15.5 -38t38.5 -15t38 15.5t15 37.5t-15 37.5t-38 15.5t-38.5 -15t-15.5 -38z" />
    <glyph glyph-name="Uhungarumlaut" unicode="&#x170;" horiz-adv-x="752" 
d="M128 724v-427q0 -107 70 -180t176 -73q109 0 178 73t69 180v427q0 18 19 18h19q20 0 20 -18v-434q0 -130 -88.5 -216t-216.5 -86q-126 0 -215 89t-89 215v432q0 18 17 18h22q19 0 19 -18zM383 964l-52 -106q-7 -13 -17 -13h-33q-8 1 -12.5 7t0.5 16l54 107q6 13 19 13h29
q8 0 12.5 -7.5t-0.5 -16.5zM545 964l-52 -106q-7 -13 -17 -13h-33q-8 1 -12.5 7t0.5 16l53 107q7 13 20 13h29q8 0 12.5 -7.5t-0.5 -16.5z" />
    <glyph glyph-name="uhungarumlaut" unicode="&#x171;" horiz-adv-x="568" 
d="M60 194v279q0 16 15 16h25q18 0 18 -20v-277q0 -61 45 -103.5t107 -42.5q61 0 106 43t45 104v278q0 18 18 18h21q19 0 19 -18v-453q0 -18 -19 -18h-16q-17 0 -19 18l-4 58q-60 -88 -156 -88q-85 0 -145 60.5t-60 145.5zM270 713l-52 -106q-6 -13 -17 -13h-33
q-8 1 -12.5 7t0.5 16l54 107q6 13 19 13h29q8 0 12.5 -7.5t-0.5 -16.5zM432 713l-52 -106q-6 -13 -17 -13h-33q-8 1 -12.5 7t0.5 16l53 107q7 13 20 13h29q8 0 12.5 -7.5t-0.5 -16.5z" />
    <glyph glyph-name="Uogonek" unicode="&#x172;" horiz-adv-x="752" 
d="M128 724v-427q0 -107 70 -180t176 -73q109 0 178 73t69 180v427q0 18 19 18h19q20 0 20 -18v-434q0 -130 -88.5 -216t-216.5 -86q-126 0 -215 89t-89 215v432q0 18 17 18h22q19 0 19 -18zM416 26v-78q0 -17 -4 -22.5t-20 -12.5q-30 -11 -44 -23.5t-14 -32.5
q0 -18 20.5 -32.5t45.5 -21.5q17 -5 11 -19l-8 -20q-2 -5 -5.5 -6.5t-5.5 -1.5t-8 2l-6 2q-45 15 -70 40t-25 54q0 67 71 91q9 3 11 9.5t3 26.5l1 45h47z" />
    <glyph glyph-name="uogonek" unicode="&#x173;" horiz-adv-x="568" 
d="M60 194v279q0 16 15 16h25q18 0 18 -20v-277q0 -61 45 -103.5t107 -42.5q61 0 106 43t45 104v278q0 18 18 18h21q19 0 19 -18v-453q0 -18 -19 -18h-16q-17 0 -19 18l-4 58q-60 -88 -156 -88q-85 0 -145 60.5t-60 145.5zM477 26v-78q0 -17 -4 -22.5t-20 -12.5
q-30 -11 -44 -23.5t-14 -32.5q0 -18 20.5 -32.5t45.5 -21.5q17 -5 11 -19l-8 -20q-2 -5 -5.5 -6.5t-5.5 -1.5t-8 2l-6 2q-45 15 -70 40t-25 54q0 67 71 91q9 3 11 9.5t3 26.5l1 45h47z" />
    <glyph glyph-name="Wcircumflex" unicode="&#x174;" horiz-adv-x="1023" 
d="M666 13l-150 357l-149 -357q-5 -13 -16 -13h-21q-12 0 -17 13l-294 709q-4 9 0.5 15t12.5 6h31q10 0 15 -13l266 -641l261 641q6 13 16 13h31q7 0 11 -6t0 -15l-116 -280l149 -355l263 643q5 13 15 13h29q8 0 12.5 -6t1.5 -15l-296 -709q-5 -13 -17 -13h-21q-11 0 -17 13
zM412 891l114 112q11 14 24 1l114 -113q12 -11 1 -22l-15 -14q-10 -11 -23 2l-89 88l-90 -90q-11 -11 -23 -1l-15 16q-9 10 2 21z" />
    <glyph glyph-name="wcircumflex" unicode="&#x175;" horiz-adv-x="773" 
d="M520 93l162 389q3 7 13 7h32q19 0 13 -17l-192 -458q-6 -14 -18 -14h-20q-12 0 -18 14l-108 257l-107 -257q-6 -14 -18 -14h-19q-13 0 -19 14l-190 453q-8 22 11 22h32q9 0 14 -9l161 -387l162 389q4 7 14 7h34q17 0 10 -17l-54 -127zM259 640l114 112q11 14 24 1
l114 -113q11 -12 1 -22l-15 -14q-10 -11 -23 2l-89 88l-90 -90q-11 -11 -23 -1l-15 16q-9 10 2 21z" />
    <glyph glyph-name="Ycircumflex" unicode="&#x176;" horiz-adv-x="553" 
d="M252 328l-242 394q-5 9 -1 14.5t12 5.5h34q9 0 16 -10l208 -348l212 347q6 11 15 11h31q8 0 11.5 -4t-1.5 -14l-238 -396v-310q0 -18 -14 -18h-30q-13 0 -13 18v310zM153 891l114 112q11 14 24 1l114 -113q11 -11 1 -22l-15 -14q-10 -11 -23 2l-89 88l-90 -90
q-11 -11 -23 -1l-15 16q-9 10 2 21z" />
    <glyph glyph-name="ycircumflex" unicode="&#x177;" horiz-adv-x="501" 
d="M466 471l-274 -650q-6 -14 -19 -14h-29q-21 0 -12 20l79 187l-190 456q-3 7 0 13t12 6h27q13 0 18 -9l167 -398l160 393q5 14 16 14h34q19 0 11 -18zM123 640l114 112q11 14 24 1l114 -113q11 -12 1 -22l-15 -14q-10 -11 -23 2l-89 88l-90 -90q-11 -11 -23 -1l-15 16
q-9 10 2 21z" />
    <glyph glyph-name="Ydieresis" unicode="&#x178;" horiz-adv-x="553" 
d="M252 328l-242 394q-5 9 -1 14.5t12 5.5h34q9 0 16 -10l208 -348l212 347q6 11 15 11h31q8 0 11.5 -4t-1.5 -14l-238 -396v-310q0 -18 -14 -18h-30q-13 0 -13 18v310zM145 875q0 18 13 31t31 13q19 0 31.5 -13t12.5 -31t-12.5 -30.5t-31.5 -12.5q-18 0 -31 12.5t-13 30.5z
M327 876q0 18 13 30.5t31 12.5t30.5 -12.5t12.5 -30.5t-12.5 -31t-30.5 -13t-31 13t-13 31z" />
    <glyph glyph-name="Zacute" unicode="&#x179;" horiz-adv-x="639" 
d="M68 742h521q15 0 15 -15v-25q0 -4 -4 -9l-488 -636h472q17 0 17 -14v-28q0 -15 -17 -15h-537q-15 0 -15 15v24q0 7 4 11l490 634h-458q-18 0 -18 15v28q0 15 18 15zM425 974l-55 -122q-6 -13 -17 -13h-30q-17 0 -6 19l52 122q6 13 17 13h33q15 0 6 -19z" />
    <glyph glyph-name="zacute" unicode="&#x17a;" horiz-adv-x="449" 
d="M409 0h-370q-24 0 -24 16v23q0 10 4 15l325 378h-314q-13 0 -13 12v34q0 11 10 11h378q17 0 17 -16v-24q0 -12 -7 -19l-319 -373h314q13 0 13 -13v-31q0 -13 -14 -13zM294 723l-55 -122q-7 -13 -17 -13h-30q-17 0 -6 19l52 122q6 13 17 13h33q15 0 6 -19z" />
    <glyph glyph-name="Zdotaccent" unicode="&#x17b;" horiz-adv-x="639" 
d="M68 742h521q15 0 15 -15v-25q0 -4 -4 -9l-488 -636h472q17 0 17 -14v-28q0 -15 -17 -15h-537q-15 0 -15 15v24q0 7 4 11l490 634h-458q-18 0 -18 15v28q0 15 18 15zM272 885q0 19 13.5 32.5t33.5 13.5q19 0 32.5 -13.5t13.5 -32.5t-13.5 -32.5t-32.5 -13.5
q-20 0 -33.5 13.5t-13.5 32.5z" />
    <glyph glyph-name="zdotaccent" unicode="&#x17c;" horiz-adv-x="449" 
d="M409 0h-370q-24 0 -24 16v23q0 10 4 15l325 378h-314q-13 0 -13 12v34q0 11 10 11h378q17 0 17 -16v-24q0 -12 -7 -19l-319 -373h314q13 0 13 -13v-31q0 -13 -14 -13zM196 634q0 19 13.5 32.5t33.5 13.5q19 0 32.5 -13t13.5 -33t-13.5 -33t-32.5 -13q-20 0 -33.5 13.5
t-13.5 32.5z" />
    <glyph glyph-name="Zcaron" unicode="&#x17d;" horiz-adv-x="639" 
d="M68 742h521q15 0 15 -15v-25q0 -4 -4 -9l-488 -636h472q17 0 17 -14v-28q0 -15 -17 -15h-537q-15 0 -15 15v24q0 7 4 11l490 634h-458q-18 0 -18 15v28q0 15 18 15zM456 956l-114 -113q-6 -6 -11 -6q-6 0 -11 6l-115 114q-11 12 -3 21l20 18q6 7 19 -4l90 -91l90 90
q11 11 20 3l18 -17q9 -8 -3 -21z" />
    <glyph glyph-name="zcaron" unicode="&#x17e;" horiz-adv-x="449" 
d="M409 0h-370q-24 0 -24 16v23q0 10 4 15l325 378h-314q-13 0 -13 12v34q0 11 10 11h378q17 0 17 -16v-24q0 -12 -7 -19l-319 -373h314q13 0 13 -13v-31q0 -13 -14 -13zM354 705l-114 -113q-6 -6 -11 -6q-6 0 -11 6l-115 114q-11 12 -3 21l20 18q6 7 19 -4l90 -91l90 90
q11 11 20 3l18 -17q9 -8 -3 -21z" />
    <glyph glyph-name="florin" unicode="&#x192;" horiz-adv-x="309" 
d="M273 457h-102v-463q0 -76 -41 -132t-119 -56q-23 0 -23 16v23q0 16 20 16q105 0 105 137v459h-79q-17 0 -17 16v28q0 15 17 15h79v63q0 66 43.5 120.5t125.5 54.5q20 0 20 -17v-23q0 -15 -21 -15q-56 0 -83 -39.5t-27 -81.5v-62h102q16 0 16 -15v-28q0 -16 -16 -16z" />
    <glyph glyph-name="AEacute" unicode="&#x1fc;" horiz-adv-x="1159" 
d="M595 16v169h-375l-133 -175q-8 -10 -17 -10h-35q-9 0 -12 8t4 17l568 710q6 8 16 8h466q17 0 17 -16v-28q0 -16 -17 -16h-429v-280h345q19 0 19 -16v-23q0 -16 -19 -16h-345v-288h439q18 0 18 -17v-27q0 -16 -18 -16h-476q-16 0 -16 16zM264 244h331v403zM884 974
l-55 -122q-7 -13 -17 -13h-30q-17 0 -6 19l52 122q6 13 17 13h33q15 0 6 -19z" />
    <glyph glyph-name="aeacute" unicode="&#x1fd;" horiz-adv-x="934" 
d="M102 398l-13 13q-11 12 0 24q71 73 179 73q82 0 141 -55.5t59 -148.5v-287q0 -17 -15 -17h-22q-17 0 -17 19l-1 75q-14 -25 -25 -39.5t-31 -33t-49 -27.5t-67 -9q-86 0 -133 45.5t-47 114.5q0 60 46.5 101.5t130.5 41.5h176q0 70 -42 117t-104 47q-81 0 -140 -50
q-19 -15 -26 -4zM416 238h-164q-67 0 -101 -25t-34 -70q0 -42 31 -73t96 -31q69 0 120.5 52.5t51.5 146.5zM655 -11q-100 0 -170 75t-70 180q0 106 69.5 181t166.5 75q93 0 161 -72.5t68 -174.5q0 -30 -39 -30h-368q4 -75 56.5 -126t124.5 -53h2q84 0 144 62q15 15 26 2
l12 -17q7 -8 6 -14.5t-13 -16.5q-81 -71 -176 -71zM649 443q-65 0 -114 -46.5t-60 -118.5h348q-9 70 -59 117.5t-115 47.5zM578 723l-55 -122q-7 -13 -17 -13h-30q-17 0 -6 19l52 122q6 13 17 13h33q15 0 6 -19z" />
    <glyph glyph-name="Oslashacute" unicode="&#x1fe;" horiz-adv-x="853" 
d="M524 974l-55 -122q-7 -13 -17 -13h-30q-17 0 -6 19l52 122q6 13 17 13h33q15 0 6 -19zM236 -47l28 73q-99 46 -159 138.5t-60 205.5q0 158 111.5 270t269.5 112q57 0 111 -17l24 59q6 14 12 18t19 4h14q20 0 20 -10q0 -1 -1 -4t-1.5 -6t-1.5 -6l-31 -76
q97 -47 156 -139.5t59 -204.5q0 -157 -111.5 -268.5t-269.5 -111.5q-54 0 -108 16l-24 -59q-6 -15 -24 -15h-21q-14 0 -14 10q0 3 2 11zM103 371q0 -134 94.5 -228t228.5 -94q133 0 227.5 94.5t94.5 227.5t-94.5 227.5t-227.5 94.5q-134 0 -228.5 -94.5t-94.5 -227.5z" />
    <glyph glyph-name="oslashacute" unicode="&#x1ff;" horiz-adv-x="583" 
d="M387 723l-55 -122q-6 -13 -17 -13h-30q-17 0 -6 19l52 122q6 13 17 13h33q15 0 6 -19zM412 462l-46 20l23 58q7 19 26 19h12q13 0 16 -4.5t-2 -18.5zM185 15l45 -16l-24 -63q-6 -14 -21 -14h-18q-17 0 -10 18zM44 244q0 107 71 181.5t176 74.5q106 0 177 -74.5t71 -181.5
t-71 -181.5t-177 -74.5q-105 0 -176 74.5t-71 181.5zM101 244q0 -83 55 -141.5t136 -58.5t136 58.5t55 141.5t-55 141.5t-136 58.5t-136 -58.5t-55 -141.5z" />
    <glyph glyph-name="Scommaaccent" unicode="&#x218;" horiz-adv-x="641" 
d="M59 107q-14 17 -3 28l20 17q12 9 26 -7q86 -100 219 -100q90 0 153 42t63 122q0 30 -16 54t-36.5 38.5t-55 26.5t-56 17t-55.5 12q-129 29 -190.5 75t-61.5 124q0 90 69.5 142.5t190.5 52.5q141 0 235 -91q13 -13 0 -26l-17 -19q-12 -8 -30 8q-41 35 -81.5 52.5
t-99.5 18.5q-38 1 -73 -5.5t-66.5 -21.5t-50 -44t-18.5 -69q0 -41 33 -71t74.5 -44t104.5 -28q34 -8 52.5 -12.5t50 -15t50 -19.5t41 -24.5t35 -33t21 -42.5t8.5 -54q0 -105 -79.5 -162.5t-194.5 -57.5q-163 0 -262 117zM278 -137q0 19 14 33t33 14q23 0 35 -15.5t12 -40.5
q0 -66 -32 -98q-9 -9 -17 -3l-15 12q-4 4 0 16q13 19 13 29v6q-19 3 -31 16t-12 31z" />
    <glyph glyph-name="scommaaccent" unicode="&#x219;" horiz-adv-x="425" 
d="M312 389q-36 58 -103 58q-42 0 -69.5 -23t-27.5 -59q0 -57 94 -80q173 -44 173 -154q0 -66 -50.5 -104t-122.5 -38q-58 0 -103 27t-63 75q-5 18 11 24l19 9q16 6 23 -10l3 -5q15 -30 47.5 -47.5t62.5 -17.5q42 0 79 22.5t37 63.5q0 68 -123 97q-62 15 -102.5 50.5
t-40.5 87.5q0 61 42 98.5t111 37.5q107 0 157 -88q9 -16 -6 -25l-18 -11q-13 -9 -23 1q-4 6 -7 11zM151 -160q0 20 13.5 33.5t33.5 13.5q23 0 35 -15.5t12 -40.5q0 -66 -32 -98q-9 -9 -17 -3l-15 12q-4 4 0 16q13 20 13 29v6q-19 3 -31 16t-12 31z" />
    <glyph glyph-name="uni021A" unicode="&#x21a;" horiz-adv-x="633" 
d="M54 742h524q18 0 20 -18v-20q0 -20 -20 -20h-232v-666q0 -18 -19 -18h-20q-19 0 -19 18v666h-234q-18 0 -18 20v20q0 18 18 18zM277 -121q0 20 11.5 32t30.5 12q23 0 35.5 -15.5t12.5 -40.5q0 -59 -32 -91q-8 -10 -17 -4l-13 11q-4 3 1 17q12 18 12 28v5q-41 7 -41 46z
" />
    <glyph glyph-name="uni021B" unicode="&#x21b;" horiz-adv-x="296" 
d="M121 -109q0 20 12 32t31 12q23 0 35 -15.5t12 -40.5q0 -55 -31 -91q-9 -11 -17 -4l-13 11q-7 6 1 17q12 18 12 28v5q-19 3 -30.5 15.5t-11.5 30.5zM233 51h19q21 0 21 -15v-26q0 -15 -24 -15h-15q-57 0 -88.5 29t-31.5 105v307h-69q-19 0 -19 18v18q0 18 19 18h69v148
q0 15 17 17l25 4q9 1 12.5 -5t3.5 -16v-148h87q20 0 20 -19v-16q0 -19 -20 -19h-87v-293q0 -51 14 -70t47 -22z" />
    <glyph glyph-name="dotlessj" unicode="&#x237;" horiz-adv-x="218" 
d="M79 -22v493q0 20 21 20h17q9 0 15.5 -7.5t6.5 -16.5l-2 -490q-1 -64 -44 -109.5t-106 -45.5q-24 0 -24 20v16q0 20 21 20h2q41 1 67 30t26 70z" />
    <glyph glyph-name="circumflex" unicode="&#x2c6;" horiz-adv-x="374" 
d="M46 640l114 112q11 14 24 1l114 -113q12 -12 1 -22l-15 -14q-10 -11 -23 2l-89 88l-90 -90q-11 -11 -23 -1l-15 16q-9 10 2 21z" />
    <glyph glyph-name="caron" unicode="&#x2c7;" horiz-adv-x="368" 
d="M297 705l-114 -113q-6 -6 -11 -6q-6 0 -11 6l-115 114q-11 12 -3 21l20 18q6 7 19 -4l90 -91l90 90q11 11 20 3l18 -17q9 -8 -3 -21z" />
    <glyph glyph-name="uni02C9" unicode="&#x2c9;" horiz-adv-x="490" 
 />
    <glyph glyph-name="breve" unicode="&#x2d8;" horiz-adv-x="326" 
d="M145 615q-45 0 -76 29t-31 68q0 21 13 21h23q12 0 12 -19t16.5 -35t43.5 -16q25 0 42 16.5t17 35.5q0 18 11 18h29q10 0 10 -20q0 -39 -32.5 -69t-77.5 -29z" />
    <glyph glyph-name="dotaccent" unicode="&#x2d9;" horiz-adv-x="258" 
d="M77 634q0 19 13.5 32.5t33.5 13.5t33 -13t13 -33t-13 -33t-33 -13t-33.5 13.5t-13.5 32.5z" />
    <glyph glyph-name="ring" unicode="&#x2da;" horiz-adv-x="259" 
d="M117 761q38 0 65.5 -27.5t27.5 -65.5q0 -39 -27 -65.5t-66 -26.5t-66 26.5t-27 65.5q0 38 27 65.5t66 27.5zM63 668q0 -23 15.5 -38t38.5 -15t38 15.5t15 37.5t-15 37.5t-38 15.5t-38.5 -15t-15.5 -38z" />
    <glyph glyph-name="ogonek" unicode="&#x2db;" horiz-adv-x="277" 
d="M174 26v-78q0 -17 -4 -22.5t-20 -12.5q-30 -11 -44 -23.5t-14 -32.5q0 -18 20.5 -32.5t45.5 -21.5q17 -5 11 -19l-8 -20q-2 -5 -5.5 -6.5t-5.5 -1.5t-8 2l-6 2q-45 15 -70 40t-25 54q0 67 71 91q9 3 11 9.5t3 26.5l1 45h47z" />
    <glyph glyph-name="tilde" unicode="&#x2dc;" horiz-adv-x="353" 
d="M53 604q-12 -15 -26 -1l-7 7q-11 10 1 24q39 48 83 48q22 0 60 -22.5t55 -22.5q18 0 46 30q13 17 27 7l9 -10q11 -10 0 -23q-37 -51 -86 -51q-22 0 -58 23t-53 23q-12 0 -22 -5.5t-13.5 -9t-15.5 -17.5z" />
    <glyph glyph-name="hungarumlaut" unicode="&#x2dd;" horiz-adv-x="474" 
d="M218 713l-52 -106q-6 -13 -17 -13h-33q-8 1 -12.5 7t0.5 16l54 107q6 13 19 13h29q8 0 12.5 -7.5t-0.5 -16.5zM380 713l-52 -106q-6 -13 -17 -13h-33q-8 1 -12.5 7t0.5 16l53 107q7 13 20 13h29q8 0 12.5 -7.5t-0.5 -16.5z" />
    <glyph glyph-name="uni037E" unicode="&#x37e;" horiz-adv-x="264" 
d="M58 451q0 19 14 33t33 14t32.5 -13.5t13.5 -33.5q0 -19 -13.5 -32.5t-32.5 -13.5t-33 13.5t-14 32.5zM58 35q0 20 14 34t34 14q23 0 35.5 -16t12.5 -41q0 -67 -33 -100q-9 -11 -17 -4l-16 13q-6 5 1 16q1 3 5 9t6 11t2 10v6q-19 3 -31.5 16t-12.5 32z" />
    <glyph glyph-name="tonos" unicode="&#x384;" horiz-adv-x="258" 
d="M130 574q-11 0 -18 7.5t-8 18.5l-5 120q-1 9 4 15.5t14 6.5h25q8 0 13 -7t4 -14l-6 -121q0 -10 -6.5 -18t-16.5 -8z" />
    <glyph glyph-name="dieresistonos" unicode="&#x385;" horiz-adv-x="430" 
d="M187 594q-10 0 -17.5 7.5t-7.5 18.5l-6 120q0 9 5 15.5t14 6.5h24q8 0 13 -7t5 -14l-7 -121q0 -10 -7 -18t-16 -8zM39 624q0 18 12.5 31t30.5 13q19 0 31.5 -13t12.5 -31t-12.5 -30.5t-31.5 -12.5q-18 0 -30.5 12.5t-12.5 30.5zM241 625q0 18 12.5 30.5t30.5 12.5
q19 0 31.5 -12.5t12.5 -30.5t-12.5 -31t-31.5 -13q-18 0 -30.5 13t-12.5 31z" />
    <glyph glyph-name="Alphatonos" unicode="&#x386;" horiz-adv-x="712" 
d="M384 729l292 -708q5 -10 0.5 -16t-13.5 -6h-30q-10 0 -15 13l-71 173h-383l-71 -172q-5 -14 -15 -14h-31q-8 0 -12 6t0 16l296 708q5 13 17 13h19q12 0 17 -13zM356 649l-168 -407h335zM108 574q-10 0 -17 7.5t-8 18.5l-6 120q0 9 5 15.5t14 6.5h24q8 0 13 -7t5 -14
l-7 -121q0 -10 -6.5 -18t-16.5 -8z" />
    <glyph glyph-name="anoteleia" unicode="&#x387;" horiz-adv-x="227" 
d="M55 277q0 19 13.5 32.5t32.5 13.5q20 0 33.5 -13.5t13.5 -32.5t-13.5 -32.5t-33.5 -13.5q-19 0 -32.5 13.5t-13.5 32.5z" />
    <glyph glyph-name="Epsilontonos" unicode="&#x388;" horiz-adv-x="642" 
d="M78 16v710q0 16 16 16h486q18 0 18 -14v-27q0 -16 -18 -16h-444v-268h357q19 0 19 -16v-26q0 -16 -19 -16h-357v-302h451q17 0 17 -13v-30q0 -14 -17 -14h-493q-16 0 -16 16zM5 576q-10 0 -17 7.5t-8 18.5l-6 120q0 9 5 15.5t14 6.5h24q8 0 13 -7t5 -14l-7 -121
q0 -10 -7 -18t-16 -8z" />
    <glyph glyph-name="Etatonos" unicode="&#x389;" horiz-adv-x="826" 
d="M637 17v334h-488v-334q0 -17 -16 -17h-26q-16 0 -16 17v707q0 18 16 18h27q15 0 15 -17v-317h488v316q0 18 15 18h27q15 0 15 -17v-708q0 -17 -16 -17h-26q-15 0 -15 17zM7 574q-10 0 -17 7.5t-8 18.5l-6 120q0 9 5 15.5t14 6.5h24q8 0 13 -7t5 -14l-7 -121q0 -10 -7 -18
t-16 -8z" />
    <glyph glyph-name="Iotatonos" unicode="&#x38a;" horiz-adv-x="218" 
d="M80 18v706q0 18 19 18h20q19 0 19 -18v-706q0 -18 -19 -18h-20q-19 0 -19 18zM-4 574q-11 0 -18 7.5t-8 18.5l-5 120q-1 9 4 15.5t14 6.5h25q8 0 13 -7t4 -14l-6 -121q0 -10 -6.5 -18t-16.5 -8z" />
    <glyph glyph-name="Omicrontonos" unicode="&#x38c;" horiz-adv-x="879" 
d="M55 370q0 158 111.5 270t269.5 112q157 0 269 -112t112 -270q0 -157 -111.5 -268.5t-269.5 -111.5t-269.5 111t-111.5 269zM114 371q0 -133 94 -227.5t228 -94.5q133 0 227.5 94.5t94.5 227.5t-94.5 227.5t-227.5 94.5t-227.5 -94.5t-94.5 -227.5zM29 574q-10 0 -17 7.5
t-8 18.5l-6 120q0 9 5 15.5t14 6.5h24q8 0 13 -7t5 -14l-7 -121q0 -10 -7 -18t-16 -8z" />
    <glyph glyph-name="Upsilontonos" unicode="&#x38e;" horiz-adv-x="628" 
d="M313 328l-242 394q-5 9 -1 14.5t12 5.5h35q8 0 15 -10l209 -348l211 347q7 11 16 11h31q20 0 10 -18l-238 -396v-310q0 -18 -14 -18h-31q-13 0 -13 18v310zM12 574q-10 0 -17 7.5t-8 18.5l-6 120q0 9 5 15.5t14 6.5h24q8 0 13 -7t5 -14l-7 -121q0 -10 -6.5 -18t-16.5 -8z
" />
    <glyph glyph-name="Omegatonos" unicode="&#x38f;" horiz-adv-x="750" 
d="M450 0q-16 0 -16 14v144q0 7 6.5 11t18 8t16.5 6q69 33 110.5 98t41.5 144q0 111 -78.5 189.5t-189.5 78.5t-189 -78.5t-78 -189.5q0 -87 46.5 -153t132.5 -99q15 -6 15 -15v-144q0 -14 -16 -14h-197q-19 0 -19 18v21q0 18 19 18h155v68q-89 37 -143.5 118.5t-54.5 180.5
q0 136 96.5 232.5t232.5 96.5t232 -96.5t96 -232.5q0 -98 -53.5 -179t-140.5 -119v-69h151q19 0 19 -18v-21q0 -18 -19 -18h-194zM19 574q-10 0 -17 7.5t-8 18.5l-6 120q0 9 5 15.5t14 6.5h24q8 0 13 -7t5 -14l-7 -121q0 -10 -6.5 -18t-16.5 -8z" />
    <glyph glyph-name="iotadieresistonos" unicode="&#x390;" horiz-adv-x="217" 
d="M80 18v453q0 19 19 19h20q19 0 19 -19v-453q0 -18 -18 -18h-21q-19 0 -19 18zM113 594q-11 0 -18 7.5t-8 18.5l-5 120q-1 9 4 15.5t14 6.5h25q8 0 13 -7t4 -14l-6 -121q-1 -10 -7.5 -18t-15.5 -8zM-36 624q0 18 13 31t31 13q19 0 31.5 -13t12.5 -31t-12.5 -30.5
t-31.5 -12.5q-18 0 -31 12.5t-13 30.5zM166 625q0 18 13 30.5t31 12.5t30.5 -12.5t12.5 -30.5t-12.5 -31t-30.5 -13t-31 13t-13 31z" />
    <glyph glyph-name="Alpha" unicode="&#x391;" horiz-adv-x="716" 
d="M384 729l292 -708q5 -10 0.5 -16t-13.5 -6h-30q-10 0 -15 13l-71 173h-383l-71 -172q-5 -14 -15 -14h-31q-8 0 -12 6t0 16l296 708q5 13 17 13h19q12 0 17 -13zM356 649l-168 -407h335z" />
    <glyph glyph-name="Beta" unicode="&#x392;" horiz-adv-x="678" 
d="M97 742h294q82 0 139 -54.5t57 -135.5q0 -49 -23.5 -90.5t-62.5 -67.5q54 -22 89 -75t35 -115q0 -82 -57 -142.5t-139 -61.5h-333q-15 0 -15 14v709q0 19 16 19zM567 204q0 59 -42.5 105.5t-98.5 46.5h-288v-299h291q57 0 97.5 43.5t40.5 103.5zM529 552q0 58 -39.5 95.5
t-99.5 37.5h-252v-272h252q59 0 99 40t40 99z" />
    <glyph glyph-name="Gamma" unicode="&#x393;" horiz-adv-x="605" 
d="M559 685h-420v-669q0 -16 -15 -16h-27q-16 0 -16 16v709q0 17 16 17h462q17 0 17 -15v-29q0 -13 -17 -13z" />
    <glyph glyph-name="Delta" unicode="&#x394;" horiz-adv-x="735" 
d="M47 21l291 708q6 13 17 13h29q12 0 17 -13l291 -708q4 -9 -0.5 -15t-12.5 -6h-619q-9 0 -13 6t0 15zM370 663l-245 -608h488z" />
    <glyph glyph-name="Epsilon" unicode="&#x395;" horiz-adv-x="642" 
d="M81 16v710q0 16 16 16h486q17 0 17 -14v-27q0 -16 -17 -16h-445v-268h357q19 0 19 -16v-26q0 -16 -19 -16h-357v-302h452q17 0 17 -13v-30q0 -14 -17 -14h-493q-16 0 -16 16z" />
    <glyph glyph-name="Zeta" unicode="&#x396;" horiz-adv-x="682" 
d="M68 742h521q15 0 15 -15v-25q0 -4 -4 -9l-488 -636h472q17 0 17 -14v-28q0 -15 -17 -15h-537q-15 0 -15 15v24q0 7 4 11l490 634h-458q-18 0 -18 15v28q0 15 18 15z" />
    <glyph glyph-name="Eta" unicode="&#x397;" horiz-adv-x="773" 
d="M626 17v334h-488v-334q0 -17 -15 -17h-26q-16 0 -16 17v707q0 18 16 18h26q15 0 15 -17v-317h488v316q0 18 16 18h26q16 0 16 -17v-708q0 -17 -17 -17h-25q-16 0 -16 17z" />
    <glyph glyph-name="Theta" unicode="&#x398;" horiz-adv-x="853" 
d="M44 370q0 158 111.5 270t268.5 112q158 0 269.5 -112t111.5 -270q0 -157 -111.5 -268.5t-269.5 -111.5t-269 111t-111 269zM102 371q0 -133 94 -227.5t228 -94.5q133 0 227.5 94.5t94.5 227.5t-94.5 227.5t-227.5 94.5t-227.5 -94.5t-94.5 -227.5zM252 406h325
q17 0 17 -16v-26q0 -17 -17 -17h-325q-16 0 -16 17v26q0 16 16 16z" />
    <glyph glyph-name="Iota" unicode="&#x399;" horiz-adv-x="218" 
d="M80 18v706q0 18 19 18h20q19 0 19 -18v-706q0 -18 -19 -18h-20q-19 0 -19 18z" />
    <glyph glyph-name="Kappa" unicode="&#x39a;" horiz-adv-x="734" 
d="M610 719l-269 -285l348 -412q6 -8 2.5 -15t-12.5 -7h-41q-9 0 -20 12l-315 381l-164 -174v-202q0 -17 -15 -17h-27q-16 0 -16 17v708q0 17 16 17h26q16 0 16 -17v-421l402 427q10 11 20 11h40q9 0 12.5 -8t-3.5 -15z" />
    <glyph glyph-name="Lambda" unicode="&#x39b;" horiz-adv-x="718" 
d="M395 730l293 -709q4 -11 -0.5 -17t-12.5 -6h-36q-10 0 -15 13l-256 633l-260 -632q-5 -14 -15 -14h-35q-7 0 -11.5 6t-0.5 16l296 710q5 13 17 13h19q12 0 17 -13z" />
    <glyph glyph-name="Mu" unicode="&#x39c;" horiz-adv-x="859" 
d="M420 65l-253 571l-55 -620q-1 -16 -17 -16h-31q-13 0 -11 18l68 709q2 15 18 15h34q8 0 12 -10l264 -590l260 588q5 12 14 12h37q16 0 17 -15l67 -710q2 -17 -14 -17h-27q-16 0 -17 15l-56 619l-253 -569q-5 -10 -14 -10h-28q-10 0 -15 10z" />
    <glyph glyph-name="Nu" unicode="&#x39d;" horiz-adv-x="771" 
d="M643 103v623q0 17 17 17h24q17 0 17 -16v-713q0 -14 -16 -14h-26q-10 0 -18 10l-503 636v-628q0 -18 -18 -18h-21q-18 0 -18 18v706q0 18 16 18h32q6 0 9 -5z" />
    <glyph glyph-name="Xi" unicode="&#x39e;" horiz-adv-x="619" 
d="M137 396h315q17 0 17 -16v-26q0 -16 -17 -16h-315q-16 0 -16 16v26q0 16 16 16zM41 58h510q17 0 17 -16v-26q0 -16 -16 -16h-511q-16 0 -16 16v26q0 16 16 16zM53 742h484q16 0 16 -16v-25q0 -17 -17 -17h-483q-17 0 -17 17v25q0 16 17 16z" />
    <glyph glyph-name="Omicron" unicode="&#x39f;" horiz-adv-x="853" 
d="M44 370q0 158 111.5 270t269.5 112q157 0 268.5 -112t111.5 -270q0 -157 -111.5 -268.5t-269.5 -111.5t-269 111t-111 269zM102 371q0 -134 94.5 -228t228.5 -94q133 0 227.5 94.5t94.5 227.5t-94.5 227.5t-227.5 94.5q-134 0 -228.5 -94.5t-94.5 -227.5z" />
    <glyph glyph-name="Pi" unicode="&#x3a0;" horiz-adv-x="664" 
d="M543 15v669h-405v-669q0 -15 -13 -15h-27q-15 0 -15 15v711q0 16 15 16h485q16 0 16 -15v-712q0 -15 -17 -15h-26q-13 0 -13 15z" />
    <glyph glyph-name="Rho" unicode="&#x3a1;" horiz-adv-x="629" 
d="M81 17v705q0 20 18 20h242q95 0 163 -67.5t68 -163.5q0 -95 -67.5 -163t-162.5 -68h-204v-263q0 -17 -15 -17h-26q-10 0 -13 3.5t-3 13.5zM515 511q0 73 -51 124.5t-123 51.5h-203v-352h203q72 0 123 51.5t51 124.5z" />
    <glyph glyph-name="Sigma" unicode="&#x3a3;" horiz-adv-x="608" 
d="M60 16v23q0 7 6 15l272 318l-275 317q-5 7 -5 15v23q0 15 16 15h487q16 0 16 -15v-28q0 -16 -16 -16h-415l260 -299q9 -13 0 -22l-259 -304h424q16 0 16 -15v-27q0 -16 -16 -16h-495q-16 0 -16 16z" />
    <glyph glyph-name="Tau" unicode="&#x3a4;" horiz-adv-x="611" 
d="M39 742h523q20 0 20 -18v-22q0 -18 -20 -18h-232v-666q0 -18 -18 -18h-21q-18 0 -18 18v666h-234q-18 0 -18 20v20q0 18 18 18z" />
    <glyph glyph-name="Upsilon" unicode="&#x3a5;" horiz-adv-x="553" 
d="M252 328l-242 394q-5 9 -1 14.5t12 5.5h34q9 0 16 -10l208 -348l212 347q6 11 15 11h31q8 0 11.5 -4t-1.5 -14l-238 -396v-310q0 -18 -14 -18h-30q-13 0 -13 18v310z" />
    <glyph glyph-name="Phi" unicode="&#x3a6;" horiz-adv-x="771" 
d="M37 370q0 124 92.5 215.5t227.5 102.5v39q0 16 16 16h26q16 0 16 -16v-39q135 -11 228.5 -102.5t93.5 -215.5q0 -125 -93 -215.5t-229 -101.5v-38q0 -15 -16 -15h-26q-16 0 -16 15v38q-136 11 -228 101.5t-92 215.5zM679 370q0 103 -75.5 176t-188.5 83v-517
q113 10 188.5 82.5t75.5 175.5zM95 370q0 -103 74.5 -175.5t187.5 -82.5v516q-113 -9 -187.5 -81.5t-74.5 -176.5z" />
    <glyph glyph-name="Chi" unicode="&#x3a7;" horiz-adv-x="620" 
d="M577 720l-239 -350l236 -348q5 -10 0.5 -16t-11.5 -6h-32q-10 0 -17 10l-209 310l-209 -310q-7 -10 -17 -10h-31q-9 0 -13 6t2 17l234 346l-236 351q-5 10 -1.5 16t11.5 6h32q9 0 17 -10l211 -313l212 313q7 10 17 10h32q7 0 11.5 -6t-0.5 -16z" />
    <glyph glyph-name="Psi" unicode="&#x3a8;" horiz-adv-x="664" 
d="M45 544v184q0 15 16 15h27q17 0 17 -15v-177q0 -88 53 -151t139 -75v402q0 16 16 16h26q16 0 16 -16v-403q88 11 141.5 74.5t53.5 152.5v176q0 15 14 15h30q15 0 15 -14v-154q0 -30 -3 -58q-10 -100 -80.5 -169t-170.5 -79v-253q0 -15 -16 -15h-26q-16 0 -16 15v253
q-107 12 -179.5 91t-72.5 185z" />
    <glyph glyph-name="Iotadieresis" unicode="&#x3aa;" horiz-adv-x="218" 
d="M80 18v706q0 18 19 18h20q19 0 19 -18v-706q0 -18 -19 -18h-20q-19 0 -19 18zM-22 846q0 18 12.5 30.5t30.5 12.5q19 0 31.5 -12.5t12.5 -30.5t-12.5 -31t-31.5 -13q-18 0 -30.5 13t-12.5 31zM160 846q0 18 12.5 31t30.5 13q19 0 31.5 -13t12.5 -31t-12.5 -30.5
t-31.5 -12.5q-18 0 -30.5 12.5t-12.5 30.5z" />
    <glyph glyph-name="Upsilondieresis" unicode="&#x3ab;" horiz-adv-x="553" 
d="M252 328l-242 394q-5 9 -1 14.5t12 5.5h34q9 0 16 -10l208 -348l212 347q6 11 15 11h31q8 0 11.5 -4t-1.5 -14l-238 -396v-310q0 -18 -14 -18h-30q-13 0 -13 18v310zM145 875q0 18 13 30.5t31 12.5q19 0 31.5 -12.5t12.5 -30.5t-12.5 -31t-31.5 -13q-18 0 -31 13t-13 31z
M327 875q0 18 13 31t31 13t30.5 -13t12.5 -31t-12.5 -30.5t-30.5 -12.5t-31 12.5t-13 30.5z" />
    <glyph glyph-name="alphatonos" unicode="&#x3ac;" horiz-adv-x="562" 
d="M283 574q-10 0 -17 7.5t-8 18.5l-6 120q0 9 5 15.5t14 6.5h24q8 0 13 -7t5 -14l-7 -121q0 -10 -7 -18t-16 -8zM102 398l-13 13q-11 12 0 24q71 73 179 73q82 0 141 -55.5t59 -148.5v-287q0 -17 -15 -17h-22q-17 0 -17 19l-1 75q-14 -25 -25 -39.5t-31 -33t-49 -27.5
t-67 -9q-86 0 -133 45.5t-47 114.5q0 60 46.5 101.5t130.5 41.5h176q0 70 -42 117t-104 47q-81 0 -140 -50q-19 -15 -26 -4zM416 238h-164q-67 0 -101 -25t-34 -70q0 -42 31 -73t96 -31q69 0 120.5 52.5t51.5 146.5z" />
    <glyph glyph-name="epsilontonos" unicode="&#x3ad;" horiz-adv-x="437" 
d="M229 574q-10 0 -17 7.5t-8 18.5l-6 120q0 9 5 15.5t14 6.5h24q8 0 13 -7t5 -14l-7 -121q0 -10 -7 -18t-16 -8zM374 425l-15 -21q-9 -11 -19 -2q-44 39 -104 39h-11q-43 0 -65 -21t-22 -59q0 -31 22.5 -54t54.5 -23h56q15 0 19 -4.5t4 -13.5v-27q0 -10 -10 -10h-79
q-36 0 -61.5 -26.5t-25.5 -61.5q0 -38 27 -63.5t70 -25.5h11q81 0 120 43q8 10 18 0l21 -21q12 -12 -13 -33q-31 -25 -62.5 -34.5t-82.5 -9.5q-71 0 -120 39.5t-49 103.5q0 76 70 121q-50 37 -50 100q0 64 44 99.5t115 35.5q64 0 121 -37q28 -18 16 -34z" />
    <glyph glyph-name="etatonos" unicode="&#x3ae;" horiz-adv-x="591" 
d="M138 299v-281q0 -18 -18 -18h-21q-18 0 -18 18v458q0 16 15 16h29q10 0 12 -11l1 -68q26 39 68.5 63t91.5 24q85 0 143 -59.5t58 -146.5v-467q0 -20 -19 -20h-21q-18 0 -18 20v468q0 61 -44 104.5t-105 43.5t-106 -42t-48 -102zM294 574q-10 0 -17 7.5t-8 18.5l-6 120
q0 9 5 15.5t14 6.5h24q8 0 13 -7t5 -14l-7 -121q0 -10 -6.5 -18t-16.5 -8z" />
    <glyph glyph-name="iotatonos" unicode="&#x3af;" horiz-adv-x="217" 
d="M80 18v453q0 19 19 19h20q19 0 19 -19v-453q0 -18 -18 -18h-21q-19 0 -19 18zM109 574q-11 0 -18 7.5t-8 18.5l-5 120q-1 9 4 15.5t14 6.5h25q8 0 13 -7t4 -14l-6 -121q0 -10 -7 -18t-16 -8z" />
    <glyph glyph-name="upsilondieresistonos" unicode="&#x3b0;" horiz-adv-x="568" 
d="M486 471v-277q0 -85 -62 -145.5t-148 -60.5q-88 0 -149 60t-61 146v277q0 18 18 18h25q18 0 18 -18v-279q0 -59 44 -102.5t105 -43.5t104.5 42.5t43.5 103.5v279q0 18 18 18h25q19 0 19 -18zM284 594q-11 0 -18 7.5t-8 18.5l-5 120q-1 9 4 15.5t14 6.5h25q8 0 13 -7
t4 -14l-6 -121q-1 -10 -7.5 -18t-15.5 -8zM135 624q0 18 13 31t31 13q19 0 31.5 -13t12.5 -31t-12.5 -30.5t-31.5 -12.5q-18 0 -31 12.5t-13 30.5zM337 625q0 18 13 30.5t31 12.5t30.5 -12.5t12.5 -30.5t-12.5 -31t-30.5 -13t-31 13t-13 31z" />
    <glyph glyph-name="alpha" unicode="&#x3b1;" horiz-adv-x="562" 
d="M102 398l-13 13q-11 12 0 24q71 73 179 73q82 0 141 -55.5t59 -148.5v-287q0 -17 -15 -17h-22q-17 0 -17 19l-1 75q-14 -25 -25 -39.5t-31 -33t-49 -27.5t-67 -9q-86 0 -133 45.5t-47 114.5q0 60 46.5 101.5t130.5 41.5h176q0 70 -42 117t-104 47q-81 0 -140 -50
q-19 -15 -26 -4zM416 238h-164q-67 0 -101 -25t-34 -70q0 -42 31 -73t96 -31q69 0 120.5 52.5t51.5 146.5z" />
    <glyph glyph-name="beta" unicode="&#x3b2;" horiz-adv-x="570" 
d="M275 -29q-16 0 -16 14v34q0 13 19 13q86 0 142.5 51.5t56.5 132.5q0 80 -49 127t-150 47q-19 0 -19 16v27q0 16 20 16q45 0 75.5 12.5t44 33t18.5 39t5 38.5q0 59 -42 93t-103 34q-65 0 -101.5 -46t-36.5 -120v-707q0 -17 -16 -17h-28q-15 0 -15 17v717q0 97 55.5 156
t143.5 59q89 0 146 -54.5t57 -130.5q0 -95 -70 -147q58 -24 93.5 -82.5t35.5 -129.5q0 -102 -70.5 -172.5t-195.5 -70.5z" />
    <glyph glyph-name="gamma" unicode="&#x3b3;" horiz-adv-x="458" 
d="M238 88l162 396q4 7 14 7h32q13 0 13 -9q0 -5 -3 -13l-187 -449v-194q0 -16 -17 -16h-26q-16 0 -16 16v188l-190 455q-3 8 -3 13q0 9 14 9h32q10 0 13 -7z" />
    <glyph glyph-name="delta" unicode="&#x3b4;" horiz-adv-x="610" 
d="M305 494l-211 196q-6 6 -6 12v24q0 10 3.5 13t14.5 3h384q16 0 16 -17v-24q0 -16 -16 -16h-306l289 -259q34 -30 56.5 -79.5t23.5 -100.5v-2q0 -106 -74.5 -180.5t-180.5 -74.5t-180 74.5t-74 180.5q0 107 76 178.5t185 71.5zM101 244q0 -82 57.5 -140t138.5 -58
q79 0 138.5 58t59.5 138q0 82 -58 141t-140 59q-81 0 -138.5 -58.5t-57.5 -139.5z" />
    <glyph glyph-name="epsilon" unicode="&#x3b5;" horiz-adv-x="437" 
d="M374 425l-15 -21q-9 -11 -19 -2q-44 39 -104 39h-11q-43 0 -65 -21t-22 -59q0 -31 22.5 -54t54.5 -23h56q15 0 19 -4.5t4 -13.5v-27q0 -10 -10 -10h-79q-36 0 -61.5 -26.5t-25.5 -61.5q0 -38 27 -63.5t70 -25.5h11q81 0 120 43q8 10 18 0l21 -21q12 -12 -13 -33
q-31 -25 -62.5 -34.5t-82.5 -9.5q-71 0 -120 39.5t-49 103.5q0 76 70 121q-50 37 -50 100q0 64 44 99.5t115 35.5q64 0 121 -37q28 -18 16 -34z" />
    <glyph glyph-name="zeta" unicode="&#x3b6;" horiz-adv-x="479" 
d="M266 57h56q61 0 106.5 -47t45.5 -114q0 -68 -40 -121q-10 -15 -23 -6l-22 17q-11 8 -2 20q30 40 30 86q0 49 -28 78.5t-68 29.5h-57q-96 0 -163 63.5t-67 157.5q0 87 83 186l236 282h-275q-16 0 -16 16v25q0 6 4.5 11t11.5 5h344q7 0 12 -5t5 -12l-1 -19q0 -11 -13 -25
l-280 -334q-50 -60 -50 -123q0 -72 48.5 -121.5t122.5 -49.5z" />
    <glyph glyph-name="eta" unicode="&#x3b7;" horiz-adv-x="591" 
d="M138 299v-281q0 -18 -18 -18h-21q-18 0 -18 18v458q0 16 15 16h29q10 0 12 -11l1 -68q26 39 68.5 63t91.5 24q85 0 143 -59.5t58 -146.5v-467q0 -20 -19 -20h-21q-18 0 -18 20v468q0 61 -44 104.5t-105 43.5t-106 -42t-48 -102z" />
    <glyph glyph-name="theta" unicode="&#x3b8;" horiz-adv-x="577" 
d="M48 372q0 171 70 276.5t171 105.5q100 0 170.5 -106t70.5 -277q0 -169 -70.5 -274.5t-171.5 -105.5q-100 0 -170 105.5t-70 275.5zM287 694q-72 0 -123 -86.5t-57 -209.5h362q-6 122 -58 209t-124 87zM287 48q71 0 123 85.5t59 206.5h-362q6 -121 57 -206.5t123 -85.5z
" />
    <glyph glyph-name="iota" unicode="&#x3b9;" horiz-adv-x="217" 
d="M80 18v453q0 18 19 18h20q19 0 19 -18v-453q0 -18 -19 -18h-20q-19 0 -19 18zM62 632q0 19 13.5 33t32.5 14q20 0 33.5 -13.5t13.5 -33.5q0 -19 -14 -32.5t-33 -13.5t-32.5 13.5t-13.5 32.5z" />
    <glyph glyph-name="kappa" unicode="&#x3ba;" horiz-adv-x="547" 
d="M393 489h67q19 0 19 -14v-25q0 -16 -16 -16h-55l-137 -128l234 -282q6 -5 5 -14.5t-14 -9.5h-27q-10 0 -16 2t-9 4.5t-9 10.5l-203 249l-94 -89v-159q0 -18 -19 -18h-20q-18 0 -18 18v452q0 19 18 19h20q19 0 19 -19v-216l241 230q5 5 14 5z" />
    <glyph glyph-name="lambda" unicode="&#x3bb;" horiz-adv-x="516" 
d="M233 613l242 -589q9 -24 -12 -24h-30q-13 0 -18 12l-165 414l-169 -416q-4 -10 -25 -10h-22q-7 0 -12 5.5t-1 16.5l197 474l-43 106q-35 85 -104 85q-15 0 -15 11v35q0 15 16 15q35 0 62 -10.5t45.5 -32.5t29.5 -41.5t24 -50.5z" />
    <glyph glyph-name="uni03BC" unicode="&#x3bc;" horiz-adv-x="589" 
d="M81 -174v644q0 19 18 19h21q19 0 19 -19v-279q0 -59 44.5 -101.5t104.5 -43.5h2q62 0 107.5 43t45.5 104v278q0 18 18 18h21q19 0 19 -18v-453q0 -18 -19 -18h-18q-19 0 -19 18l-2 59q-27 -38 -67.5 -62t-87.5 -24q-93 0 -150 81v-246q0 -19 -18 -19h-21q-18 0 -18 19z
" />
    <glyph glyph-name="nu" unicode="&#x3bd;" horiz-adv-x="506" 
d="M246 93l162 389q4 7 14 7h32q20 0 10 -22l-190 -453q-6 -14 -20 -14h-15q-15 0 -21 14l-190 453q-9 22 11 22h32q10 0 13 -7z" />
    <glyph glyph-name="xi" unicode="&#x3be;" horiz-adv-x="431" 
d="M328 380h-76q-70 0 -115.5 -45.5t-45.5 -117.5q0 -71 49 -117.5t120 -46.5h32q61 0 106.5 -47t45.5 -114q0 -26 -10.5 -63.5t-25.5 -53.5q-13 -15 -24 -8l-22 16q-13 8 -6 19q33 48 33 91q0 40 -30.5 71.5t-66.5 31.5h-30q-99 0 -164 62.5t-65 158.5q0 138 133 198
q-38 23 -60.5 64t-22.5 88q0 68 65 118h-99q-16 0 -16 17v25q0 16 16 16h342q6 0 11 -5t5 -13v-21q0 -19 -19 -19h-104q-24 0 -36 -2q-45 -8 -76 -42.5t-31 -80.5q0 -55 38.5 -88.5t95.5 -33.5h53q19 0 19 -18v-21q0 -19 -19 -19z" />
    <glyph glyph-name="omicron" unicode="&#x3bf;" horiz-adv-x="610" 
d="M43 245q0 106 74.5 181t180.5 75t181 -74.5t75 -181.5t-75 -181.5t-181 -74.5t-180.5 75t-74.5 181zM99 245q0 -83 58.5 -141.5t141.5 -58.5t141.5 58.5t58.5 141.5t-58.5 141.5t-141.5 58.5t-141.5 -58.5t-58.5 -141.5z" />
    <glyph glyph-name="pi" unicode="&#x3c0;" horiz-adv-x="631" 
d="M56 489h522q16 0 16 -15v-27q0 -16 -16 -16h-80v-416q0 -16 -16 -16h-26q-16 0 -16 16v416h-249v-416q0 -16 -16 -16h-26q-16 0 -16 16v416h-77q-16 0 -16 16v27q0 15 16 15z" />
    <glyph glyph-name="rho" unicode="&#x3c1;" horiz-adv-x="591" 
d="M76 -175v422q0 106 73 181t174 75q102 0 175.5 -75t73.5 -181q0 -105 -73.5 -180t-175.5 -75q-57 0 -107 26.5t-82 71.5v-265q0 -18 -18 -18h-21q-19 0 -19 18zM133 250q-1 -82 56 -142t135 -60t134.5 59t56.5 140q0 82 -56.5 141t-134.5 59q-76 0 -133 -58t-58 -139z
" />
    <glyph glyph-name="uni03C2" unicode="&#x3c2;" horiz-adv-x="512" 
d="M300 56h43q68 0 112 -42.5t44 -113.5q0 -28 -16 -64.5t-36 -57.5q-12 -14 -23 -3l-22 20q-10 9 0 21q38 44 38 86q0 48 -28.5 73t-69.5 25h-42q-104 0 -177.5 73.5t-73.5 176.5q0 104 74 177t177 73q79 0 145 -47q29 -21 22 -33l-15 -23q-7 -11 -18 -3q-61 50 -136 50
q-79 0 -135 -57t-56 -137q0 -82 56.5 -138t136.5 -56z" />
    <glyph glyph-name="sigma" unicode="&#x3c3;" horiz-adv-x="596" 
d="M375 487h187q13 0 13 -13v-29q0 -15 -13 -15h-113q42 -29 67.5 -78t25.5 -103q0 -106 -72 -181.5t-175 -75.5t-174.5 75.5t-71.5 181.5t71 179.5t175 73.5q43 0 80 -15zM107 249q0 -82 54.5 -141.5t134.5 -59.5q79 0 133 59.5t54 141.5t-55 139.5t-132 57.5
q-80 0 -134.5 -57.5t-54.5 -139.5z" />
    <glyph glyph-name="tau" unicode="&#x3c4;" horiz-adv-x="421" 
d="M37 491h368q14 0 14 -14v-30q0 -14 -14 -14h-155v-418q0 -16 -16 -16h-26q-16 0 -16 16v418h-155q-13 0 -13 14v30q0 14 13 14z" />
    <glyph glyph-name="upsilon" unicode="&#x3c5;" horiz-adv-x="568" 
d="M486 471v-277q0 -85 -62 -145.5t-148 -60.5q-88 0 -149 60t-61 146v277q0 18 18 18h25q18 0 18 -18v-279q0 -59 44 -102.5t105 -43.5t104.5 42.5t43.5 103.5v279q0 18 18 18h25q19 0 19 -18z" />
    <glyph glyph-name="phi" unicode="&#x3c6;" horiz-adv-x="603" 
d="M271 494v166q0 15 15 15h26q16 0 16 -15v-166q95 -11 159.5 -82t64.5 -168t-64.5 -168.5t-159.5 -81.5v-169q0 -16 -16 -16h-26q-15 0 -15 16v169q-95 11 -158.5 82t-63.5 168t63.5 168t158.5 82zM494 244q0 73 -47.5 128t-118.5 65v-386q71 9 118.5 64t47.5 129z
M107 244q0 -73 47 -127.5t117 -65.5v386q-70 -11 -117 -66t-47 -127z" />
    <glyph glyph-name="chi" unicode="&#x3c7;" horiz-adv-x="620" 
d="M578 468l-240 -321l237 -319q6 -9 1.5 -15t-12.5 -6h-31q-10 0 -18 9l-210 285l-211 -284q-7 -10 -16 -10h-32q-8 0 -12.5 6t1.5 15l236 318l-238 322q-5 9 -1.5 14.5t11.5 5.5h33q8 0 16 -9l213 -287l213 287q7 9 17 9h32q7 0 11.5 -5.5t-0.5 -14.5z" />
    <glyph glyph-name="psi" unicode="&#x3c8;" horiz-adv-x="582" 
d="M509 471v-277q0 -76 -58 -134t-138 -69v-168q0 -16 -17 -16h-26q-16 0 -16 16v168q-81 10 -139 68t-58 135v277q0 18 18 18h23q18 0 18 -18v-279q0 -57 37 -97.5t101 -48.5v618q0 16 16 16h26q17 0 17 -16v-618q64 8 100.5 48.5t36.5 97.5v279q0 18 17 18h24q18 0 18 -18
z" />
    <glyph glyph-name="omega" unicode="&#x3c9;" horiz-adv-x="672" 
d="M132 496l28 -19q15 -7 7 -18q-20 -26 -33 -69.5t-13 -80.5v-156q0 -44 28 -72t66 -28q34 0 64 26.5t30 62.5v192q0 11 11 11h32q12 0 12 -11v-192q0 -36 28.5 -62.5t64.5 -26.5q38 0 66 28t28 72v157q0 36 -12.5 79.5t-32.5 69.5q-10 13 5 22l24 13q13 7 23 -7
q52 -69 52 -176v-159q0 -59 -42 -108.5t-109 -49.5q-78 0 -123 64q-44 -64 -123 -64q-65 0 -107.5 48t-42.5 105v164q0 44 13.5 96.5t34.5 78.5q12 16 21 10z" />
    <glyph glyph-name="iotadieresis" unicode="&#x3ca;" horiz-adv-x="217" 
d="M80 18v453q0 19 19 19h20q19 0 19 -19v-453q0 -18 -18 -18h-21q-19 0 -19 18zM-26 624q0 18 12.5 31t30.5 13q19 0 31.5 -13t12.5 -31t-12.5 -30.5t-31.5 -12.5q-18 0 -30.5 12.5t-12.5 30.5zM156 625q0 18 12.5 30.5t30.5 12.5q19 0 31.5 -12.5t12.5 -30.5t-12.5 -31
t-31.5 -13q-18 0 -30.5 13t-12.5 31z" />
    <glyph glyph-name="upsilondieresis" unicode="&#x3cb;" horiz-adv-x="568" 
d="M486 471v-277q0 -85 -62 -145.5t-148 -60.5q-88 0 -149 60t-61 146v277q0 18 18 18h25q18 0 18 -18v-279q0 -59 44 -102.5t105 -43.5t104.5 42.5t43.5 103.5v279q0 18 18 18h25q19 0 19 -18zM136 624q0 18 13 31t31 13q19 0 31.5 -13t12.5 -31t-12.5 -30.5t-31.5 -12.5
q-18 0 -31 12.5t-13 30.5zM318 625q0 18 13 30.5t31 12.5t30.5 -12.5t12.5 -30.5t-12.5 -31t-30.5 -13t-31 13t-13 31z" />
    <glyph glyph-name="omicrontonos" unicode="&#x3cc;" horiz-adv-x="610" 
d="M287 574q-11 0 -18 7.5t-8 18.5l-5 120q-1 9 4 15.5t14 6.5h25q8 0 13 -7t4 -14l-6 -121q0 -10 -7 -18t-16 -8zM43 245q0 106 74.5 181t180.5 75t181 -74.5t75 -181.5t-75 -181.5t-181 -74.5t-180.5 75t-74.5 181zM99 245q0 -83 58.5 -141.5t141.5 -58.5t141.5 58.5
t58.5 141.5t-58.5 141.5t-141.5 58.5t-141.5 -58.5t-58.5 -141.5z" />
    <glyph glyph-name="upsilontonos" unicode="&#x3cd;" horiz-adv-x="568" 
d="M486 471v-277q0 -85 -62 -145.5t-148 -60.5q-88 0 -149 60t-61 146v277q0 18 18 18h25q18 0 18 -18v-279q0 -59 44 -102.5t105 -43.5t104.5 42.5t43.5 103.5v279q0 18 18 18h25q19 0 19 -18zM274 574q-10 0 -17 7.5t-8 18.5l-6 120q0 9 5 15.5t14 6.5h24q8 0 13 -7t5 -14
l-7 -121q0 -10 -6.5 -18t-16.5 -8z" />
    <glyph glyph-name="omegatonos" unicode="&#x3ce;" horiz-adv-x="674" 
d="M134 496l28 -19q15 -7 7 -18q-20 -26 -33 -69.5t-13 -80.5v-156q0 -44 28 -72t66 -28q34 0 64 26.5t30 62.5v192q0 11 11 11h32q12 0 12 -11v-192q0 -36 28.5 -62.5t64.5 -26.5q38 0 66 28t28 72v157q0 36 -12.5 79.5t-32.5 69.5q-10 13 5 22l24 13q13 7 23 -7
q52 -69 52 -176v-159q0 -59 -42 -108.5t-109 -49.5q-78 0 -123 64q-44 -64 -123 -64q-65 0 -107.5 48t-42.5 105v164q0 44 13.5 96.5t34.5 78.5q12 16 21 10zM335 551q-10 0 -17 8t-8 19l-6 120q0 9 5 15.5t14 6.5h24q8 0 13 -7t5 -14l-7 -121q0 -10 -7 -18.5t-16 -8.5z" />
    <glyph glyph-name="uni03D0" unicode="&#x3d0;" horiz-adv-x="568" 
d="M278 -12q-81 2 -139.5 51t-58.5 129v400q0 83 56 131.5t135 48.5q80 0 135.5 -53t55.5 -132q0 -48 -22 -87t-59 -56q134 -50 134 -202q0 -100 -66 -164.5t-171 -65.5zM275 45q79 0 130 47t51 126q0 81 -48 125t-139 44q-18 0 -18 15v27q0 15 17 15h3q58 0 95.5 31
t37.5 86q0 56 -36.5 94t-98.5 38q-57 0 -94.5 -34.5t-37.5 -88.5v-404q1 -52 39.5 -86.5t98.5 -34.5z" />
    <glyph glyph-name="uni03D1" unicode="&#x3d1;" horiz-adv-x="537" 
d="M58 184v4q0 18 18 18h23q17 0 17 -19q0 -60 39.5 -98.5t97.5 -38.5q52 0 90 35.5t38 86.5v189h-133q-78 0 -134.5 56.5t-56.5 135.5v3q0 79 57.5 135.5t136.5 56.5t134.5 -52.5t55.5 -134.5l1 -140v-1h42q19 0 19 -18v-21q0 -19 -19 -19h-42v-184q0 -83 -55.5 -135
t-134.5 -52t-136.5 56.5t-57.5 136.5zM381 421v140q0 55 -37.5 91.5t-92.5 36.5q-56 0 -95 -39t-39 -94q0 -56 39 -95.5t92 -39.5h133z" />
    <glyph glyph-name="uni03F0" unicode="&#x3f0;" horiz-adv-x="430" 
d="M217 213l-133 -198q-9 -15 -26 -15h-29q-8 0 -9.5 6.5t1.5 9.5l164 243l-140 210q-5 7 -3 13.5t11 6.5h25q16 0 23 -12l116 -170l118 173q6 9 15 9h37q15 0 10 -10l-148 -220l164 -245q3 -2 1 -8t-10 -6h-33q-10 0 -20 14z" />
    <glyph glyph-name="afii10023" unicode="&#x401;" horiz-adv-x="642" 
d="M81 16v710q0 16 16 16h486q17 0 17 -14v-27q0 -16 -17 -16h-445v-268h357q19 0 19 -16v-26q0 -16 -19 -16h-357v-302h452q17 0 17 -13v-30q0 -14 -17 -14h-493q-16 0 -16 16zM211 917q0 18 13 31t31 13q19 0 31.5 -13t12.5 -31t-12.5 -30.5t-31.5 -12.5q-18 0 -31 12.5
t-13 30.5zM393 918q0 18 13 30.5t31 12.5t30.5 -12.5t12.5 -30.5t-12.5 -31t-30.5 -13t-31 13t-13 31z" />
    <glyph glyph-name="afii10051" unicode="&#x402;" horiz-adv-x="726" 
d="M50 742h473q19 0 20 -18v-20q0 -20 -20 -20h-207v-267q25 37 69.5 60t93.5 23q88 0 141.5 -62t53.5 -154v-266q0 -18 -19 -18h-21q-18 0 -18 18v277q0 61 -39 104t-100 43q-62 0 -111.5 -42.5t-49.5 -101.5v-280q0 -18 -15 -18h-27q-15 0 -15 18v666h-209q-18 0 -18 20
v20q0 18 18 18z" />
    <glyph glyph-name="afii10052" unicode="&#x403;" horiz-adv-x="571" 
d="M392 976l-55 -122q-8 -13 -18 -13h-30q-15 0 -6 19l52 122q7 13 17 13h34q15 0 6 -19zM532 685h-394v-670q0 -15 -14 -15h-27q-16 0 -16 15v712q0 16 16 16h435q17 0 17 -16v-29q0 -13 -17 -13z" />
    <glyph glyph-name="afii10053" unicode="&#x404;" horiz-adv-x="685" 
d="M662 70q-111 -81 -234 -81q-159 0 -271 111.5t-112 268.5v2q1 158 112.5 269.5t268.5 111.5q131 0 234 -79q19 -14 9 -28l-15 -21q-10 -14 -26 -2q-42 35 -97.5 54.5t-107.5 19.5q-118 0 -212.5 -88.5t-106.5 -209.5h357q16 0 16 -15v-26q0 -16 -16 -16h-357
q11 -121 104 -208t221 -87q101 0 192 67q22 17 33 2l14 -17q12 -14 -6 -28z" />
    <glyph glyph-name="afii10054" unicode="&#x405;" horiz-adv-x="641" 
d="M59 107q-14 17 -3 28l20 17q12 9 26 -7q86 -100 219 -100q90 0 153 42t63 122q0 30 -16 54t-36.5 38.5t-55 26.5t-56 17t-55.5 12q-129 29 -190.5 75t-61.5 124q0 90 69.5 142.5t190.5 52.5q141 0 235 -91q13 -13 0 -26l-17 -19q-12 -8 -30 8q-41 35 -81.5 52.5
t-99.5 18.5q-38 1 -73 -5.5t-66.5 -21.5t-50 -44t-18.5 -69q0 -41 33 -71t74.5 -44t104.5 -28q34 -8 52.5 -12.5t50 -15t50 -19.5t41 -24.5t35 -33t21 -42.5t8.5 -54q0 -105 -79.5 -162.5t-194.5 -57.5q-163 0 -262 117z" />
    <glyph glyph-name="afii10055" unicode="&#x406;" horiz-adv-x="218" 
d="M80 18v706q0 18 19 18h20q19 0 19 -18v-706q0 -18 -19 -18h-20q-19 0 -19 18z" />
    <glyph glyph-name="afii10056" unicode="&#x407;" horiz-adv-x="218" 
d="M80 18v706q0 18 19 18h20q19 0 19 -18v-706q0 -18 -19 -18h-20q-19 0 -19 18zM-26 875q0 18 13 31t31 13q19 0 31.5 -13t12.5 -31t-12.5 -30.5t-31.5 -12.5q-18 0 -31 12.5t-13 30.5zM156 876q0 18 13 30.5t31 12.5t30.5 -12.5t12.5 -30.5t-12.5 -31t-30.5 -13t-31 13
t-13 31z" />
    <glyph glyph-name="afii10057" unicode="&#x408;" horiz-adv-x="400" 
d="M256 166v559q0 18 15 18h26q16 0 16 -19v-491q0 -53 -1 -79q-3 -70 -49 -116.5t-118 -46.5q-76 0 -124 48q-19 19 -9 29l21 21q10 10 24 -4q40 -37 84 -37q53 0 84 35.5t31 82.5z" />
    <glyph glyph-name="afii10058" unicode="&#x409;" horiz-adv-x="1054" 
d="M1025 230q0 -95 -67 -162.5t-163 -67.5h-242q-14 0 -14 15v670h-351v-534q0 -63 -45.5 -108.5t-107.5 -45.5q-22 0 -22 17v17q0 17 20 17q42 0 69.5 31.5t27.5 73.5v575q0 14 15 14h437q15 0 15 -14v-269h200q95 0 161.5 -67.5t66.5 -161.5zM795 402h-198v-346h198
q72 0 122.5 51t50.5 122t-50.5 122t-122.5 51z" />
    <glyph glyph-name="afii10059" unicode="&#x40a;" horiz-adv-x="1073" 
d="M81 15v712q0 16 15 16h26q16 0 16 -16v-269h378v269q0 15 15 15h26q16 0 16 -15v-269h199q96 0 162.5 -67.5t66.5 -161.5q0 -95 -67 -162t-163 -67h-242q-13 0 -13 15v386h-378v-386q0 -15 -16 -15h-26q-15 0 -15 15zM771 401h-198v-345h198q72 0 122 51t50 122
t-50.5 121.5t-121.5 50.5z" />
    <glyph glyph-name="afii10060" unicode="&#x40b;" horiz-adv-x="736" 
d="M600 16v277q0 61 -47 104t-109 43q-61 0 -107.5 -42t-46.5 -102v-281q0 -16 -16 -16h-26q-16 0 -16 16v670h-185q-16 0 -16 17v25q0 16 16 16h430q13 0 15 -14v-29q0 -8 -3 -11.5t-13 -3.5h-186v-274q27 39 68.5 63t88.5 24q100 0 155.5 -64.5t55.5 -147.5v-269
q0 -18 -17 -18h-23q-18 0 -18 17z" />
    <glyph glyph-name="afii10061" unicode="&#x40c;" horiz-adv-x="734" 
d="M435 977l-55 -122q-6 -13 -17 -13h-30q-17 0 -6 19l52 122q6 13 17 13h33q15 0 6 -19zM81 18v706q0 18 18 18h21q18 0 18 -18v-344q27 0 56 14.5t49 39.5l126 159q4 5 23.5 29.5t25.5 31.5t23 26t28 25.5t28.5 17t35 14t37.5 3.5q17 0 17 -15v-23q0 -6 -4 -10.5t-10 -4.5
q-65 0 -141 -101l-70 -92q-33 -43 -58 -75l336 -399q6 -9 3.5 -14.5t-9.5 -5.5h-42q-15 0 -28 16l-301 361q-68 -50 -125 -52v-307q0 -18 -18 -18h-21q-18 0 -18 18z" />
    <glyph glyph-name="afii10062" unicode="&#x40e;" horiz-adv-x="492" 
d="M235 833q46 0 78 29.5t32 68.5q0 20 -9 20h-29q-12 0 -12 -18t-16.5 -35t-42.5 -17q-27 0 -43.5 16t-16.5 35t-12 19h-23q-13 0 -13 -20q0 -39 31 -68.5t76 -29.5zM469 722l-242 -589q-13 -31 -24 -50.5t-29.5 -41.5t-45.5 -32.5t-62 -10.5q-16 0 -16 15v35q0 11 15 11
q69 0 104 85l43 106l-197 474q-4 11 1 16.5t12 5.5h22q21 0 25 -10l169 -416l165 414q5 12 18 12h30q21 0 12 -24z" />
    <glyph glyph-name="afii10145" unicode="&#x40f;" horiz-adv-x="620" 
d="M283 0h-184h-3q-16 0 -16 15v712q0 16 16 16h26q15 0 15 -16v-670h352v670q0 16 16 16h26q15 0 15 -16v-712q0 -15 -15 -15h-188v-132q0 -17 -18 -17h-25q-17 0 -17 17v132z" />
    <glyph glyph-name="afii10017" unicode="&#x410;" horiz-adv-x="716" 
d="M384 729l292 -708q5 -10 0.5 -16t-13.5 -6h-30q-10 0 -15 13l-71 173h-383l-71 -172q-5 -14 -15 -14h-31q-8 0 -12 6t0 16l296 708q5 13 17 13h19q12 0 17 -13zM356 649l-168 -407h335z" />
    <glyph glyph-name="afii10018" unicode="&#x411;" horiz-adv-x="654" 
d="M525 685h-387v-223h238q95 0 162.5 -68t67.5 -163q0 -96 -68 -163.5t-163 -67.5h-271q-10 0 -16.5 6.5t-6.5 16.5v696q0 23 22 23h422q22 0 22 -16v-24q0 -17 -22 -17zM550 231q0 73 -51 124.5t-124 51.5h-237v-352h237q73 0 124 51.5t51 124.5z" />
    <glyph glyph-name="afii10019" unicode="&#x412;" horiz-adv-x="678" 
d="M97 742h294q82 0 139 -54.5t57 -135.5q0 -49 -23.5 -90.5t-62.5 -67.5q54 -22 89 -75t35 -115q0 -82 -57 -142.5t-139 -61.5h-333q-15 0 -15 14v709q0 19 16 19zM567 204q0 59 -42.5 105.5t-98.5 46.5h-288v-299h291q57 0 97.5 43.5t40.5 103.5zM529 552q0 58 -39.5 95.5
t-99.5 37.5h-252v-272h252q59 0 99 40t40 99z" />
    <glyph glyph-name="afii10020" unicode="&#x413;" horiz-adv-x="570" 
d="M532 685h-394v-670q0 -15 -14 -15h-27q-16 0 -16 15v712q0 16 16 16h435q17 0 17 -16v-29q0 -13 -17 -13z" />
    <glyph glyph-name="afii10021" unicode="&#x414;" horiz-adv-x="734" 
d="M657 0h-577v-178q0 -15 -16 -15h-26q-15 0 -15 15v219q0 16 15 16h42q129 197 129 494v175q0 16 16 16h390q16 0 16 -15v-670h68q16 0 16 -15v-219q0 -16 -18 -16h-21q-19 0 -19 19v174zM267 685v-134q0 -168 -32 -282.5t-89 -211.5h428v628h-307z" />
    <glyph glyph-name="afii10022" unicode="&#x415;" horiz-adv-x="642" 
d="M81 16v710q0 16 16 16h486q17 0 17 -14v-27q0 -16 -17 -16h-445v-268h357q19 0 19 -16v-26q0 -16 -19 -16h-357v-302h452q17 0 17 -13v-30q0 -14 -17 -14h-493q-16 0 -16 16z" />
    <glyph glyph-name="afii10024" unicode="&#x416;" horiz-adv-x="904" 
d="M416 18v309q-34 3 -59 16l-253 -327q-12 -16 -30 -16h-36q-8 0 -10 5.5t3 12.5l278 354q-14 14 -27.5 34t-32.5 53.5t-26 44.5l-75 123q-12 19 -20.5 29.5t-25.5 19.5t-39 9h-29q-19 -2 -19 18v21q0 18 19 18h20q34 0 61.5 -11.5t51 -39t36 -46.5t36.5 -60l8 -15
q68 -117 88 -144q30 -42 81 -42v340q0 19 19 19h21q18 0 18 -19v-340q47 2 77 42q23 31 96 159q24 41 36.5 60t36 46.5t51 39t61.5 11.5h20q19 0 19 -18v-21q0 -18 -17 -18h-31q-22 0 -41.5 -13t-29.5 -25.5t-28 -39.5l-61 -103q-6 -10 -20.5 -35t-22 -38t-20 -30.5
t-23.5 -28.5l280 -356q5 -5 1.5 -10.5t-10.5 -5.5h-41q-13 0 -29 21l-249 322q-26 -14 -55 -15v-310q0 -18 -18 -18h-21q-19 0 -19 18z" />
    <glyph glyph-name="afii10025" unicode="&#x417;" horiz-adv-x="510" 
d="M189 432h89q57 0 99 37.5t42 96.5q0 51 -40 86t-98 38q-26 2 -40 2q-105 0 -161 -69q-12 -18 -25 -4l-21 20q-6 6 3 17q41 51 86.5 70.5t116.5 19.5q8 0 22 -0.5t21 -0.5q83 -4 137.5 -51.5t54.5 -126.5q0 -55 -29 -96t-70 -60q59 -28 94 -80t35 -119q0 -93 -62.5 -153
t-156.5 -65q-6 0 -18.5 -0.5t-19.5 -0.5q-147 0 -215 91q-11 15 -1 23l16 12q17 13 25 2q53 -72 173 -72q26 0 38 1q70 3 117 46.5t47 115.5q0 65 -44.5 114t-111.5 49h-103q-19 0 -19 18v21q0 18 19 18z" />
    <glyph glyph-name="afii10026" unicode="&#x418;" horiz-adv-x="771" 
d="M138 726v-623l505 634q5 5 10 5h31q17 0 17 -18v-706q0 -18 -18 -18h-21q-19 0 -19 18v628l-504 -638q-6 -8 -16 -8h-24q-18 0 -18 16v711q0 16 17 16h24q16 0 16 -17z" />
    <glyph glyph-name="afii10027" unicode="&#x419;" horiz-adv-x="771" 
d="M138 726v-623l505 634q5 5 10 5h31q17 0 17 -18v-706q0 -18 -18 -18h-21q-19 0 -19 18v628l-504 -638q-6 -8 -16 -8h-24q-18 0 -18 16v711q0 16 17 16h24q16 0 16 -17zM372 822q45 0 77.5 29.5t32.5 68.5q0 20 -10 20h-29q-11 0 -11 -18t-17 -35t-42 -17q-27 0 -43.5 16
t-16.5 35t-12 19h-23q-13 0 -13 -20q0 -39 31 -68.5t76 -29.5z" />
    <glyph glyph-name="afii10028" unicode="&#x41a;" horiz-adv-x="673" 
d="M80 18v706q0 18 19 18h21q18 0 18 -18v-344q27 0 55.5 14.5t48.5 39.5l126 159q4 5 23.5 29.5t25.5 31.5t23.5 26t28 25.5t28 17t35.5 14t38 3.5q16 0 16 -15v-23q0 -15 -14 -15q-37 0 -70.5 -26t-70.5 -75l-69 -92q-36 -48 -59 -75l336 -399q6 -9 3.5 -14.5t-8.5 -5.5
h-43q-14 0 -27 16l-301 361q-69 -50 -125 -52v-307q0 -18 -18 -18h-21q-19 0 -19 18z" />
    <glyph glyph-name="afii10029" unicode="&#x41b;" horiz-adv-x="742" 
d="M138 167v558q0 18 18 18h491q17 0 17 -16v-710q0 -17 -14 -17h-27q-17 0 -17 17v667h-411v-529q0 -33 -12 -66t-47 -61t-88 -28q-19 0 -19 17v24q0 13 18 13q42 0 66.5 33t24.5 80z" />
    <glyph glyph-name="afii10030" unicode="&#x41c;" horiz-adv-x="869" 
d="M420 65l-253 571l-55 -620q-1 -16 -17 -16h-31q-13 0 -11 18l68 709q2 15 18 15h34q8 0 12 -10l264 -590l260 588q5 12 14 12h37q16 0 17 -15l67 -710q2 -17 -14 -17h-27q-16 0 -17 15l-56 619l-253 -569q-5 -10 -14 -10h-28q-10 0 -15 10z" />
    <glyph glyph-name="afii10031" unicode="&#x41d;" horiz-adv-x="773" 
d="M626 17v334h-488v-334q0 -17 -15 -17h-26q-16 0 -16 17v707q0 18 16 18h26q15 0 15 -17v-317h488v316q0 18 16 18h26q16 0 16 -17v-708q0 -17 -17 -17h-25q-16 0 -16 17z" />
    <glyph glyph-name="afii10032" unicode="&#x41e;" horiz-adv-x="853" 
d="M44 370q0 158 111.5 270t269.5 112q157 0 268.5 -112t111.5 -270q0 -157 -111.5 -268.5t-269.5 -111.5t-269 111t-111 269zM102 371q0 -134 94.5 -228t228.5 -94q133 0 227.5 94.5t94.5 227.5t-94.5 227.5t-227.5 94.5q-134 0 -228.5 -94.5t-94.5 -227.5z" />
    <glyph glyph-name="afii10033" unicode="&#x41f;" horiz-adv-x="695" 
d="M606 726v-709q0 -17 -14 -17h-27q-16 0 -16 17v667h-412v-667q0 -17 -14 -17h-26q-17 0 -17 17v707q0 18 18 18h491q17 0 17 -16z" />
    <glyph glyph-name="afii10034" unicode="&#x420;" horiz-adv-x="629" 
d="M81 17v705q0 20 18 20h242q95 0 163 -67.5t68 -163.5q0 -95 -67.5 -163t-162.5 -68h-204v-263q0 -17 -15 -17h-26q-10 0 -13 3.5t-3 13.5zM515 511q0 73 -51 124.5t-123 51.5h-203v-352h203q72 0 123 51.5t51 124.5z" />
    <glyph glyph-name="afii10035" unicode="&#x421;" horiz-adv-x="705" 
d="M625 117q16 12 25 -1l15 -23q7 -12 -6 -22q-98 -82 -232 -82q-158 0 -270.5 112t-112.5 271t112 269.5t271 110.5q131 0 234 -82q13 -10 7 -23l-17 -22q-2 -4 -8 -5t-16 4q-92 72 -198 72q-134 0 -230 -95.5t-96 -228.5q0 -134 95.5 -230.5t228.5 -96.5q107 0 198 72z
" />
    <glyph glyph-name="afii10036" unicode="&#x422;" horiz-adv-x="611" 
d="M39 742h523q20 0 20 -18v-22q0 -18 -20 -18h-232v-666q0 -18 -18 -18h-21q-18 0 -18 18v666h-234q-18 0 -18 20v20q0 18 18 18z" />
    <glyph glyph-name="afii10037" unicode="&#x423;" horiz-adv-x="487" 
d="M468 722l-242 -589q-13 -31 -24 -50.5t-29.5 -41.5t-45.5 -32.5t-62 -10.5q-16 0 -16 15v35q0 11 15 11q69 0 104 85l43 106l-197 474q-4 11 1 16.5t12 5.5h22q21 0 25 -10l169 -416l165 414q5 12 18 12h30q21 0 12 -24z" />
    <glyph glyph-name="afii10038" unicode="&#x424;" horiz-adv-x="787" 
d="M47 370q0 124 92.5 215.5t227.5 102.5v39q0 16 16 16h26q16 0 16 -16v-39q135 -11 228.5 -102.5t93.5 -215.5q0 -125 -93 -215.5t-229 -101.5v-38q0 -15 -16 -15h-26q-16 0 -16 15v38q-136 11 -228 101.5t-92 215.5zM689 370q0 103 -75.5 176t-188.5 83v-517
q113 10 188.5 82.5t75.5 175.5zM105 370q0 -103 74.5 -175.5t187.5 -82.5v516q-113 -9 -187.5 -81.5t-74.5 -176.5z" />
    <glyph glyph-name="afii10039" unicode="&#x425;" horiz-adv-x="599" 
d="M577 720l-239 -350l236 -348q5 -10 0.5 -16t-11.5 -6h-32q-10 0 -17 10l-209 310l-209 -310q-7 -10 -17 -10h-31q-9 0 -13 6t2 17l234 346l-236 351q-5 10 -1.5 16t11.5 6h32q9 0 17 -10l211 -313l212 313q7 10 17 10h32q7 0 11.5 -6t-0.5 -16z" />
    <glyph glyph-name="afii10040" unicode="&#x426;" horiz-adv-x="733" 
d="M138 57h411v668q0 18 18 18h21q18 0 18 -18v-669h54q22 0 22 -18v-212q0 -19 -19 -19h-21q-18 0 -18 19v174h-525q-18 0 -18 18v707q0 18 18 18h22q17 0 17 -18v-668z" />
    <glyph glyph-name="afii10041" unicode="&#x427;" horiz-adv-x="639" 
d="M115 724v-310q0 -71 47 -115.5t112 -44.5q66 0 123 43t57 112v315q0 18 19 18h21q18 0 18 -18v-706q0 -19 -18 -19h-21q-19 0 -19 19v262q-24 -35 -77.5 -59t-104.5 -24q-90 0 -152.5 63t-62.5 152v312q0 18 19 18h20q19 0 19 -18z" />
    <glyph glyph-name="afii10042" unicode="&#x428;" horiz-adv-x="940" 
d="M433 57v668q0 18 18 18h22q18 0 18 -18v-668h295v668q0 18 18 18h22q18 0 18 -18v-707q0 -18 -18 -18h-729q-17 0 -17 18v707q0 18 17 18h22q18 0 18 -18v-668h296z" />
    <glyph glyph-name="afii10043" unicode="&#x429;" horiz-adv-x="980" 
d="M433 57v668q0 18 18 18h22q18 0 18 -18v-668h295v668q0 18 18 18h22q18 0 18 -18v-669h57q18 0 18 -18v-213q0 -18 -18 -18h-21q-18 0 -18 18v175h-765q-17 0 -17 18v707q0 18 17 18h22q18 0 18 -18v-668h296z" />
    <glyph glyph-name="afii10044" unicode="&#x42a;" horiz-adv-x="591" 
d="M567 229q0 -94 -67 -161.5t-163 -67.5h-254q-13 0 -13 14v671h-87q-16 0 -16 16v25q0 16 16 16h129q15 0 15 -14v-270h211q96 0 162.5 -67.5t66.5 -161.5zM337 401h-210v-345h210q70 0 121 51.5t51 121.5q0 71 -50.5 121.5t-121.5 50.5z" />
    <glyph glyph-name="afii10045" unicode="&#x42b;" horiz-adv-x="768" 
d="M565 231q0 -96 -67 -163.5t-164 -67.5h-242q-16 0 -16 19v705q0 18 18 18h21q18 0 18 -18v-263h203q95 0 162 -68t67 -162zM334 404h-201v-347h201q72 0 122.5 50.5t50.5 122.5t-50.5 123t-122.5 51zM669 18v707q0 18 18 18h21q18 0 18 -18v-707q0 -18 -18 -18h-21
q-18 0 -18 18z" />
    <glyph glyph-name="afii10046" unicode="&#x42c;" horiz-adv-x="629" 
d="M571 231q0 -96 -67.5 -163.5t-163.5 -67.5h-243q-16 0 -16 19v705q0 18 18 18h21q18 0 18 -18v-263h203q95 0 162.5 -68t67.5 -162zM340 404h-202v-347h202q72 0 122.5 50.5t50.5 122.5t-50.5 123t-122.5 51z" />
    <glyph glyph-name="afii10047" unicode="&#x42d;" horiz-adv-x="717" 
d="M68 70q-17 15 -5 28l13 17q11 15 33 -2q91 -67 193 -67q128 0 221 87t104 208h-358q-15 0 -15 16v26q0 15 15 15h358q-12 121 -107 209.5t-213 88.5q-52 0 -107.5 -19.5t-96.5 -54.5q-17 -12 -27 2l-14 21q-10 15 9 28q101 79 234 79q102 0 189.5 -50.5t139 -138.5
t52.5 -192v-2q-1 -157 -112.5 -268.5t-270.5 -111.5q-124 0 -235 81z" />
    <glyph glyph-name="afii10048" unicode="&#x42e;" horiz-adv-x="1055" 
d="M81 18v707q0 18 18 18h21q18 0 18 -18v-320h111q13 146 121.5 246.5t257.5 100.5q157 0 268.5 -112t111.5 -270q0 -157 -111.5 -268.5t-269.5 -111.5q-152 0 -261.5 104t-117.5 254h-110v-330q0 -18 -18 -18h-21q-18 0 -18 18zM305 371q0 -134 94.5 -228t228.5 -94
q133 0 227.5 94.5t94.5 227.5t-94.5 227.5t-227.5 94.5q-134 0 -228.5 -94.5t-94.5 -227.5z" />
    <glyph glyph-name="afii10049" unicode="&#x42f;" horiz-adv-x="661" 
d="M266 742h288q18 0 18 -17v-707q0 -18 -18 -18h-21q-18 0 -18 18v259h-244q-21 0 -43 5l-123 -273q-5 -9 -13 -9h-35q-9 0 -12 6t1 13l126 278q-62 27 -99.5 84.5t-37.5 127.5q0 96 67.5 164.5t163.5 68.5zM283 334h232v351h-247q-74 0 -125 -51.5t-51 -124.5
q0 -79 56 -127t135 -48z" />
    <glyph glyph-name="afii10065" unicode="&#x430;" horiz-adv-x="562" 
d="M102 398l-13 13q-11 12 0 24q71 73 179 73q82 0 141 -55.5t59 -148.5v-287q0 -17 -15 -17h-22q-17 0 -17 19l-1 75q-14 -25 -25 -39.5t-31 -33t-49 -27.5t-67 -9q-86 0 -133 45.5t-47 114.5q0 60 46.5 101.5t130.5 41.5h176q0 70 -42 117t-104 47q-81 0 -140 -50
q-19 -15 -26 -4zM416 238h-164q-67 0 -101 -25t-34 -70q0 -42 31 -73t96 -31q69 0 120.5 52.5t51.5 146.5z" />
    <glyph glyph-name="afii10066" unicode="&#x431;" horiz-adv-x="573" 
d="M114 245q0 -79 56 -140.5t133 -61.5q76 0 132.5 61.5t56.5 140.5t-56.5 139.5t-132.5 60.5q-78 0 -133.5 -59t-55.5 -141zM303 749q123 0 161 14q19 7 23 -4l7 -23q5 -7 1.5 -12.5t-5 -6.5t-11.5 -4q-13 -4 -26 -7t-34 -5t-32 -2.5t-45 -1.5t-49 -2q-93 -5 -139 -89.5
t-46 -217.5q28 56 85 85.5t110 29.5q105 0 174 -76t69 -181q0 -103 -71 -179.5t-172 -76.5q-88 0 -149.5 49.5t-85.5 131.5q-17 60 -17 197q0 381 252 381z" />
    <glyph glyph-name="afii10067" unicode="&#x432;" horiz-adv-x="507" 
d="M437 358q0 -59 -48 -100q33 -19 53 -51t20 -69q0 -51 -33.5 -89.5t-85.5 -45.5q-25 -3 -52 -3h-211q-14 0 -14 13v462q0 14 14 14h222q56 0 95.5 -38.5t39.5 -92.5zM323 226h-199v-174h193q38 0 62.5 26t24.5 61q0 34 -24 60.5t-57 26.5zM379 359q0 33 -22.5 56t-58.5 23
h-174v-162h178q32 0 54.5 25t22.5 58z" />
    <glyph glyph-name="afii10068" unicode="&#x433;" horiz-adv-x="461" 
d="M427 432h-288v-417q0 -16 -15 -16h-26q-16 0 -16 16v459q0 16 16 16h329q17 0 17 -16v-26q0 -16 -17 -16z" />
    <glyph glyph-name="afii10069" unicode="&#x434;" horiz-adv-x="597" 
d="M71 -107h-27q-15 0 -15 15v133q0 16 15 16h33q26 39 39.5 62.5t32 67.5t26.5 99.5t8 126.5v61q0 15 15 15h285q16 0 16 -15v-417h48q6 0 10.5 -4.5t4.5 -10.5v-132q0 -13 -12 -13h-33q-12 0 -12 12v91h-419v-92q0 -15 -15 -15zM442 57v375h-200l-1 -32
q0 -124 -26.5 -201.5t-71.5 -141.5h299z" />
    <glyph glyph-name="afii10070" unicode="&#x435;" horiz-adv-x="532" 
d="M284 -11q-100 0 -170 75t-70 180q0 106 69.5 181t166.5 75q93 0 161 -72.5t68 -174.5q0 -30 -39 -30h-368q4 -75 56.5 -126t124.5 -53h2q84 0 144 62q15 15 26 2l12 -17q7 -8 6 -14.5t-13 -16.5q-81 -71 -176 -71zM278 443q-65 0 -114 -46.5t-60 -118.5h348
q-9 70 -59 117.5t-115 47.5z" />
    <glyph glyph-name="afii10072" unicode="&#x436;" horiz-adv-x="732" 
d="M330 18v162q-27 1 -62 24l-162 -191q-9 -13 -20 -13h-41q-6 0 -8.5 6t1.5 12l182 215q-21 22 -62 90l-18 30q-24 39 -45.5 58.5t-53.5 19.5h-9q-19 0 -19 16v26q0 15 19 15h3q24 0 46 -7.5t34 -14t27.5 -25t17.5 -21.5t15 -22l76 -115q12 -19 34.5 -32t44.5 -15v235
q0 18 19 18h21q18 0 18 -18v-236q55 6 82 48l79 124l3 5l6 9t7 9.5t9 11t11.5 11t14.5 11t17 9.5t20 8t23 5t27 2h2q19 0 19 -14v-28q0 -15 -19 -15h-10q-31 0 -53 -20t-45 -58l-25 -41q-36 -59 -56 -79l184 -217q4 -6 1.5 -11t-10.5 -5h-41q-12 0 -19 9l-163 195
q-44 -22 -64 -24v-162q0 -18 -18 -18h-20q-20 0 -20 18z" />
    <glyph glyph-name="afii10073" unicode="&#x437;" horiz-adv-x="446" 
d="M61 407l-14 20q-10 13 17 32q52 37 127 37q71 0 115 -35.5t44 -99.5q0 -63 -50 -100q70 -45 70 -121q0 -64 -49 -103.5t-120 -39.5q-91 0 -159 66q-17 16 -6 27l18 19q11 11 22 0q52 -57 126 -57h11q43 0 70 25.5t27 63.5q0 35 -25.5 61.5t-61.5 26.5h-79q-10 0 -10 10
v27q0 6 1 9.5t6.5 6t15.5 2.5h56q32 0 54.5 23t22.5 54q0 38 -22 59t-65 21h-11q-68 0 -110 -37q-11 -9 -21 3z" />
    <glyph glyph-name="afii10074" unicode="&#x438;" horiz-adv-x="588" 
d="M139 475v-372l299 379q6 7 14 7h35q14 0 14 -16v-457q0 -16 -16 -16h-26q-16 0 -16 16v380l-303 -389q-6 -8 -15 -8h-29q-16 0 -16 14v460q0 16 17 16h26q16 0 16 -14z" />
    <glyph glyph-name="afii10075" unicode="&#x439;" horiz-adv-x="599" 
d="M266 615q-45 0 -76 29.5t-31 67.5q0 21 13 21h23q12 0 12 -19t16.5 -35t43.5 -16q26 0 42.5 16.5t16.5 35.5q0 18 12 18h29q9 0 9 -20q0 -39 -32 -69t-78 -29zM139 475v-372l299 379q6 7 14 7h35q14 0 14 -16v-457q0 -16 -16 -16h-26q-16 0 -16 16v380l-303 -389
q-6 -8 -15 -8h-29q-16 0 -16 14v460q0 16 17 16h26q16 0 16 -14z" />
    <glyph glyph-name="afii10076" unicode="&#x43a;" horiz-adv-x="508" 
d="M331 353l-28 -47q-22 -38 -42 -61l193 -228q5 -5 2 -11t-10 -6h-39q-13 0 -21 10l-168 199q-46 -29 -80 -29v-162q0 -18 -15 -18h-25q-17 0 -17 18v453q0 18 15 18h26q16 0 16 -18v-236q54 6 82 48l81 121q11 17 18.5 26.5t24.5 25.5t40.5 24t53.5 8h1q19 0 19 -18v-20
q0 -8 -5.5 -13.5t-13.5 -4.5h-10q-31 0 -53 -20.5t-45 -58.5z" />
    <glyph glyph-name="afii10077" unicode="&#x43b;" horiz-adv-x="610" 
d="M147 142v331q0 16 15 16h361q16 0 16 -15v-460q0 -15 -16 -15h-26q-15 0 -15 15v418h-277v-291q0 -65 -37.5 -104.5t-104.5 -39.5q-22 0 -22 18v16q0 18 20 18q41 0 63.5 25.5t22.5 67.5z" />
    <glyph glyph-name="afii10078" unicode="&#x43c;" horiz-adv-x="634" 
d="M563 475l37 -460q2 -15 -13 -15h-31q-14 0 -15 16l-27 358l-160 -346q-5 -10 -12 -10h-26q-7 0 -12 11l-158 345l-26 -358q0 -16 -14 -16h-32q-13 0 -13 15l37 457q1 17 17 17h39q12 0 15 -10l160 -361l162 360q5 11 21 11h33q16 0 18 -14z" />
    <glyph glyph-name="afii10079" unicode="&#x43d;" horiz-adv-x="590" 
d="M434 291v182q0 16 17 16h25q17 0 17 -16v-457q0 -16 -17 -16h-25q-17 0 -17 16v216h-295v-216q0 -16 -17 -16h-26q-16 0 -16 16v457q0 16 16 16h27q16 0 16 -16v-182h295z" />
    <glyph glyph-name="afii10080" unicode="&#x43e;" horiz-adv-x="610" 
d="M44 244q0 107 71 181.5t176 74.5q106 0 177 -74.5t71 -181.5t-71 -181.5t-177 -74.5q-105 0 -176 74.5t-71 181.5zM101 244q0 -83 55 -141.5t136 -58.5t136 58.5t55 141.5t-55 141.5t-136 58.5t-136 -58.5t-55 -141.5z" />
    <glyph glyph-name="afii10081" unicode="&#x43f;" horiz-adv-x="581" 
d="M432 16v417h-295v-419q0 -15 -16 -15h-26q-15 0 -15 15v460q0 16 15 16h379q16 0 16 -16v-458q0 -16 -16 -16h-26q-16 0 -16 16z" />
    <glyph glyph-name="afii10082" unicode="&#x440;" horiz-adv-x="591" 
d="M81 -177v651q0 15 17 15h24q15 0 15 -14l1 -65q56 94 183 94q98 0 166.5 -74t68.5 -181t-68.5 -181.5t-166.5 -74.5q-65 0 -111.5 32t-71.5 84v-286q0 -16 -14 -16h-31q-12 0 -12 16zM135 249q0 -82 54 -141t128 -59t127.5 59t53.5 141t-53.5 141t-127.5 59t-128 -59
t-54 -141z" />
    <glyph glyph-name="afii10083" unicode="&#x441;" horiz-adv-x="511" 
d="M437 386q-68 58 -141 58q-84 0 -143.5 -56t-59.5 -142q0 -89 59 -144.5t144 -56.5q75 0 142 59q9 7 17 -1l17 -25q7 -7 -2 -16q-35 -34 -83.5 -53.5t-93.5 -18.5q-102 2 -178 75.5t-76 180.5q0 106 75 179.5t183 73.5q87 0 174 -72q11 -9 3 -19l-20 -22q-5 -8 -17 0z" />
    <glyph glyph-name="afii10084" unicode="&#x442;" horiz-adv-x="421" 
d="M24 489h368q14 0 14 -13v-30q0 -15 -14 -15h-154v-416q0 -16 -17 -16h-26q-16 0 -16 16v416h-155q-13 0 -13 15v30q0 13 13 13z" />
    <glyph glyph-name="afii10085" unicode="&#x443;" horiz-adv-x="501" 
d="M466 471l-274 -650q-6 -14 -19 -14h-29q-21 0 -12 20l79 187l-190 456q-3 7 0 13t12 6h27q13 0 18 -9l167 -398l160 393q5 14 16 14h34q19 0 11 -18z" />
    <glyph glyph-name="afii10086" unicode="&#x444;" horiz-adv-x="617" 
d="M285 496v185q0 15 15 15h26q16 0 16 -15v-185q101 -5 171.5 -77.5t70.5 -174.5t-70 -174.5t-172 -77.5v-169q0 -16 -16 -16h-26q-15 0 -15 16v169q-101 4 -171.5 76.5t-70.5 175.5q0 102 70.5 175t171.5 77zM525 244q0 78 -53 135t-130 61v-392q77 4 130 60.5t53 135.5z
M101 244q0 -79 53 -135.5t131 -60.5v392q-78 -4 -131 -61t-53 -135z" />
    <glyph glyph-name="afii10087" unicode="&#x445;" horiz-adv-x="409" 
d="M217 213l-133 -198q-9 -15 -26 -15h-29q-8 0 -9.5 6.5t1.5 9.5l164 243l-140 210q-5 7 -3 13.5t11 6.5h25q16 0 23 -12l116 -170l118 173q6 9 15 9h37q15 0 10 -10l-148 -220l164 -245q3 -2 1 -8t-10 -6h-33q-10 0 -20 14z" />
    <glyph glyph-name="afii10088" unicode="&#x446;" horiz-adv-x="610" 
d="M137 57h296v416q0 16 14 16h29q14 0 14 -16v-416h55q15 0 15 -16v-144q0 -15 -15 -15h-27q-16 0 -16 16v102h-407q-15 0 -15 16v457q0 16 14 16h29q14 0 14 -16v-416z" />
    <glyph glyph-name="afii10089" unicode="&#x447;" horiz-adv-x="582" 
d="M138 471v-148q0 -62 44.5 -104.5t105.5 -42.5q60 0 105 43.5t45 103.5v148q0 18 16 18h26q16 0 16 -18v-452q0 -19 -18 -19h-21q-19 0 -19 19v185q-58 -85 -152 -85q-89 0 -147 62.5t-58 153.5v136q0 18 16 18h25q16 0 16 -18z" />
    <glyph glyph-name="afii10090" unicode="&#x448;" horiz-adv-x="735" 
d="M584 57v416q0 16 18 16h26q16 0 16 -16v-459q0 -14 -16 -14h-533q-15 0 -15 16v458q0 15 15 15h26q16 0 16 -15v-417h195v417q0 15 16 15h27q15 0 15 -15v-417h194z" />
    <glyph glyph-name="afii10091" unicode="&#x449;" horiz-adv-x="752" 
d="M584 57v416q0 16 18 16h26q16 0 16 -16v-416h52q15 0 15 -16v-144q0 -15 -15 -15h-27q-16 0 -16 16v102h-558q-15 0 -15 16v458q0 15 15 15h26q16 0 16 -15v-417h195v417q0 15 16 15h27q15 0 15 -15v-417h194z" />
    <glyph glyph-name="afii10092" unicode="&#x44a;" horiz-adv-x="540" 
d="M33 489h120q16 0 16 -15l-1 -147h156q66 0 111.5 -48.5t45.5 -114.5q0 -67 -46 -115.5t-114 -48.5h-190q-20 0 -20 18v414h-78q-16 0 -16 16v25q0 16 16 16zM428 164q0 43 -31.5 75t-74.5 32h-154v-217h154q44 0 75 33t31 77z" />
    <glyph glyph-name="afii10093" unicode="&#x44b;" horiz-adv-x="599" 
d="M96 489h26q15 0 15 -16v-146h138q66 0 111.5 -48.5t45.5 -114.5q0 -68 -46 -116t-113 -48h-174q-19 0 -19 18v454q0 17 16 17zM379 164q0 43 -31 75t-74 32h-137v-217h137q43 0 74 33t31 77zM498 17v454q0 18 17 18h25q19 0 19 -18v-454q0 -17 -19 -17h-25q-17 0 -17 17z
" />
    <glyph glyph-name="afii10094" unicode="&#x44c;" horiz-adv-x="512" 
d="M95 489h30q13 0 13 -16v-146h155q66 0 111.5 -48.5t45.5 -114.5q0 -61 -39 -107.5t-98 -53.5q-23 -3 -44 -3h-169q-19 0 -19 18v454q0 17 14 17zM397 164q0 43 -31 75t-74 32h-154v-217h154q43 0 74 33t31 77z" />
    <glyph glyph-name="afii10095" unicode="&#x44d;" horiz-adv-x="500" 
d="M73 106q65 -61 140 -61q74 0 126.5 49t61.5 123h-219q-16 0 -16 16v24q0 15 16 15h220q-9 74 -61.5 123.5t-127.5 49.5q-77 0 -136 -57q-14 -14 -29 4l-10 13q-11 13 11 33q73 63 165 63q106 0 176.5 -74.5t70.5 -181.5t-70.5 -181.5t-176.5 -74.5q-96 0 -172 71
q-18 16 -9 29l13 17q10 14 27 0z" />
    <glyph glyph-name="afii10096" unicode="&#x44e;" horiz-adv-x="793" 
d="M81 15v458q0 16 16 16h26q16 0 16 -16v-196h107q13 95 84.5 158.5t168.5 63.5q105 0 179.5 -74.5t74.5 -180.5t-74.5 -180.5t-179.5 -74.5q-99 0 -171 66t-82 164h-107v-204q0 -15 -15 -15h-27q-16 0 -16 15zM303 244q0 -83 57 -141t139 -58t139 58t57 141
q0 82 -57.5 140.5t-138.5 58.5t-138.5 -58.5t-57.5 -140.5z" />
    <glyph glyph-name="afii10097" unicode="&#x44f;" horiz-adv-x="459" 
d="M337 0q-15 0 -15 16v147h-112q-18 0 -35 3l-73 -151q-6 -15 -17 -15h-30q-9 0 -13 6.5t0 14.5l75 157q-41 21 -65.5 61.5t-24.5 86.5q0 67 46 115.5t114 48.5h173q19 0 19 -19v-453q0 -18 -16 -18h-26zM81 325q0 -42 31.5 -74t73.5 -32h136v216h-136q-43 0 -74 -32.5
t-31 -77.5z" />
    <glyph glyph-name="afii10071" unicode="&#x451;" horiz-adv-x="532" 
d="M284 -11q-100 0 -170 75t-70 180q0 106 69.5 181t166.5 75q93 0 161 -72.5t68 -174.5q0 -30 -39 -30h-368q4 -75 56.5 -126t124.5 -53h2q84 0 144 62q15 15 26 2l12 -17q7 -8 6 -14.5t-13 -16.5q-81 -71 -176 -71zM278 443q-65 0 -114 -46.5t-60 -118.5h348
q-9 70 -59 117.5t-115 47.5zM152 624q0 18 12.5 31t30.5 13q19 0 31.5 -13t12.5 -31t-12.5 -30.5t-31.5 -12.5q-18 0 -30.5 12.5t-12.5 30.5zM334 625q0 18 12.5 30.5t30.5 12.5q19 0 31.5 -12.5t12.5 -30.5t-12.5 -31t-31.5 -13q-18 0 -30.5 13t-12.5 31z" />
    <glyph glyph-name="afii10099" unicode="&#x452;" horiz-adv-x="570" 
d="M275 406q-65 0 -101 -47t-41 -119v-222q0 -18 -18 -18h-21q-19 0 -19 18v529h-60q-13 0 -13 19v21q0 17 13 17h60v120q0 19 19 19h21q18 0 18 -19v-120h108q13 0 13 -17v-21q0 -19 -13 -19h-108v-168q58 83 144 83q87 0 142 -61t55 -150v-266q0 -63 -39.5 -117t-96.5 -54
q-18 0 -18 18v15q0 20 14 23h2q36 0 58.5 36.5t22.5 78.5v235q0 78 -36 132t-106 54z" />
    <glyph glyph-name="afii10100" unicode="&#x453;" horiz-adv-x="448" 
d="M426 431h-288v-416q0 -16 -15 -16h-26q-16 0 -16 16v458q0 16 16 16h329q17 0 17 -16v-26q0 -16 -17 -16zM327 723l-55 -122q-8 -13 -18 -13h-30q-16 0 -6 19l52 122q7 13 17 13h34q15 0 6 -19z" />
    <glyph glyph-name="afii10101" unicode="&#x454;" horiz-adv-x="493" 
d="M415 106q17 15 28 0l13 -17q9 -12 -10 -29q-74 -71 -172 -71q-106 0 -176 74t-70 182t70 182t176 74q91 0 166 -63q22 -19 11 -33l-11 -13q-13 -18 -29 -4q-57 57 -136 57q-74 0 -126.5 -49.5t-61.5 -123.5h219q16 0 16 -15v-24q0 -16 -16 -16h-219q10 -74 62 -123
t126 -49q75 0 140 61z" />
    <glyph glyph-name="afii10102" unicode="&#x455;" horiz-adv-x="425" 
d="M312 389q-36 58 -103 58q-42 0 -69.5 -23t-27.5 -59q0 -57 94 -80q173 -44 173 -154q0 -66 -50.5 -104t-122.5 -38q-58 0 -103 27t-63 75q-5 18 11 24l19 9q16 6 23 -10l3 -5q15 -30 47.5 -47.5t62.5 -17.5q42 0 79 22.5t37 63.5q0 68 -123 97q-62 15 -102.5 50.5
t-40.5 87.5q0 61 42 98.5t111 37.5q107 0 157 -88q9 -16 -6 -25l-18 -11q-13 -9 -23 1q-4 6 -7 11z" />
    <glyph glyph-name="afii10103" unicode="&#x456;" horiz-adv-x="217" 
d="M80 18v453q0 18 19 18h20q19 0 19 -18v-453q0 -18 -19 -18h-20q-19 0 -19 18zM62 632q0 19 13.5 33t32.5 14q20 0 33.5 -13.5t13.5 -33.5q0 -19 -14 -32.5t-33 -13.5t-32.5 13.5t-13.5 32.5z" />
    <glyph glyph-name="afii10104" unicode="&#x457;" horiz-adv-x="217" 
d="M80 18v453q0 19 19 19h20q19 0 19 -19v-453q0 -18 -18 -18h-21q-19 0 -19 18zM-26 624q0 18 12.5 31t30.5 13q19 0 31.5 -13t12.5 -31t-12.5 -30.5t-31.5 -12.5q-18 0 -30.5 12.5t-12.5 30.5zM156 625q0 18 12.5 30.5t30.5 12.5q19 0 31.5 -12.5t12.5 -30.5t-12.5 -31
t-31.5 -13q-18 0 -30.5 13t-12.5 31z" />
    <glyph glyph-name="afii10105" unicode="&#x458;" horiz-adv-x="228" 
d="M77 -22v491q0 20 17 20h23q17 0 17 -20v-492q0 -64 -43.5 -109.5t-106.5 -45.5q-24 0 -24 15v24q0 17 21 17h2q41 1 67.5 30t26.5 70zM59 632q0 19 13.5 33t32.5 14t33 -13.5t14 -33.5q0 -19 -14 -32.5t-33 -13.5t-32.5 13.5t-13.5 32.5z" />
    <glyph glyph-name="afii10106" unicode="&#x459;" horiz-adv-x="787" 
d="M136 142v332q0 16 15 16h314q16 0 16 -16v-147h134q66 0 111.5 -48.5t45.5 -114.5q0 -67 -46 -115.5t-114 -48.5h-173q-16 0 -16 14v418h-228v-291q0 -65 -38 -104.5t-105 -39.5q-22 0 -22 18v16q0 10 7 14.5t21 5.5t17 2q61 19 61 89zM719 164q0 43 -31.5 75t-74.5 32
h-132v-217h132q44 0 75 33t31 77z" />
    <glyph glyph-name="afii10107" unicode="&#x45a;" horiz-adv-x="795" 
d="M81 18v453q0 19 19 19h20q19 0 19 -19v-170h264v172q0 16 16 16h26q15 0 15 -15v-173h145q68 0 112.5 -41.5t44.5 -105.5q0 -67 -45.5 -110.5t-113.5 -43.5h-185q-15 0 -15 15v233h-264v-230q0 -18 -18 -18h-21q-19 0 -19 18zM709 154q0 42 -30.5 67t-74.5 25h-144v-192
h144q44 0 74.5 28.5t30.5 71.5z" />
    <glyph glyph-name="afii10108" unicode="&#x45b;" horiz-adv-x="570" 
d="M96 18v530h-65q-13 0 -13 18v21q0 17 13 17h65v120q0 19 19 19h21q18 0 18 -19v-120h143q13 0 13 -17v-21q0 -18 -13 -18h-143v-131q57 83 153 83q89 0 147 -62.5t58 -153.5v-267q0 -18 -19 -18h-21q-18 0 -18 18v278q0 62 -44 104.5t-105 42.5t-106 -42t-45 -102v-280
q0 -18 -18 -18h-21q-19 0 -19 18z" />
    <glyph glyph-name="afii10109" unicode="&#x45c;" horiz-adv-x="508" 
d="M334 723l-55 -122q-7 -13 -17 -13h-30q-17 0 -6 19l52 122q6 13 17 13h33q15 0 6 -19zM331 353l-28 -47q-22 -38 -42 -61l193 -228q5 -5 2 -11t-10 -6h-39q-13 0 -21 10l-168 199q-46 -29 -80 -29v-162q0 -18 -15 -18h-25q-17 0 -17 18v453q0 18 15 18h26q16 0 16 -18
v-236q54 6 82 48l81 121q11 17 18.5 26.5t24.5 25.5t40.5 24t53.5 8h1q19 0 19 -18v-20q0 -8 -5.5 -13.5t-13.5 -4.5h-10q-31 0 -53 -20.5t-45 -58.5z" />
    <glyph glyph-name="afii10110" unicode="&#x45e;" horiz-adv-x="501" 
d="M466 471l-274 -650q-6 -14 -19 -14h-29q-21 0 -12 20l79 187l-190 456q-3 7 0 13t12 6h27q13 0 18 -9l167 -398l160 393q5 14 16 14h34q19 0 11 -18zM225 615q-45 0 -76 29t-31 68q0 21 13 21h23q12 0 12 -19t16.5 -35t43.5 -16q25 0 42 16.5t17 35.5q0 18 11 18h29
q10 0 10 -20q0 -39 -32.5 -69t-77.5 -29z" />
    <glyph glyph-name="afii10193" unicode="&#x45f;" horiz-adv-x="576" 
d="M257 0h-161q-16 0 -16 19v455q0 15 16 15h26q15 0 15 -15v-417h301v417q0 15 16 15h26q15 0 15 -15v-459q0 -15 -15 -15h-162v-132q0 -18 -18 -18h-26q-17 0 -17 18v132z" />
    <glyph glyph-name="afii10146" unicode="&#x462;" horiz-adv-x="660" 
d="M595 230q0 -95 -67 -162.5t-163 -67.5h-248q-8 -1 -11 3t-3 11v671h-96q-11 0 -11 15v29q0 14 11 14h258q13 0 13 -14v-29q0 -15 -13 -15h-104v-226h205q96 0 162.5 -67.5t66.5 -161.5zM365 402h-204v-346h204q69 0 120.5 51.5t51.5 121.5q0 71 -50.5 122t-121.5 51z" />
    <glyph glyph-name="afii10194" unicode="&#x463;" horiz-adv-x="520" 
d="M150 596h132q12 0 12 -14v-30q0 -15 -12 -15h-132v-210h139q66 0 111.5 -48.5t45.5 -114.5q0 -67 -46 -115.5t-114 -48.5h-174q-19 0 -19 18v519h-76q-11 0 -11 15v30q0 14 11 14h76v133q0 13 13 13h34q10 0 10 -13v-133zM393 164q0 43 -31.5 75t-74.5 32h-137v-217h137
q44 0 75 33t31 77z" />
    <glyph glyph-name="afii10147" unicode="&#x472;" horiz-adv-x="853" 
d="M43 370q0 158 111.5 270t268.5 112q158 0 269.5 -112.5t111.5 -269.5q0 -159 -112 -269.5t-269 -110.5q-159 0 -269.5 111.5t-110.5 268.5zM408 49q122 0 212.5 70t119.5 194l-638 62q1 -129 88.5 -224t217.5 -102zM745 371q-9 131 -96 226t-217 95q-120 0 -211 -72
t-113 -187z" />
    <glyph glyph-name="afii10195" unicode="&#x473;" horiz-adv-x="609" 
d="M51 255q4 103 78 173.5t175 70.5q107 0 181 -74.5t74 -180.5t-74.5 -180.5t-179.5 -74.5q-109 0 -184 79t-70 187zM307 444q-71 0 -123.5 -42t-68.5 -112l385 -36q-4 77 -58 133.5t-135 56.5zM295 46q70 0 125 40.5t75 110.5l-385 36q5 -76 57.5 -129.5t127.5 -57.5z" />
    <glyph glyph-name="afii10148" unicode="&#x474;" horiz-adv-x="718" 
d="M675 720l-295 -707q-5 -13 -16 -13h-19q-12 0 -17 13l-294 707q-4 10 0 16t12 6h31q10 0 15 -14l263 -636l262 637q5 13 15 13h30q8 0 12.5 -6t0.5 -16z" />
    <glyph glyph-name="afii10196" unicode="&#x475;" horiz-adv-x="506" 
d="M246 93l162 389q4 7 14 7h32q20 0 10 -22l-190 -453q-6 -14 -20 -14h-15q-15 0 -21 14l-190 453q-9 22 11 22h32q10 0 13 -7z" />
    <glyph glyph-name="afii10050" unicode="&#x490;" horiz-adv-x="583" 
d="M535 685h-398v-671q0 -15 -15 -15h-27q-15 0 -15 15v712q0 16 15 16h399v147q0 16 16 16h26q15 0 15 -15v-189q0 -16 -16 -16z" />
    <glyph glyph-name="afii10098" unicode="&#x491;" horiz-adv-x="485" 
d="M443 434h-306v-420q0 -15 -15 -15h-27q-15 0 -15 15v461q0 16 15 16h307v103q0 16 15 16h27q15 0 15 -15v-146q0 -15 -16 -15z" />
    <glyph glyph-name="afii10846" unicode="&#x4d9;" horiz-adv-x="586" 
d="M267 500q100 0 170 -75t70 -180q0 -106 -69 -181t-167 -75q-93 0 -161 72t-68 174q0 30 39 30h368q-4 75 -56.5 126t-124.5 53h-2q-85 0 -144 -61q-16 -16 -26 -2l-12 16q-12 16 7 32q81 71 176 71zM273 45q65 0 114 47t60 118h-348q9 -70 59 -117.5t115 -47.5z" />
    <glyph glyph-name="Wgrave" unicode="&#x1e80;" horiz-adv-x="1023" 
d="M666 13l-150 357l-149 -357q-5 -13 -16 -13h-21q-12 0 -17 13l-294 709q-4 9 0.5 15t12.5 6h31q10 0 15 -13l266 -641l261 641q6 13 16 13h31q7 0 11 -6t0 -15l-116 -280l149 -355l263 643q5 13 15 13h29q8 0 12.5 -6t1.5 -15l-296 -709q-5 -13 -17 -13h-21q-11 0 -17 13
zM502 852l-51 119q-4 10 -0.5 16t11.5 6h25q10 0 17 -13l52 -121q9 -20 -8 -20h-28q-10 0 -18 13z" />
    <glyph glyph-name="wgrave" unicode="&#x1e81;" horiz-adv-x="773" 
d="M520 93l162 389q3 7 13 7h32q19 0 13 -17l-192 -458q-6 -14 -18 -14h-20q-12 0 -18 14l-108 257l-107 -257q-6 -14 -18 -14h-19q-13 0 -19 14l-190 453q-8 22 11 22h32q9 0 14 -9l161 -387l162 389q4 7 14 7h34q17 0 10 -17l-54 -127zM381 601l-51 119q-4 10 -0.5 16
t11.5 6h25q10 0 17 -13l52 -121q9 -20 -8 -20h-28q-10 0 -18 13z" />
    <glyph glyph-name="Wacute" unicode="&#x1e82;" horiz-adv-x="1023" 
d="M666 13l-150 357l-149 -357q-5 -13 -16 -13h-21q-12 0 -17 13l-294 709q-4 9 0.5 15t12.5 6h31q10 0 15 -13l266 -641l261 641q6 13 16 13h31q7 0 11 -6t0 -15l-116 -280l149 -355l263 643q5 13 15 13h29q8 0 12.5 -6t1.5 -15l-296 -709q-5 -13 -17 -13h-21q-11 0 -17 13
zM631 974l-55 -122q-6 -13 -17 -13h-30q-17 0 -6 19l52 122q6 13 17 13h33q15 0 6 -19z" />
    <glyph glyph-name="wacute" unicode="&#x1e83;" horiz-adv-x="773" 
d="M520 93l162 389q3 7 13 7h32q19 0 13 -17l-192 -458q-6 -14 -18 -14h-20q-12 0 -18 14l-108 257l-107 -257q-6 -14 -18 -14h-19q-13 0 -19 14l-190 453q-8 22 11 22h32q9 0 14 -9l161 -387l162 389q4 7 14 7h34q17 0 10 -17l-54 -127zM459 723l-55 -122q-6 -13 -17 -13
h-30q-17 0 -6 19l52 122q6 13 17 13h33q15 0 6 -19z" />
    <glyph glyph-name="Wdieresis" unicode="&#x1e84;" horiz-adv-x="1023" 
d="M666 13l-150 357l-149 -357q-5 -13 -16 -13h-21q-12 0 -17 13l-294 709q-4 9 0.5 15t12.5 6h31q10 0 15 -13l266 -641l261 641q6 13 16 13h31q7 0 11 -6t0 -15l-116 -280l149 -355l263 643q5 13 15 13h29q8 0 12.5 -6t1.5 -15l-296 -709q-5 -13 -17 -13h-21q-11 0 -17 13
zM386 875q0 18 13 31t31 13q19 0 31.5 -13t12.5 -31t-12.5 -30.5t-31.5 -12.5q-18 0 -31 12.5t-13 30.5zM568 876q0 18 13 30.5t31 12.5t30.5 -12.5t12.5 -30.5t-12.5 -31t-30.5 -13t-31 13t-13 31z" />
    <glyph glyph-name="wdieresis" unicode="&#x1e85;" horiz-adv-x="773" 
d="M520 93l162 389q3 7 13 7h32q19 0 13 -17l-192 -458q-6 -14 -18 -14h-20q-12 0 -18 14l-108 257l-107 -257q-6 -14 -18 -14h-19q-13 0 -19 14l-190 453q-8 22 11 22h32q9 0 14 -9l161 -387l162 389q4 7 14 7h34q17 0 10 -17l-54 -127zM245 624q0 18 13 31t31 13
q19 0 31.5 -13t12.5 -31t-12.5 -30.5t-31.5 -12.5q-18 0 -31 12.5t-13 30.5zM427 625q0 18 13 30.5t31 12.5t30.5 -12.5t12.5 -30.5t-12.5 -31t-30.5 -13t-31 13t-13 31z" />
    <glyph glyph-name="Ygrave" unicode="&#x1ef2;" horiz-adv-x="553" 
d="M252 328l-242 394q-5 9 -1 14.5t12 5.5h34q9 0 16 -10l208 -348l212 347q6 11 15 11h31q8 0 11.5 -4t-1.5 -14l-238 -396v-310q0 -18 -14 -18h-30q-13 0 -13 18v310zM246 852l-51 119q-4 10 -0.5 16t11.5 6h25q10 0 17 -13l52 -121q9 -20 -8 -20h-28q-10 0 -18 13z" />
    <glyph glyph-name="ygrave" unicode="&#x1ef3;" horiz-adv-x="501" 
d="M466 471l-274 -650q-6 -14 -19 -14h-29q-21 0 -12 20l79 187l-190 456q-3 7 0 13t12 6h27q13 0 18 -9l167 -398l160 393q5 14 16 14h34q19 0 11 -18zM235 601l-51 119q-4 10 -0.5 16t11.5 6h25q10 0 17 -13l52 -121q9 -20 -8 -20h-28q-10 0 -18 13z" />
    <glyph glyph-name="figuredash" unicode="&#x2012;" horiz-adv-x="525" 
d="M99 304h320q19 0 19 -18v-21q0 -18 -19 -18h-320q-19 0 -19 18v21q0 18 19 18z" />
    <glyph glyph-name="endash" unicode="&#x2013;" horiz-adv-x="671" 
d="M99 304h470q18 0 18 -18v-21q0 -19 -18 -19h-470q-19 0 -19 19v21q0 18 19 18z" />
    <glyph glyph-name="emdash" unicode="&#x2014;" horiz-adv-x="836" 
d="M99 304h635q19 0 19 -18v-21q0 -18 -19 -18h-635q-19 0 -19 18v21q0 18 19 18z" />
    <glyph glyph-name="quoteleft" unicode="&#x2018;" horiz-adv-x="238" 
d="M145 638q0 -20 -12 -32.5t-31 -12.5q-23 0 -35 15.5t-12 40.5q0 56 31 92q9 9 17 3l13 -11q8 -7 -1 -16q-12 -18 -12 -28v-6q42 -7 42 -45z" />
    <glyph glyph-name="quoteright" unicode="&#x2019;" horiz-adv-x="235" 
d="M68 704q0 20 11.5 32t30.5 12q23 0 35.5 -15.5t12.5 -40.5q0 -59 -32 -91q-8 -10 -17 -4l-13 11q-4 3 1 17q12 18 12 28v5q-41 7 -41 46z" />
    <glyph glyph-name="quotesinglbase" unicode="&#x201a;" horiz-adv-x="264" 
d="M66 33q0 20 12 32t31 12q23 0 35 -15.5t12 -40.5q0 -55 -31 -91q-9 -11 -17 -4l-13 11q-7 6 1 17q12 18 12 28v5q-19 3 -30.5 15.5t-11.5 30.5z" />
    <glyph glyph-name="quotedblleft" unicode="&#x201c;" horiz-adv-x="374" 
d="M172 638q0 -20 -12 -32.5t-31 -12.5q-23 0 -35 15.5t-12 40.5q0 56 31 92q9 9 17 3l13 -11q8 -7 -1 -16q-12 -18 -12 -28v-6q42 -7 42 -45zM299 638q0 -20 -11.5 -32.5t-30.5 -12.5q-23 0 -35.5 15.5t-12.5 40.5q0 60 32 92q9 9 17 3l13 -11q5 -4 -1 -16q-12 -18 -12 -28
v-6q41 -7 41 -45z" />
    <glyph glyph-name="quotedblright" unicode="&#x201d;" horiz-adv-x="348" 
d="M60 705q0 20 12 32t31 12q23 0 35 -15.5t12 -40.5q0 -55 -31 -91q-9 -11 -17 -4l-13 11q-7 6 1 17q12 18 12 28v5q-19 3 -30.5 15.5t-11.5 30.5zM190 705q0 20 12 32t31 12q23 0 35 -15.5t12 -40.5q0 -55 -31 -91q-9 -11 -17 -4l-13 11q-7 6 1 17q12 18 12 28v5
q-19 3 -30.5 15.5t-11.5 30.5z" />
    <glyph glyph-name="quotedblbase" unicode="&#x201e;" horiz-adv-x="366" 
d="M78 40q0 20 11.5 32.5t30.5 12.5q23 0 35.5 -15.5t12.5 -40.5q0 -60 -32 -92q-9 -9 -17 -3l-13 11q-5 4 1 16q12 18 12 28v6q-41 7 -41 45zM206 40q0 20 12 32.5t31 12.5q23 0 35 -15.5t12 -40.5q0 -56 -31 -92q-9 -9 -17 -3l-13 11q-8 7 1 16q12 18 12 28v6
q-42 7 -42 45z" />
    <glyph glyph-name="dagger" unicode="&#x2020;" horiz-adv-x="427" 
d="M182 307v418q0 18 19 18h18q18 0 18 -18v-418h132q18 0 18 -19v-19q0 -18 -18 -18h-132v-428q0 -18 -18 -18h-18q-19 0 -19 18v428h-132q-18 0 -18 18v19q0 19 18 19h132z" />
    <glyph glyph-name="daggerdbl" unicode="&#x2021;" horiz-adv-x="442" 
d="M237 183h132q18 0 18 -18v-19q0 -19 -18 -19h-132v-304q0 -18 -18 -18h-18q-19 0 -19 18v304h-132q-18 0 -18 19v19q0 18 18 18h132v184h-132q-18 0 -18 18v19q0 19 18 19h132v302q0 18 19 18h18q18 0 18 -18v-302h132q18 0 18 -19v-19q0 -18 -18 -18h-132v-184z" />
    <glyph glyph-name="bullet" unicode="&#x2022;" horiz-adv-x="226" 
d="M58 278q0 23 16.5 39.5t39.5 16.5t39.5 -16.5t16.5 -39.5t-16.5 -39.5t-39.5 -16.5t-39.5 16.5t-16.5 39.5z" />
    <glyph glyph-name="onedotenleader" unicode="&#x2024;" horiz-adv-x="297" 
d="M73 36q0 19 13.5 32.5t32.5 13.5t32.5 -13.5t13.5 -32.5q0 -20 -13.5 -33.5t-32.5 -13.5t-32.5 13.5t-13.5 33.5z" />
    <glyph glyph-name="twodotenleader" unicode="&#x2025;" horiz-adv-x="457" 
d="M64 36q0 19 13.5 32.5t32.5 13.5t33 -13.5t14 -32.5q0 -20 -13.5 -33.5t-33.5 -13.5q-19 0 -32.5 14t-13.5 33zM271 36q0 19 13.5 32.5t32.5 13.5q20 0 33.5 -13.5t13.5 -32.5q0 -20 -13.5 -33.5t-33.5 -13.5q-19 0 -32.5 14t-13.5 33z" />
    <glyph glyph-name="ellipsis" unicode="&#x2026;" horiz-adv-x="648" 
d="M64 36q0 19 13.5 32.5t32.5 13.5t33 -13.5t14 -32.5q0 -20 -13.5 -33.5t-33.5 -13.5q-19 0 -32.5 14t-13.5 33zM259 36q0 19 13.5 32.5t32.5 13.5t32.5 -13.5t13.5 -32.5q0 -20 -13.5 -33.5t-32.5 -13.5t-32.5 13.5t-13.5 33.5zM447 36q0 19 14 32.5t33 13.5t32.5 -13.5
t13.5 -32.5q0 -20 -13.5 -33.5t-32.5 -13.5q-20 0 -33.5 13.5t-13.5 33.5z" />
    <glyph glyph-name="perthousand" unicode="&#x2030;" horiz-adv-x="1277" 
d="M37 573q0 80 56 136t136 56t136.5 -56t56.5 -136t-56.5 -136.5t-136.5 -56.5t-136 56.5t-56 136.5zM81 573q0 -63 43 -106t105 -43q63 0 105.5 43t42.5 106q0 62 -42.5 104.5t-105.5 42.5q-62 0 -105 -42.5t-43 -104.5zM411 183q0 80 56.5 136.5t136.5 56.5t136 -56.5
t56 -136.5q0 -79 -56 -135.5t-136 -56.5t-136.5 56t-56.5 136zM455 183q0 -62 43 -105t106 -43q62 0 104.5 43t42.5 105q0 63 -42.5 105.5t-104.5 42.5q-63 0 -106 -42.5t-43 -105.5zM159 21l433 699q5 14 11 18t19 4h15q16 0 18.5 -5t-3.5 -21l-436 -701q-6 -15 -24 -15
h-21q-19 0 -12 21zM854 183q0 80 56.5 136.5t136.5 56.5t136 -56.5t56 -136.5q0 -79 -56.5 -135.5t-135.5 -56.5q-80 0 -136.5 56t-56.5 136zM898 183q0 -62 43 -105t106 -43q62 0 104.5 43t42.5 105q0 63 -42.5 105.5t-104.5 42.5q-63 0 -106 -42.5t-43 -105.5z" />
    <glyph glyph-name="guilsinglleft" unicode="&#x2039;" horiz-adv-x="431" 
d="M59 286q0 3 5 7l264 262q12 12 21 3l17 -17q14 -12 0 -24l-234 -231l234 -232q13 -11 0 -24l-17 -17q-9 -9 -21 3l-264 261q-5 5 -5 9z" />
    <glyph glyph-name="guilsinglright" unicode="&#x203a;" horiz-adv-x="431" 
d="M374 286q0 -4 -5 -9l-264 -261q-12 -12 -21 -3l-17 17q-13 13 0 24l234 232l-234 231q-14 12 0 24l17 17q9 9 21 -3l264 -262q5 -4 5 -7z" />
    <glyph glyph-name="exclamdbl" unicode="&#x203c;" horiz-adv-x="409" 
d="M271 214v511q0 17 16 17h26q15 0 15 -17v-510q0 -18 -13 -18h-31q-13 0 -13 17zM254 36q0 19 13.5 32.5t32.5 13.5t32.5 -13.5t13.5 -32.5q0 -20 -13 -33t-33 -13t-33 13t-13 33zM79 214v511q0 7 5 12t12 5h26q15 0 15 -17v-510q0 -18 -14 -18h-31q-13 0 -13 17zM62 36
q0 19 13.5 32.5t32.5 13.5q20 0 33.5 -13.5t13.5 -32.5q0 -20 -13.5 -33t-33.5 -13q-19 0 -32.5 13.5t-13.5 32.5z" />
    <glyph glyph-name="fraction" unicode="&#x2044;" horiz-adv-x="494" 
d="M16 18l383 715q5 8 15 8h30q20 0 12 -17l-386 -716q-4 -8 -14 -8h-31q-8 0 -10.5 5.5t1.5 12.5z" />
    <glyph glyph-name="zerosuperior" unicode="&#x2070;" horiz-adv-x="478" 
d="M244 752q84 0 144 -60t60 -144t-60 -143.5t-145 -59.5q-84 0 -143.5 59.5t-59.5 144.5q0 83 60 143t144 60zM245 706q-64 0 -109.5 -45.5t-45.5 -109.5t45.5 -109t108.5 -45q64 0 110 45t46 108q0 65 -45.5 110.5t-109.5 45.5z" />
    <glyph glyph-name="foursuperior" unicode="&#x2074;" horiz-adv-x="368" 
d="M222 403h-180q-13 0 -15 10.5t5 18.5q31 48 92 145.5t91 146.5q0 1 4 7.5t7 9t8 2.5h28q13 0 13 -17v-270h33q15 0 15 -14v-25q0 -14 -15 -14h-33v-54q0 -14 -14 -14h-25q-14 0 -14 14v54zM104 456h118v184q-20 -30 -59 -91.5t-59 -92.5z" />
    <glyph glyph-name="fivesuperior" unicode="&#x2075;" horiz-adv-x="333" 
d="M31 468q0 12 10 12h31q11 0 11 -12q0 -37 26 -62.5t63 -25.5t62.5 25.5t25.5 62.5t-25.5 63t-62.5 26t-62 -25q-9 -9 -20 -9h-35q-13 0 -12 14l18 192q0 15 14 15h186q15 0 15 -15v-25q0 -13 -15 -13h-148l-9 -100q33 18 66 18q58 0 99.5 -41.5t41.5 -99.5t-41 -98.5
t-100 -40.5q-58 0 -98.5 40.5t-40.5 98.5z" />
    <glyph glyph-name="sixsuperior" unicode="&#x2076;" horiz-adv-x="337" 
d="M28 469q0 39 18 70l110 192q7 12 19 12h34q17 0 8 -14l-72 -124q14 4 22 4q59 0 99.5 -40.5t40.5 -99.5t-40.5 -99.5t-99.5 -40.5q-58 0 -98.5 41t-40.5 99zM81 469q0 -37 24.5 -62.5t61.5 -25.5q36 0 60.5 25.5t24.5 62.5t-24.5 63t-60.5 26t-61 -26.5t-25 -62.5z" />
    <glyph glyph-name="sevensuperior" unicode="&#x2077;" horiz-adv-x="338" 
d="M40 743h238q14 0 14 -13q0 -11 -4 -16l-190 -368q-4 -11 -16 -11h-35q-17 0 -6 20l173 335h-174q-15 0 -15 14v25q0 14 15 14z" />
    <glyph glyph-name="eightsuperior" unicode="&#x2078;" horiz-adv-x="325" 
d="M53 643q0 43 30.5 74t73.5 31t74 -31t31 -74q0 -45 -33 -76q58 -38 58 -108q0 -54 -38 -92t-92 -38q-53 0 -91 38t-38 92q0 69 57 108q-32 30 -32 76zM78 459q0 -32 23.5 -55t55.5 -23t55.5 23t23.5 55t-23.5 56t-55.5 24t-55.5 -24t-23.5 -56zM104 643q0 -23 15 -38.5
t38 -15.5t39 15.5t16 38.5q0 22 -16 38t-39 16q-22 0 -37.5 -15.5t-15.5 -38.5z" />
    <glyph glyph-name="ninesuperior" unicode="&#x2079;" horiz-adv-x="337" 
d="M307 608q0 -36 -18 -69l-110 -193q-7 -12 -19 -12h-34q-16 0 -8 14q45 78 71 125q-10 -5 -22 -5q-58 0 -98.5 41t-40.5 99t40.5 99t98.5 41q59 0 99.5 -41t40.5 -99zM253 608q0 37 -25 63t-61 26t-60 -26t-24 -63q0 -36 24 -62.5t60 -26.5t61 26.5t25 62.5z" />
    <glyph glyph-name="Euro" unicode="&#x20ac;" horiz-adv-x="771" 
d="M40 287v27q0 15 16 15h37q-2 28 -2 43q0 12 2 36h-37q-16 0 -16 14v27q0 15 16 15h46q31 127 135 209t238 82q140 0 239 -85q15 -12 5 -22l-20 -25q-10 -10 -24 0q-93 70 -200 70q-108 0 -194.5 -64.5t-116.5 -164.5h211q15 0 15 -15v-27q0 -14 -15 -14h-222
q-2 -24 -2 -36q0 -22 3 -43h221q15 0 15 -15v-27q0 -15 -15 -15h-209q32 -98 117 -160t192 -62q111 0 199 69q13 11 23 1l19 -23q12 -13 -4 -25q-98 -84 -237 -84q-132 0 -235 80t-136 204h-48q-16 0 -16 15z" />
    <glyph glyph-name="litre" unicode="&#x2113;" horiz-adv-x="421" 
d="M251 -3q-102 0 -136.5 43.5t-34.5 139.5v308q0 183 149 183q61 0 99.5 -41.5t38.5 -107.5q0 -61 -38 -106q-6 -8 -56.5 -64.5t-95.5 -108.5t-45 -55q0 -87 23 -114t96 -27q16 0 16 -15v-20q0 -15 -16 -15zM228 621q-49 0 -73 -30.5t-24 -96.5v-221l157 173q28 31 28 75
q0 42 -23.5 71t-64.5 29z" />
    <glyph glyph-name="afii61352" unicode="&#x2116;" horiz-adv-x="1284" 
d="M778 417q0 91 63.5 155t154.5 64t155 -64t64 -155t-64 -155t-155 -64t-154.5 64t-63.5 155zM828 417q0 -69 49.5 -118.5t118.5 -49.5q70 0 119 49t49 119q0 69 -49 118.5t-119 49.5q-68 0 -118 -49.5t-50 -118.5zM804 58h390q16 0 16 -15v-27q0 -16 -16 -16h-390
q-16 0 -16 16v27q0 15 16 15zM643 103v623q0 17 17 17h24q17 0 17 -16v-713q0 -14 -16 -14h-26q-10 0 -18 10l-503 636v-628q0 -18 -18 -18h-21q-18 0 -18 18v706q0 18 16 18h32q6 0 9 -5z" />
    <glyph glyph-name="trademark" unicode="&#x2122;" horiz-adv-x="684" 
d="M50 697v38q0 8 11 8h208q11 0 11 -8v-38q0 -10 -11 -10h-76v-238q0 -10 -9 -10h-38q-2 0 -5.5 3.5t-3.5 6.5v238h-76q-11 0 -11 10zM283 447l14 288q0 8 9 8h56q8 0 9 -6l66 -192l67 192q2 6 10 6h54q10 0 10 -8l14 -288q0 -8 -11 -8h-36q-9 0 -9 8l-12 202l-62 -189
q-3 -8 -8 -8h-34q-4 0 -7 8l-62 189l-12 -202q0 -8 -10 -8h-37q-9 0 -9 8z" />
    <glyph glyph-name="Omega" unicode="&#x2126;" horiz-adv-x="743" 
d="M459 0q-16 0 -16 14v144q0 7 6 11t17.5 8t16.5 6q70 33 111.5 98t41.5 144q0 111 -78.5 189.5t-189.5 78.5t-189 -78.5t-78 -189.5q0 -87 46 -153t133 -99q15 -6 15 -15v-144q0 -14 -17 -14h-197q-19 0 -19 18v21q0 18 19 18h156v68q-89 37 -143.5 118.5t-54.5 180.5
q0 136 96 232.5t232 96.5t232.5 -96.5t96.5 -232.5q0 -98 -53.5 -179t-141.5 -119v-69h151q19 0 19 -18v-21q0 -18 -19 -18h-193z" />
    <glyph glyph-name="estimated" unicode="&#x212e;" horiz-adv-x="586" 
 />
    <glyph glyph-name="onethird" unicode="&#x2153;" horiz-adv-x="751" 
d="M422 123q0 12 11 12h29q11 0 11 -12q0 -32 23.5 -55t55.5 -23t55.5 23t23.5 55t-23.5 56t-55.5 24q-12 0 -12 11v27q0 12 12 12q22 0 38 16t16 38q0 23 -16 38.5t-38 15.5t-37.5 -15.5t-15.5 -38.5q0 -12 -11 -12h-31q-10 0 -10 12q0 43 30.5 74t74.5 31q43 0 73.5 -30.5
t30.5 -74.5q0 -46 -32 -76q58 -38 58 -108q0 -54 -38 -92t-92 -38t-92 38t-38 92zM114 743h29q13 0 13 -12v-384q0 -12 -12 -12h-28q-13 0 -13 12v338l-34 -16q-6 -2 -7 -2q-7 0 -7 8v32q0 10 10 14zM77 21l373 699q8 14 14.5 18t19.5 4h15q18 0 18 -8q-3 -11 -7 -18
l-377 -701q-9 -15 -26 -15h-21q-13 0 -13 8q0 5 4 13z" />
    <glyph glyph-name="twothirds" unicode="&#x2154;" horiz-adv-x="827" 
d="M500 128q0 12 10 12h30q11 0 11 -12q0 -32 23 -55t55 -23t56 23t24 55t-24 56t-56 24q-12 0 -12 11v27q0 12 13 12q22 1 38 16.5t16 37.5q0 23 -16 38.5t-39 15.5q-22 0 -37.5 -15.5t-15.5 -38.5q0 -12 -11 -12h-30q-10 0 -10 12q0 43 30.5 74t73.5 31t74 -30.5t31 -74.5
q0 -45 -33 -76q58 -38 58 -108q0 -54 -38 -92t-92 -38q-53 0 -91 38t-38 92zM306 334h-251q-13 0 -13 13v26q0 4 1 7l186 183q28 28 28 59t-24 52.5t-58 21.5q-33 0 -56.5 -23t-23.5 -55q0 -16 -3 -20t-13 -4h-26q-11 0 -11 12v12q0 55 39 91.5t94 36.5q58 0 97.5 -34
t39.5 -89q0 -51 -37 -88l-153 -149h184q13 0 13 -12v-27q0 -13 -13 -13zM192 21l373 699q8 14 14.5 18t19.5 4h15q18 0 18 -8q-3 -11 -7 -18l-377 -701q-9 -15 -26 -15h-21q-13 0 -13 8q0 5 4 13z" />
    <glyph glyph-name="oneeighth" unicode="&#x215b;" horiz-adv-x="759" 
d="M114 743h29q13 0 13 -12v-384q0 -12 -12 -12h-28q-13 0 -13 12v338l-34 -16q-6 -2 -7 -2q-7 0 -7 8v32q0 10 10 14zM77 21l373 699q8 14 14.5 18t19.5 4h15q18 0 18 -8q-3 -11 -7 -18l-377 -701q-9 -15 -26 -15h-21q-13 0 -13 8q0 5 4 13zM396 309q0 43 31 74t74 31
t73.5 -31t30.5 -74q0 -46 -33 -76q59 -38 59 -109q0 -53 -38 -91t-92 -38t-92 38t-38 91q0 69 58 109q-33 31 -33 76zM422 125q0 -32 23.5 -55.5t55.5 -23.5t55.5 23.5t23.5 55.5t-23.5 55.5t-55.5 23.5t-55.5 -23.5t-23.5 -55.5zM447 308q0 -23 15.5 -38.5t38.5 -15.5
t38.5 16t15.5 38q0 23 -16 39t-38 16q-23 0 -38.5 -16t-15.5 -39z" />
    </font>
</defs>
</svg>
